<mxfile host="app.diagrams.net" modified="2024-01-30T01:51:27.983Z" agent="Mozilla/5.0 (Macintosh; Intel Mac OS X 10_15_7) AppleWebKit/537.36 (KHTML, like Gecko) Chrome/120.0.0.0 Safari/537.36" etag="G_Pso3HJSdfS7zoFfKSP" version="23.0.2" type="github" pages="8">
  <diagram id="DAFPHoVdk3YulrqNeCpr" name="Page-1">
    <mxGraphModel dx="954" dy="615" grid="1" gridSize="10" guides="1" tooltips="1" connect="1" arrows="1" fold="1" page="1" pageScale="1" pageWidth="827" pageHeight="1169" math="0" shadow="0">
      <root>
        <mxCell id="0" />
        <mxCell id="1" parent="0" />
        <mxCell id="Xu1sJVqpvTbx8bDdoMDZ-15" value="" style="rounded=0;whiteSpace=wrap;html=1;fillColor=none;dashed=1;" parent="1" vertex="1">
          <mxGeometry x="100" y="570" width="670" height="100" as="geometry" />
        </mxCell>
        <mxCell id="Xu1sJVqpvTbx8bDdoMDZ-17" value="" style="rounded=0;whiteSpace=wrap;html=1;dashed=1;strokeColor=#82b366;glass=0;shadow=0;fillColor=#99FF99;" parent="1" vertex="1">
          <mxGeometry x="95" y="700" width="670" height="100" as="geometry" />
        </mxCell>
        <mxCell id="Xu1sJVqpvTbx8bDdoMDZ-19" value="" style="rounded=0;whiteSpace=wrap;html=1;fillColor=none;dashed=1;" parent="1" vertex="1">
          <mxGeometry x="95" y="840" width="670" height="100" as="geometry" />
        </mxCell>
        <mxCell id="Xo3AoRbN2ey5bQLFYqum-1" value="" style="rounded=1;whiteSpace=wrap;html=1;" parent="1" vertex="1">
          <mxGeometry x="95" y="120" width="610" height="340" as="geometry" />
        </mxCell>
        <mxCell id="Xo3AoRbN2ey5bQLFYqum-2" value="&lt;font style=&quot;font-size: 14px&quot;&gt;Global&lt;/font&gt;" style="text;html=1;resizable=0;autosize=1;align=center;verticalAlign=middle;points=[];fillColor=none;strokeColor=none;rounded=0;" parent="1" vertex="1">
          <mxGeometry x="610" y="430" width="60" height="20" as="geometry" />
        </mxCell>
        <mxCell id="Xo3AoRbN2ey5bQLFYqum-7" value="自有K8S 集群" style="rounded=1;whiteSpace=wrap;html=1;fillColor=#60a917;strokeColor=#2D7600;fontColor=#ffffff;" parent="1" vertex="1">
          <mxGeometry x="140" y="590" width="120" height="60" as="geometry" />
        </mxCell>
        <mxCell id="Xo3AoRbN2ey5bQLFYqum-8" value="公有K8S集群" style="rounded=1;whiteSpace=wrap;html=1;fillColor=#6a00ff;strokeColor=#3700CC;fontColor=#ffffff;" parent="1" vertex="1">
          <mxGeometry x="360" y="590" width="120" height="60" as="geometry" />
        </mxCell>
        <mxCell id="Xo3AoRbN2ey5bQLFYqum-9" value="接入K8S集群" style="rounded=1;whiteSpace=wrap;html=1;fillColor=#1ba1e2;strokeColor=#006EAF;fontColor=#ffffff;" parent="1" vertex="1">
          <mxGeometry x="600" y="590" width="120" height="60" as="geometry" />
        </mxCell>
        <mxCell id="Xo3AoRbN2ey5bQLFYqum-10" value="Federation V2" style="rounded=0;whiteSpace=wrap;html=1;" parent="1" vertex="1">
          <mxGeometry x="360" y="390" width="120" height="60" as="geometry" />
        </mxCell>
        <mxCell id="Xo3AoRbN2ey5bQLFYqum-11" value="" style="endArrow=classic;html=1;exitX=0.5;exitY=1;exitDx=0;exitDy=0;entryX=0.5;entryY=0;entryDx=0;entryDy=0;" parent="1" source="Xo3AoRbN2ey5bQLFYqum-10" target="Xo3AoRbN2ey5bQLFYqum-7" edge="1">
          <mxGeometry width="50" height="50" relative="1" as="geometry">
            <mxPoint x="130" y="540" as="sourcePoint" />
            <mxPoint x="180" y="490" as="targetPoint" />
          </mxGeometry>
        </mxCell>
        <mxCell id="Xo3AoRbN2ey5bQLFYqum-12" value="" style="endArrow=classic;html=1;exitX=0.5;exitY=1;exitDx=0;exitDy=0;" parent="1" source="Xo3AoRbN2ey5bQLFYqum-10" target="Xo3AoRbN2ey5bQLFYqum-8" edge="1">
          <mxGeometry width="50" height="50" relative="1" as="geometry">
            <mxPoint x="430" y="460" as="sourcePoint" />
            <mxPoint x="270" y="580" as="targetPoint" />
          </mxGeometry>
        </mxCell>
        <mxCell id="Xo3AoRbN2ey5bQLFYqum-14" value="" style="endArrow=classic;html=1;exitX=0.5;exitY=1;exitDx=0;exitDy=0;entryX=0.5;entryY=0;entryDx=0;entryDy=0;" parent="1" source="Xo3AoRbN2ey5bQLFYqum-10" target="Xo3AoRbN2ey5bQLFYqum-9" edge="1">
          <mxGeometry width="50" height="50" relative="1" as="geometry">
            <mxPoint x="430" y="460" as="sourcePoint" />
            <mxPoint x="430" y="580" as="targetPoint" />
          </mxGeometry>
        </mxCell>
        <mxCell id="Xu1sJVqpvTbx8bDdoMDZ-1" value="Edge" style="rounded=1;whiteSpace=wrap;html=1;" parent="1" vertex="1">
          <mxGeometry x="118.75" y="870" width="50" height="40" as="geometry" />
        </mxCell>
        <mxCell id="Xu1sJVqpvTbx8bDdoMDZ-3" value="&lt;span&gt;Edge&lt;/span&gt;" style="rounded=1;whiteSpace=wrap;html=1;" parent="1" vertex="1">
          <mxGeometry x="233.75" y="870" width="50" height="40" as="geometry" />
        </mxCell>
        <mxCell id="Xu1sJVqpvTbx8bDdoMDZ-5" value="&lt;span&gt;Edge&lt;/span&gt;" style="rounded=1;whiteSpace=wrap;html=1;" parent="1" vertex="1">
          <mxGeometry x="348.75" y="870" width="50" height="40" as="geometry" />
        </mxCell>
        <mxCell id="Xu1sJVqpvTbx8bDdoMDZ-6" value="&lt;span&gt;Edge&lt;/span&gt;" style="rounded=1;whiteSpace=wrap;html=1;" parent="1" vertex="1">
          <mxGeometry x="463.75" y="870" width="50" height="40" as="geometry" />
        </mxCell>
        <mxCell id="Xu1sJVqpvTbx8bDdoMDZ-7" value="&lt;span&gt;Edge&lt;/span&gt;" style="rounded=1;whiteSpace=wrap;html=1;" parent="1" vertex="1">
          <mxGeometry x="586.25" y="870" width="50" height="40" as="geometry" />
        </mxCell>
        <mxCell id="Xu1sJVqpvTbx8bDdoMDZ-8" value="&lt;span&gt;Edge&lt;/span&gt;" style="rounded=1;whiteSpace=wrap;html=1;" parent="1" vertex="1">
          <mxGeometry x="701.25" y="870" width="50" height="40" as="geometry" />
        </mxCell>
        <mxCell id="Xu1sJVqpvTbx8bDdoMDZ-9" value="&lt;font style=&quot;font-size: 21px&quot;&gt;.....&lt;/font&gt;" style="text;html=1;resizable=0;autosize=1;align=center;verticalAlign=middle;points=[];fillColor=none;strokeColor=none;rounded=0;" parent="1" vertex="1">
          <mxGeometry x="178.75" y="880" width="40" height="20" as="geometry" />
        </mxCell>
        <mxCell id="Xu1sJVqpvTbx8bDdoMDZ-10" value="&lt;font style=&quot;font-size: 21px&quot;&gt;.....&lt;/font&gt;" style="text;html=1;resizable=0;autosize=1;align=center;verticalAlign=middle;points=[];fillColor=none;strokeColor=none;rounded=0;" parent="1" vertex="1">
          <mxGeometry x="408.75" y="880" width="40" height="20" as="geometry" />
        </mxCell>
        <mxCell id="Xu1sJVqpvTbx8bDdoMDZ-11" value="&lt;font style=&quot;font-size: 21px&quot;&gt;.....&lt;/font&gt;" style="text;html=1;resizable=0;autosize=1;align=center;verticalAlign=middle;points=[];fillColor=none;strokeColor=none;rounded=0;" parent="1" vertex="1">
          <mxGeometry x="648.75" y="880" width="40" height="20" as="geometry" />
        </mxCell>
        <mxCell id="Xu1sJVqpvTbx8bDdoMDZ-12" value="clutser1" style="rounded=1;whiteSpace=wrap;html=1;" parent="1" vertex="1">
          <mxGeometry x="140" y="720" width="120" height="60" as="geometry" />
        </mxCell>
        <mxCell id="Xu1sJVqpvTbx8bDdoMDZ-13" value="cluster2" style="rounded=1;whiteSpace=wrap;html=1;" parent="1" vertex="1">
          <mxGeometry x="360" y="720" width="120" height="60" as="geometry" />
        </mxCell>
        <mxCell id="Xu1sJVqpvTbx8bDdoMDZ-14" value="cluster3" style="rounded=1;whiteSpace=wrap;html=1;" parent="1" vertex="1">
          <mxGeometry x="600" y="720" width="120" height="60" as="geometry" />
        </mxCell>
        <mxCell id="Xu1sJVqpvTbx8bDdoMDZ-16" value="&lt;font style=&quot;font-size: 14px&quot;&gt;核心云&lt;/font&gt;" style="text;html=1;resizable=0;autosize=1;align=center;verticalAlign=middle;points=[];fillColor=none;strokeColor=none;rounded=0;dashed=1;" parent="1" vertex="1">
          <mxGeometry x="25" y="610" width="60" height="20" as="geometry" />
        </mxCell>
        <mxCell id="Xu1sJVqpvTbx8bDdoMDZ-18" value="&lt;font style=&quot;font-size: 14px&quot;&gt;边缘云&lt;/font&gt;" style="text;html=1;resizable=0;autosize=1;align=center;verticalAlign=middle;points=[];fillColor=none;strokeColor=none;rounded=0;dashed=1;" parent="1" vertex="1">
          <mxGeometry x="25" y="740" width="60" height="20" as="geometry" />
        </mxCell>
        <mxCell id="Xu1sJVqpvTbx8bDdoMDZ-20" value="&lt;font style=&quot;font-size: 14px&quot;&gt;边缘网关&lt;/font&gt;" style="text;html=1;resizable=0;autosize=1;align=center;verticalAlign=middle;points=[];fillColor=none;strokeColor=none;rounded=0;dashed=1;" parent="1" vertex="1">
          <mxGeometry x="20" y="880" width="70" height="20" as="geometry" />
        </mxCell>
        <mxCell id="Xu1sJVqpvTbx8bDdoMDZ-21" value="" style="endArrow=classic;html=1;exitX=0.157;exitY=0.8;exitDx=0;exitDy=0;exitPerimeter=0;entryX=0.5;entryY=0;entryDx=0;entryDy=0;" parent="1" source="Xu1sJVqpvTbx8bDdoMDZ-17" target="Xu1sJVqpvTbx8bDdoMDZ-1" edge="1">
          <mxGeometry width="50" height="50" relative="1" as="geometry">
            <mxPoint y="870" as="sourcePoint" />
            <mxPoint x="50" y="820" as="targetPoint" />
          </mxGeometry>
        </mxCell>
        <mxCell id="Xu1sJVqpvTbx8bDdoMDZ-22" value="" style="endArrow=classic;html=1;entryX=0.5;entryY=0;entryDx=0;entryDy=0;" parent="1" target="Xu1sJVqpvTbx8bDdoMDZ-3" edge="1">
          <mxGeometry width="50" height="50" relative="1" as="geometry">
            <mxPoint x="200" y="780" as="sourcePoint" />
            <mxPoint x="153.75" y="880" as="targetPoint" />
          </mxGeometry>
        </mxCell>
        <mxCell id="Xu1sJVqpvTbx8bDdoMDZ-23" value="" style="endArrow=classic;html=1;exitX=0.157;exitY=0.8;exitDx=0;exitDy=0;exitPerimeter=0;entryX=0.5;entryY=0;entryDx=0;entryDy=0;" parent="1" edge="1">
          <mxGeometry width="50" height="50" relative="1" as="geometry">
            <mxPoint x="421.44000000000005" y="780" as="sourcePoint" />
            <mxPoint x="365" y="870" as="targetPoint" />
          </mxGeometry>
        </mxCell>
        <mxCell id="Xu1sJVqpvTbx8bDdoMDZ-24" value="" style="endArrow=classic;html=1;entryX=0.5;entryY=0;entryDx=0;entryDy=0;" parent="1" edge="1">
          <mxGeometry width="50" height="50" relative="1" as="geometry">
            <mxPoint x="421.25" y="780" as="sourcePoint" />
            <mxPoint x="480" y="870" as="targetPoint" />
          </mxGeometry>
        </mxCell>
        <mxCell id="Xu1sJVqpvTbx8bDdoMDZ-25" value="" style="endArrow=classic;html=1;exitX=0.157;exitY=0.8;exitDx=0;exitDy=0;exitPerimeter=0;entryX=0.5;entryY=0;entryDx=0;entryDy=0;" parent="1" edge="1">
          <mxGeometry width="50" height="50" relative="1" as="geometry">
            <mxPoint x="666.44" y="780" as="sourcePoint" />
            <mxPoint x="610" y="870" as="targetPoint" />
          </mxGeometry>
        </mxCell>
        <mxCell id="Xu1sJVqpvTbx8bDdoMDZ-26" value="" style="endArrow=classic;html=1;entryX=0.5;entryY=0;entryDx=0;entryDy=0;" parent="1" edge="1">
          <mxGeometry width="50" height="50" relative="1" as="geometry">
            <mxPoint x="666.25" y="780" as="sourcePoint" />
            <mxPoint x="725" y="870" as="targetPoint" />
          </mxGeometry>
        </mxCell>
        <mxCell id="Xu1sJVqpvTbx8bDdoMDZ-27" value="" style="endArrow=classic;html=1;entryX=0.75;entryY=0;entryDx=0;entryDy=0;" parent="1" target="Xu1sJVqpvTbx8bDdoMDZ-12" edge="1">
          <mxGeometry width="50" height="50" relative="1" as="geometry">
            <mxPoint x="420" y="450" as="sourcePoint" />
            <mxPoint x="210" y="600" as="targetPoint" />
          </mxGeometry>
        </mxCell>
        <mxCell id="Xu1sJVqpvTbx8bDdoMDZ-28" value="" style="endArrow=classic;html=1;entryX=0.5;entryY=0;entryDx=0;entryDy=0;exitX=0.5;exitY=1;exitDx=0;exitDy=0;" parent="1" source="Xo3AoRbN2ey5bQLFYqum-10" target="Xu1sJVqpvTbx8bDdoMDZ-14" edge="1">
          <mxGeometry width="50" height="50" relative="1" as="geometry">
            <mxPoint x="430" y="460" as="sourcePoint" />
            <mxPoint x="240" y="730" as="targetPoint" />
          </mxGeometry>
        </mxCell>
        <mxCell id="siO-IzYYd0u0qlm4Qa5o-2" value="节点接入" style="rounded=1;whiteSpace=wrap;html=1;fillColor=#d5e8d4;strokeColor=#82b366;" parent="1" vertex="1">
          <mxGeometry x="230" y="310" width="100" height="50" as="geometry" />
        </mxCell>
        <mxCell id="siO-IzYYd0u0qlm4Qa5o-3" value="集群管理" style="rounded=1;whiteSpace=wrap;html=1;fillColor=#d5e8d4;strokeColor=#82b366;" parent="1" vertex="1">
          <mxGeometry x="120" y="310" width="100" height="50" as="geometry" />
        </mxCell>
        <mxCell id="siO-IzYYd0u0qlm4Qa5o-4" value="应用管理" style="rounded=1;whiteSpace=wrap;html=1;fillColor=#d5e8d4;strokeColor=#82b366;" parent="1" vertex="1">
          <mxGeometry x="348.75" y="310" width="100" height="50" as="geometry" />
        </mxCell>
        <mxCell id="siO-IzYYd0u0qlm4Qa5o-5" value="多集群调度" style="rounded=1;whiteSpace=wrap;html=1;fillColor=#d5e8d4;strokeColor=#82b366;" parent="1" vertex="1">
          <mxGeometry x="471.25" y="310" width="100" height="50" as="geometry" />
        </mxCell>
        <mxCell id="siO-IzYYd0u0qlm4Qa5o-6" value="计量计费" style="rounded=1;whiteSpace=wrap;html=1;fillColor=#fff2cc;strokeColor=#d6b656;" parent="1" vertex="1">
          <mxGeometry x="120" y="140" width="100" height="50" as="geometry" />
        </mxCell>
        <mxCell id="siO-IzYYd0u0qlm4Qa5o-7" value="跨集群服务发现" style="rounded=1;whiteSpace=wrap;html=1;fillColor=#fff2cc;strokeColor=#d6b656;" parent="1" vertex="1">
          <mxGeometry x="350" y="140" width="100" height="50" as="geometry" />
        </mxCell>
        <mxCell id="siO-IzYYd0u0qlm4Qa5o-8" value="服务质量监控" style="rounded=1;whiteSpace=wrap;html=1;fillColor=#f8cecc;strokeColor=#b85450;" parent="1" vertex="1">
          <mxGeometry x="350" y="225" width="100" height="50" as="geometry" />
        </mxCell>
        <mxCell id="siO-IzYYd0u0qlm4Qa5o-9" value="边缘服务发现" style="rounded=1;whiteSpace=wrap;html=1;fillColor=#fff2cc;strokeColor=#d6b656;" parent="1" vertex="1">
          <mxGeometry x="230" y="140" width="100" height="50" as="geometry" />
        </mxCell>
        <mxCell id="siO-IzYYd0u0qlm4Qa5o-10" value="副本扩缩容" style="rounded=1;whiteSpace=wrap;html=1;fillColor=#f8cecc;strokeColor=#b85450;" parent="1" vertex="1">
          <mxGeometry x="233.75" y="225" width="100" height="50" as="geometry" />
        </mxCell>
        <mxCell id="siO-IzYYd0u0qlm4Qa5o-11" value="" style="rounded=1;whiteSpace=wrap;html=1;fillColor=#f8cecc;strokeColor=#b85450;" parent="1" vertex="1">
          <mxGeometry x="610" y="250" width="30" height="30" as="geometry" />
        </mxCell>
        <mxCell id="siO-IzYYd0u0qlm4Qa5o-12" value="未实现" style="text;html=1;resizable=0;autosize=1;align=center;verticalAlign=middle;points=[];fillColor=none;strokeColor=none;rounded=0;" parent="1" vertex="1">
          <mxGeometry x="650" y="255" width="50" height="20" as="geometry" />
        </mxCell>
        <mxCell id="siO-IzYYd0u0qlm4Qa5o-13" value="" style="rounded=1;whiteSpace=wrap;html=1;fillColor=#d5e8d4;strokeColor=#82b366;" parent="1" vertex="1">
          <mxGeometry x="610" y="290" width="30" height="30" as="geometry" />
        </mxCell>
        <mxCell id="siO-IzYYd0u0qlm4Qa5o-14" value="已实现" style="text;html=1;resizable=0;autosize=1;align=center;verticalAlign=middle;points=[];fillColor=none;strokeColor=none;rounded=0;" parent="1" vertex="1">
          <mxGeometry x="650" y="295" width="50" height="20" as="geometry" />
        </mxCell>
        <mxCell id="siO-IzYYd0u0qlm4Qa5o-15" value="" style="rounded=1;whiteSpace=wrap;html=1;fillColor=#fff2cc;strokeColor=#d6b656;" parent="1" vertex="1">
          <mxGeometry x="610" y="330" width="30" height="30" as="geometry" />
        </mxCell>
        <mxCell id="siO-IzYYd0u0qlm4Qa5o-16" value="开发中" style="text;html=1;resizable=0;autosize=1;align=center;verticalAlign=middle;points=[];fillColor=none;strokeColor=none;rounded=0;" parent="1" vertex="1">
          <mxGeometry x="650" y="335" width="50" height="20" as="geometry" />
        </mxCell>
        <mxCell id="siO-IzYYd0u0qlm4Qa5o-17" value="安全隔离" style="rounded=1;whiteSpace=wrap;html=1;fillColor=#f8cecc;strokeColor=#b85450;" parent="1" vertex="1">
          <mxGeometry x="118.75" y="225" width="100" height="50" as="geometry" />
        </mxCell>
        <mxCell id="siO-IzYYd0u0qlm4Qa5o-19" value="日志中心" style="rounded=1;whiteSpace=wrap;html=1;fillColor=#f8cecc;strokeColor=#b85450;" parent="1" vertex="1">
          <mxGeometry x="471.25" y="225" width="100" height="50" as="geometry" />
        </mxCell>
        <mxCell id="siO-IzYYd0u0qlm4Qa5o-20" value="弹性发布" style="rounded=1;whiteSpace=wrap;html=1;fillColor=#f8cecc;strokeColor=#b85450;" parent="1" vertex="1">
          <mxGeometry x="471.25" y="140" width="100" height="50" as="geometry" />
        </mxCell>
      </root>
    </mxGraphModel>
  </diagram>
  <diagram id="lI5RoNFp88MgGGNgni5x" name="Page-2">
    <mxGraphModel dx="-481" dy="-502" grid="1" gridSize="10" guides="1" tooltips="1" connect="1" arrows="1" fold="1" page="1" pageScale="1" pageWidth="827" pageHeight="1169" math="0" shadow="0">
      <root>
        <mxCell id="msdkebxMWvLPw_NlSIgo-0" />
        <mxCell id="msdkebxMWvLPw_NlSIgo-1" parent="msdkebxMWvLPw_NlSIgo-0" />
        <mxCell id="BHLONQJ8GlK8dCWR9Fvm-0" value="" style="rounded=1;whiteSpace=wrap;html=1;" parent="msdkebxMWvLPw_NlSIgo-1" vertex="1">
          <mxGeometry x="1953" y="1230" width="380" height="210" as="geometry" />
        </mxCell>
        <mxCell id="BHLONQJ8GlK8dCWR9Fvm-2" value="集群管理控制器" style="shape=process;whiteSpace=wrap;html=1;backgroundOutline=1;" parent="msdkebxMWvLPw_NlSIgo-1" vertex="1">
          <mxGeometry x="1983" y="1240" width="120" height="60" as="geometry" />
        </mxCell>
        <mxCell id="BHLONQJ8GlK8dCWR9Fvm-3" value="Actor" style="shape=umlActor;verticalLabelPosition=bottom;verticalAlign=top;html=1;outlineConnect=0;" parent="msdkebxMWvLPw_NlSIgo-1" vertex="1">
          <mxGeometry x="1803" y="1370" width="30" height="60" as="geometry" />
        </mxCell>
        <mxCell id="BHLONQJ8GlK8dCWR9Fvm-5" value="" style="endArrow=classic;html=1;entryX=0;entryY=0.5;entryDx=0;entryDy=0;" parent="msdkebxMWvLPw_NlSIgo-1" target="BHLONQJ8GlK8dCWR9Fvm-6" edge="1">
          <mxGeometry width="50" height="50" relative="1" as="geometry">
            <mxPoint x="1843" y="1405" as="sourcePoint" />
            <mxPoint x="2023" y="1430" as="targetPoint" />
          </mxGeometry>
        </mxCell>
        <mxCell id="BHLONQJ8GlK8dCWR9Fvm-6" value="Cluster CRD" style="rounded=1;whiteSpace=wrap;html=1;" parent="msdkebxMWvLPw_NlSIgo-1" vertex="1">
          <mxGeometry x="1983" y="1380" width="80" height="50" as="geometry" />
        </mxCell>
        <mxCell id="BHLONQJ8GlK8dCWR9Fvm-7" value="1. watch" style="endArrow=classic;html=1;exitX=0.5;exitY=1;exitDx=0;exitDy=0;entryX=0.75;entryY=0;entryDx=0;entryDy=0;" parent="msdkebxMWvLPw_NlSIgo-1" source="BHLONQJ8GlK8dCWR9Fvm-2" target="BHLONQJ8GlK8dCWR9Fvm-6" edge="1">
          <mxGeometry y="-20" width="50" height="50" relative="1" as="geometry">
            <mxPoint x="1913" y="1540" as="sourcePoint" />
            <mxPoint x="1963" y="1490" as="targetPoint" />
            <mxPoint as="offset" />
          </mxGeometry>
        </mxCell>
        <mxCell id="BHLONQJ8GlK8dCWR9Fvm-8" value="2. 提交" style="text;html=1;resizable=0;autosize=1;align=center;verticalAlign=middle;points=[];fillColor=none;strokeColor=none;rounded=0;" parent="msdkebxMWvLPw_NlSIgo-1" vertex="1">
          <mxGeometry x="1858" y="1380" width="50" height="20" as="geometry" />
        </mxCell>
        <mxCell id="BHLONQJ8GlK8dCWR9Fvm-9" value="Global CRD" style="rounded=1;whiteSpace=wrap;html=1;" parent="msdkebxMWvLPw_NlSIgo-1" vertex="1">
          <mxGeometry x="2213" y="1245" width="80" height="50" as="geometry" />
        </mxCell>
        <mxCell id="BHLONQJ8GlK8dCWR9Fvm-10" value="" style="endArrow=classic;html=1;entryX=0;entryY=0.5;entryDx=0;entryDy=0;exitX=1;exitY=0.5;exitDx=0;exitDy=0;" parent="msdkebxMWvLPw_NlSIgo-1" source="BHLONQJ8GlK8dCWR9Fvm-2" target="BHLONQJ8GlK8dCWR9Fvm-9" edge="1">
          <mxGeometry width="50" height="50" relative="1" as="geometry">
            <mxPoint x="1893" y="1500" as="sourcePoint" />
            <mxPoint x="1943" y="1450" as="targetPoint" />
          </mxGeometry>
        </mxCell>
        <mxCell id="BHLONQJ8GlK8dCWR9Fvm-11" value="3. 查询" style="edgeLabel;html=1;align=center;verticalAlign=middle;resizable=0;points=[];" parent="BHLONQJ8GlK8dCWR9Fvm-10" vertex="1" connectable="0">
          <mxGeometry x="-0.0138" relative="1" as="geometry">
            <mxPoint x="-4.83" y="-10" as="offset" />
          </mxGeometry>
        </mxCell>
        <mxCell id="BHLONQJ8GlK8dCWR9Fvm-17" value="" style="edgeStyle=orthogonalEdgeStyle;rounded=0;orthogonalLoop=1;jettySize=auto;html=1;entryX=0.5;entryY=0;entryDx=0;entryDy=0;" parent="msdkebxMWvLPw_NlSIgo-1" source="BHLONQJ8GlK8dCWR9Fvm-12" target="BHLONQJ8GlK8dCWR9Fvm-15" edge="1">
          <mxGeometry relative="1" as="geometry">
            <mxPoint x="2223" y="1510" as="targetPoint" />
            <Array as="points">
              <mxPoint x="2223" y="1470" />
              <mxPoint x="2063" y="1470" />
            </Array>
          </mxGeometry>
        </mxCell>
        <mxCell id="BHLONQJ8GlK8dCWR9Fvm-18" value="5. 联邦纳管" style="edgeLabel;html=1;align=center;verticalAlign=middle;resizable=0;points=[];" parent="BHLONQJ8GlK8dCWR9Fvm-17" vertex="1" connectable="0">
          <mxGeometry x="-0.2473" relative="1" as="geometry">
            <mxPoint x="0.48" y="-10.030000000000001" as="offset" />
          </mxGeometry>
        </mxCell>
        <mxCell id="BHLONQJ8GlK8dCWR9Fvm-12" value="Federation 控制器" style="shape=process;whiteSpace=wrap;html=1;backgroundOutline=1;" parent="msdkebxMWvLPw_NlSIgo-1" vertex="1">
          <mxGeometry x="2153" y="1370" width="140" height="60" as="geometry" />
        </mxCell>
        <mxCell id="BHLONQJ8GlK8dCWR9Fvm-13" value="&lt;span style=&quot;color: rgba(0 , 0 , 0 , 0) ; font-family: monospace ; font-size: 0px ; background-color: rgb(248 , 249 , 250)&quot;&gt;jiis&lt;/span&gt;" style="endArrow=classic;html=1;exitX=1;exitY=1;exitDx=0;exitDy=0;entryX=0.5;entryY=0;entryDx=0;entryDy=0;" parent="msdkebxMWvLPw_NlSIgo-1" source="BHLONQJ8GlK8dCWR9Fvm-2" target="BHLONQJ8GlK8dCWR9Fvm-12" edge="1">
          <mxGeometry x="-0.2124" y="-14" width="50" height="50" relative="1" as="geometry">
            <mxPoint x="2053" y="1310" as="sourcePoint" />
            <mxPoint x="2053" y="1390" as="targetPoint" />
            <mxPoint as="offset" />
          </mxGeometry>
        </mxCell>
        <mxCell id="BHLONQJ8GlK8dCWR9Fvm-14" value="4. JoinCluster" style="edgeLabel;html=1;align=center;verticalAlign=middle;resizable=0;points=[];" parent="BHLONQJ8GlK8dCWR9Fvm-13" vertex="1" connectable="0">
          <mxGeometry x="-0.2708" y="3" relative="1" as="geometry">
            <mxPoint x="-25" y="12.22" as="offset" />
          </mxGeometry>
        </mxCell>
        <mxCell id="BHLONQJ8GlK8dCWR9Fvm-15" value="Cluster" style="rounded=1;whiteSpace=wrap;html=1;" parent="msdkebxMWvLPw_NlSIgo-1" vertex="1">
          <mxGeometry x="1953" y="1500" width="220" height="80" as="geometry" />
        </mxCell>
      </root>
    </mxGraphModel>
  </diagram>
  <diagram id="IDZiNuhCM3JMp1bRkz-M" name="Page-3">
    <mxGraphModel dx="946" dy="1792" grid="1" gridSize="10" guides="1" tooltips="1" connect="1" arrows="1" fold="1" page="1" pageScale="1" pageWidth="827" pageHeight="1169" math="0" shadow="0">
      <root>
        <mxCell id="CIlAjLKx_zQ3_18mQWrC-0" />
        <mxCell id="CIlAjLKx_zQ3_18mQWrC-1" parent="CIlAjLKx_zQ3_18mQWrC-0" />
        <mxCell id="CIlAjLKx_zQ3_18mQWrC-2" value="云边端系统" style="swimlane;html=1;childLayout=stackLayout;resizeParent=1;resizeParentMax=0;horizontal=1;startSize=40;horizontalStack=0;" parent="CIlAjLKx_zQ3_18mQWrC-1" vertex="1">
          <mxGeometry x="140" y="-460" width="536.89" height="372.8" as="geometry" />
        </mxCell>
        <mxCell id="CIlAjLKx_zQ3_18mQWrC-3" value="核心云" style="swimlane;html=1;startSize=60;horizontal=0;swimlaneFillColor=none;" parent="CIlAjLKx_zQ3_18mQWrC-2" vertex="1">
          <mxGeometry y="40" width="536.89" height="92.8" as="geometry" />
        </mxCell>
        <mxCell id="CIlAjLKx_zQ3_18mQWrC-4" value="kubernetes&amp;nbsp;&amp;nbsp;" style="rounded=0;whiteSpace=wrap;html=1;glass=0;gradientColor=none;align=right;strokeColor=none;" parent="CIlAjLKx_zQ3_18mQWrC-3" vertex="1">
          <mxGeometry x="200" y="23.399999999999977" width="130" height="60" as="geometry" />
        </mxCell>
        <mxCell id="CIlAjLKx_zQ3_18mQWrC-5" value="" style="aspect=fixed;html=1;points=[];align=center;image;fontSize=12;image=img/lib/mscae/Kubernetes.svg;rounded=0;glass=0;gradientColor=none;" parent="CIlAjLKx_zQ3_18mQWrC-3" vertex="1">
          <mxGeometry x="207.99999999999997" y="31.399999999999977" width="45.83" height="44" as="geometry" />
        </mxCell>
        <mxCell id="CIlAjLKx_zQ3_18mQWrC-6" value="边缘云" style="swimlane;html=1;startSize=60;horizontal=0;fillColor=#d5e8d4;strokeColor=#82b366;rounded=0;glass=0;swimlaneFillColor=#ffffff;" parent="CIlAjLKx_zQ3_18mQWrC-2" vertex="1">
          <mxGeometry y="132.8" width="536.89" height="120" as="geometry" />
        </mxCell>
        <mxCell id="CIlAjLKx_zQ3_18mQWrC-7" value="kubernetes&amp;nbsp;&amp;nbsp;" style="rounded=0;whiteSpace=wrap;html=1;glass=0;gradientColor=none;align=right;strokeColor=none;" parent="CIlAjLKx_zQ3_18mQWrC-6" vertex="1">
          <mxGeometry x="70" y="30" width="130" height="60" as="geometry" />
        </mxCell>
        <mxCell id="CIlAjLKx_zQ3_18mQWrC-8" value="" style="aspect=fixed;html=1;points=[];align=center;image;fontSize=12;image=img/lib/mscae/Kubernetes.svg;rounded=0;glass=0;gradientColor=none;" parent="CIlAjLKx_zQ3_18mQWrC-6" vertex="1">
          <mxGeometry x="80" y="36" width="50" height="48" as="geometry" />
        </mxCell>
        <mxCell id="CIlAjLKx_zQ3_18mQWrC-9" value="" style="rounded=0;whiteSpace=wrap;html=1;glass=0;gradientColor=none;align=right;strokeColor=none;" parent="CIlAjLKx_zQ3_18mQWrC-6" vertex="1">
          <mxGeometry x="238" y="30" width="160" height="60" as="geometry" />
        </mxCell>
        <mxCell id="CIlAjLKx_zQ3_18mQWrC-10" value="" style="shape=image;imageAspect=0;aspect=fixed;verticalLabelPosition=bottom;verticalAlign=top;rounded=0;glass=0;gradientColor=none;image=https://oscimg.oschina.net/oscnet/5ef7c47f-a909-49a6-a08b-4275f2c5dd58.png;" parent="CIlAjLKx_zQ3_18mQWrC-6" vertex="1">
          <mxGeometry x="258" y="38.88" width="118.72" height="46.12" as="geometry" />
        </mxCell>
        <mxCell id="CIlAjLKx_zQ3_18mQWrC-11" value="边缘网关" style="swimlane;html=1;startSize=60;horizontal=0;" parent="CIlAjLKx_zQ3_18mQWrC-2" vertex="1">
          <mxGeometry y="252.8" width="536.89" height="120" as="geometry" />
        </mxCell>
        <mxCell id="CIlAjLKx_zQ3_18mQWrC-12" value="Kubeedge&amp;nbsp; &amp;nbsp;&amp;nbsp;" style="rounded=0;whiteSpace=wrap;html=1;glass=0;gradientColor=none;align=right;strokeColor=none;" parent="CIlAjLKx_zQ3_18mQWrC-11" vertex="1">
          <mxGeometry x="70" y="30" width="150" height="60" as="geometry" />
        </mxCell>
        <mxCell id="CIlAjLKx_zQ3_18mQWrC-13" value="" style="shape=image;imageAspect=0;aspect=fixed;verticalLabelPosition=bottom;verticalAlign=top;rounded=0;glass=0;gradientColor=none;image=data:image/png,iVBORw0KGgoAAAANSUhEUgAAAPoAAAD6CAYAAACI7Fo9AABP50lEQVR4nOy9Z5hc13nn+Tv3Vo6dc0BOBEACRCSYJIuywtjUWJJlj8PM2tY++2F35xmPSNAzz86HHc+apDzeD7uzuzO2ZhxHtmVlK1CiRFEEiEgSAJEz0AGNzl3Vleves885davRDYBEA52qCvX3UwKNblTduvf8zxvO+/5fgyqqqKLiUSV6FVU8BKgSvYoqHgJUiV5FFQ8BqkSvooqHAK6lvoAqFhYde/cJW5gYUghAgEQgkEjnNwyJELL35R1yiS+1igWEWOoLqGLh0PXCW0IK4bENMyqkqAUiID2OJ5cHkQIxgRBjAmI9L++wl/qaq1gYVIleQejau09IaQphmB4pZZ0UchWSzUA30ALUA37ABLLAJDAE9AMnQVxEcA3bjkvbtvr+eE+V+BWCKtErBO0vHhSGsN0gmkBsk7AL2AZsAcLT8jHTn7l0XnngGvA+cAQ4gC1PSeR435efqJK9AlAlepmj+6WDhmULN0Iqa/0M8BSwHVgFBJ08zGyes+UQfgQ4DRwCvoeQZ5Xll24z3/fvq3F8uaJK9DJEx4sHhGHgkogaKVkB7AR+AdjhuOfuOX6EInQauAwcA36C4AiSPiPvmrj+H7dVrXyZoUr0MkPnC/uFFEZACLFewpPAp4BHgRrAM88fVyT8TeAd4B+R4qcIBqRBru+PdlYtfJmgSvQyQPtLB4SQGEgRQejE2uPA54BNjgX3LfAlKAueAm4ArwFvIDiFtK+DSCOk7H35iSrpSxjVc/QShyI5ggiwzHHRP0Yh0da6iM/PcOL9lcD/AHwcyRtgvI7gOMgrQG6RrqWKB0DVopcg2l56WwhpGAb4pJBdSPGLwNNOBr3JseBLWdVoAQnHwh8AviUR7wFDhpAZAfL6y7uqFr6EUCV6CaH5D04Il530i4I7/hjwUeeIbDMQKtGSZUX6PuAs8DbwM4Q8j2C49492V618iaBK9BLAun95WCS90rSEiIC9W8Cngd2gM+qlSvDboQg/ClxA8DrIv8MWPbaQyf5XdltLfXEPO6pEX0Ks+DfviLxtuaW0mySsAT4CfBJYDkSdCrZyg7Liw07hzc+B/VJySUoxTt6d7/8/t1Zd+iVAlehLhLYXj5qmsFS8vVIiVQz+CceC15SJBb8XssA4cBz4voS3QJxLT04mRv7TL1TJvsioEn0R0b73oJBIl0DUiIIFf95Jsi0D6uah0KUUkZpWbfd14JCE67ZhTxhSyL6Xd1dJvwioEn0R0LX3kGlLwgjZDTzhvB53LLjnIXkONjDhVNsdchJ3RxHymjSNTN9/qBbfLCQehgW2ZOh+6YBhI9xI0SSRn3Gy6I8p416h1ns2UIROAteBwwj5VYRxBCnjZtaVv/Yn26qEXwBUib4A6HzhbbNQpkqHLFjuZ51Xx0Nkwe8F2zmLP6EJDz9DimM6kZe3Ur1/Uq20m09UF9w8ouNLBwSmsuCyE8ROBP/EcdEVwQNLfX0lCtvpiy+49FL8I8j9CDsupG31vPpklfDzgCrR5wHte98WCBEUkmYQm5069C0OwUPV+zwrWEDMIfz3dD09XBLSHkSS7fly1cLPBdUF+IBoe+mAMKQwBTRLITcgxZNOL/h6oKHaR/DAkNMy9e9qlx4OS8T7YCeljd3/5Wqm/n5RJfoDoH3vAQOBX0ixAfiMc0S2saDJVhFn4KUAOa3a7gjwDYl8G8l1YZDqrR7L3ReqRJ8lVv7rwyLtwg0yLJAbnCOyPU6pavQ+lFyquD9Ip/jmqj6Og7cQ8gBSXJfIeF+1vHZWqC7MWaBz72HDsKXPMtgG8iMOwR91esHLsUy1XJEDeh2X/i2J/I6QotdG5vtfrVr4D0OV6B+A1hfeFYbIm4aQEQldIJ903PRHplWxVe/f4qNo4fuBn6oYXipLL0WflHay/8tVC383VBfqNLS/cEhg2GoleQ3EymmtojudIpdo9Z6VFHJOPf0lpy/+TQmHbCGHDbCq5bW3UF2009D+4iGPELLJSax9wSlyaXaEHqr3qnRhOZl6Rfiv6jgeLhru3PD1P3yqKmRZXbzQ+dJBQ4BPStEqkVuc+Fu91jnySdUsevkg7wykOKesO8h9IM5gikEjK/LX//jhlat+aIne8cLbwjCEgRD1ttR66E87Fly57N4qwcsaxeKb046Q5XcNyziNFMnrf7z9obTwDx3RO148aCBwI2UjiE0IXeTyKaeTzF8tdKkYFCfQTDjx+36kOADyJIJJIa1cz6t7HhoL/1AQvWPv28IGwxAighQbnbPvp50MessiyCVXsbQoylVfd5po3gB+IoXolwbp/v9jZ8Vb+Yonetfeg0IKGZLQhlTWW/xzYK2j5PKwtoo+rFAWPOPE8T8Evo3glJTGgJQi0//q9oq18BVLdF2miqgTkmUIParoWafRpNOJwat4eCEdl74XOOicx5+UUl4UBmn140obSFFx8WjjH5wVLjvmFdgdwC8itKLqY06RS7UXvAqcNVDj1EWs1AMpYJ8Q4q9AnkCIYacop2JQEYu++w+OiLzUWXI/0loBbBWFGPwXFPer5+BV3AO2o3pzWhFeJ+8KIhj9EjvVVwHltWW9+NtePCoMYXkE1EnkE457vs2JwSPVOvQq7hPFjjkVw59xdO2+I6W4hBCTfa/sKFsrX5ZEb35xv3AJwwSjRuj+b/kpCkMPljtFLmX5vaooKdjTWmR/JhGvg7ggkcn+V3aWXT19WRFC16IL3ELIFsdqf4TC6ODVzkyyapFLFfONNDAIvF8cSKFcfGFaE8Kw5PU/fLos3PqyIXrbi2+7DCFCFJpNftMheWcZTzSporyQcyz8OeCvEPJNYEC6zcm+f1/6pbUlTfSOFw4ICW5hiHoKAw92Ot1kjztZ04o7Naii5JFxCm+O62M5oRVsrxnSGL3+yo6SLbwpSaJ3vHTAxMYLogOhZ5E9AWx1WkWrdehVlAKKo6OvOwMpvo3kHZCjSJnpLTExy5IieseXDgth2qYUtGDzBEKfb/6iM/S/6p5XUYooCmEcL7THyh8hOQgi0fvqrpJJ2pUM0Zf/20Min6MW5BYp+CWnFn1VVS65ijJB3umYU4R/DfiBlJzpe3VXScyILxkX2LZlAMEvS8EfAP/cqWYLV0leRZnA5VRfPgX8r8C/BFa27T1QEp7okpOo46VDQkipCP1RiSb5JqddtIoqyhXS0aX/qoQ/l3C6/5Vd6aW8oCUlete/3S/svKsN+CzI33UknErGy6iiijki5vTC/99SN86IVN8rSzM1dkmPp2zLDDjyyb/rSDdVSV5FJSHiuPITjmrtyaVqllkyYnXsPeRDam30X3Uq2zxLdS1VVLGAUGHoUwL+mUB2drx0cEm86CW0oLIR+BVgVzUmr6KCIRwl4V/S9SByabzoJSF6x94D6stuB54DapfiGqqoYhFhOJN1P4mUS7Lel8iii0ghAafLWqtlrFU8DAhoGXEhdra9eGTRj9wWnegdew8oV6Yb2FCVdKriIYNy4R8TgkD73iOLGqsvOtHtvFs4ybfWpT7eq6KKRYZHGTiB3SmwF5V7i/phLV86JKRheR0N9ZrF/OwqqigBFI1cN8hFNXKLGh+bpq2+XAOIZdXjtKWBIQQuAW4DXM5/m/olCru+s/xsCZaU+s+8hJyUhT9tkFJSUq1Z5YV2kF2yELbmF+tDFzkRJgxH7mlt1W1feAgBHkMQ8Rg0+EzqfQa1QTeNUQ/1ITd1QTdRv0lYvbwuTX7TFFi2JJ2TJLM2qZzFeMpiZDLHaCLHcCzLRCLPcNJiOG0xkbVJ5m1klfmzRQTYKArx+uXF+tBFJbqQwkDINueooYoFgrLOEbegI2Cyqt5Le6OP5c0BVjX5aY548XpNTEPgMg1Mh9wuo7DvCrU7ULDkivC2Xfgzb9lYliSXtxhP5LkwmOLSQJIbwykuDWe4NplnJGOTs6uMvwdMR2K6qWKJDjLoyD/VL+7nVj4UT0Mug86wS5N7eaOP1a1BNnaGCPld+DwmXpeBx2VoS//hEPr9iuQvoHAipGhcH5W0NwbYvbqGdNbiwkCCM30Jrg6muDyS5epETlt7u+ri3w2uQo5KNjX/uzfFzf/9mUW5RYt9hl3vJOKqx2rzBEVFRchVERd7ukOs7wqxqTtCe50Xj9vUxDbmMUhSb+U2BW7TJOwrkL+pxsf2lTWMTuY42zfJyWtx9l+KcWYsx2TVrb8dZuHESbSZlulxpKkWHItKdCloFgW3pVokM0co91zxbGXUw5b2AI92h9mxJkpdyIPfY+Iy785u6fyPlJKcJcnkbbJ5STZvFyywLMT2yrVXL7dp4PcYeEzhuPXc4RF4XAKPy4Xfa9IQ8fDosggbusKcvBbjWF+S00MZxrI2+apbX4QydN0i76ppf+ngYN/Luxb8xiwa4Vb9/iEzjexyCmWqRH9AKJKF3QaPt/h5elWYx1ZEWdYUIBp0a0t7O/KW1K9svpBQuzGeZXAsTTKZI56ymEhbxDIWk1mbrFWIzdXbKE/A7xIE3QZ1fpNwwMTvd1Mf9dIa9dIU9eBzG3pDcalwgMLmEPCa+vXcow3sWVdH32iKM9fj/Pz8BPuuJhiquvQ4Vl0n5KQ0hor770JiUQjX+cJBkREy4CThaqvtqA8GlxA0eg12dwf5td3NrG4LURNy3xZLO+NGrIKVvjKU4vJAgsHhFP1jGa6M57g4ntVZ87QmtpxyraevNjHtT7W5eE1Bjc9kedTDiho3HbUeGmp8dLcEWNsWIuAxMM1bYYIifdhvsqYtRHudj3XtIVreGeSn5ya4Es+Tsh5qqiuiLwPRIIVrUU6fFseyGvqh1oJYXrXm9w9FtIAp2NTg45k1EZ5cV8vajjA+jzHjjFJxJ521mEjkuHwzybneSU70Jrg0muXGZE5b7bxzLn6vs3B52/9j5SWpRJ7BpMU7N1L4XQZ1AZOVtR42twdY0RpkbWuQphoPQa9rKnRQxA/7XaxqD/EFr8na1gCvnRzjaG+SoYytz+ofQoiC7JTsEjKrDGB8oT9wUUgnC1FdXWEXq1rz+4GuMPKabG/18fy2RraurKEh7LkjBlfWe3AiywkVF1+a4OyNJGfH8gyk8/OSDFNvod5HeQA5IJW1GM1aXBrPcqgvyfLwOBua/GxaHubxFVG6m/x43YYu0MFJ4HU3BXQM31bvo+PYMD+9GOdiLMdDGrr7gdVCyGjFEF0IYUqp+8+7qrLNs4eiSKPP5JcfqeGTj9aztiNE2O+ekUVXcfXEZJZzfQl+/P4IJ/qTXJ7IMZGx9PCwIsmLLrjyAQJuQxfR1PgMHe8H3YKQcr1F4VhN/ZusLclYkkROEs/a+v3Un3HtFcgp4utB41mb46NZLsTy2tofvhTjYxvr2NgVprnWi99t6s9Wr5DfxabuKPVhD+11o/zFkWF9HJd/+Cy7V6sqSVHnzGlfUCyORZd613rEKRKoVsTNAj5TsK7Gzac31/H89haaazwY0xiezUsGx9Mcvxpj37lxjvQmuRrLaeIXKaOsadBVKJ5pDrtZUe9lZb2X7gY/oaCLUMBNyGdqVzvsNXEZ6M9QVlu9Tzpnk8zYxNN5JpN5Eqkc/SNproxmuTySoWc8w4T6eV5qF3wyZ3N2XBE+x6GeJBuavDy7JspjK6Msbwpokqtv4PcYrGgO0hz1Uhvy8J1jw7zTn2I0Yz1MSTofsBloa33prZM3Xn5qQae8LJbrXiOQa6rn57ODS8DGOi+fe7yOpx5poKXWO+NIK5O3OdMTZ//pUV47M8GZ0SyZaUk1XfoqBPVegz3LgjzeFaKr0U9d1Etj1KtLXw1D7bjOm4q7776SW8G62j7U+8dTFkPxDGMTWW6Mpjjek+Dnlyfpi+dI2VLnCSxb0p/Mc/NanrNDGfb0Jvj45np2r6vVm8p06/7sxjoiAZPw0SF+dCnOZP6hycgbTjjbYUrTdKa3LhgWx3VHq2qsqxL93vCbgk31Xj63rYFnNtbTFL1FckW0ZMbi5PU4f39ggH3XEroCLesEucqCh12CzrCbTW1+ti0P80hXmJYaL+GAy3HNxSwq4woQ3PK/hLMbRIMuIgEXdmOAVDbMI8sz7FyV4Ni1Sd7pmeTKWJbRjK2vKS+hP2nxgwtx+pW3kbd1jqEx6pk6KYgE3WxbVTPlrbx5NcHIw2PZPYVyWMPjDHFcMCx4vLzifzsoLEuLQP6Gs4NVXfcPgFrrm+u8/NqORp7ZVLDkpkMAxeWJRI7D50f5xuFBTZ7RrE3xlMolBMtCJs8sD/Gr2xv4xGON+oy9o96vz7XV+9wPyT8IU7G+IXSyrS7kobPBz8oWPxta/NR6DNIpS7vheSeGz9iSvnieodE0WBZ1QY/eLPT1qN3fbeiYvS7oIj6Z4/JYlofk9E3qkcyCH8T2/dmC6r4vONFDe37Pg+RZ4NOOnE4Vd4Fa8K0BF7+xo5GPbm6gqeYWyfO21F1jb54c4e8ODXGgL8mkdcuKRzwGW5p9/OauZj69tYFHlkVprvHpgpbFgMsUOknYWONjWZOfFQ1echmLZDpPyipsUsovHU5Z9I5kyGUt6p0cQfH0wONsGiGvyZWbSX3OX7KjSecP6gElheCbdU//j/Hxt/50wT5owYke3vN7QVGw5tsA90J/XilAWzxR6AQTRSv6IZZUudTNAZPPP1rHrz7Rpl3t6SQ/o1z1/Tf4m3dGOD6c1cUm6j2DLsH2Zh+f21LPb+1p5Yn1dTTXFgg+V8t9v1Cfp0gbDbjpagzwWHeI1fVeTMtmPJknbRUy+SNpi/ODaa7cSOjrb2/w6TLbomVvq/Pqvx8cTevfrXDLLgo96fINieyN7fvKgn3bRYjRpRfEikonuSEK27MibdBt4HcX68MLZE1kbZK5Qr23Ne1oSiHsFnxkWUgnrBoinimS2lIyNJ7le+8M8rUTYwxn7akz5xq3wdMdAT6xpZ4da2q162vOZ/fKHKAI317v19fUXOOlIzLCj87HdDZefe+xjMVbPUlse5D2ei/rOsOa7Ao+j8medbXEJrPEjw5zfjxX6fF6EES3lPKgM4p5QbCgRG//kp6rFkXQVmnn57qLyxDUeAzqAy66aj0sq/HQGnEXylLdxhTxpA25nE0qnWMwkef6eJZrY1l6xrIk85IdbQE+tbWBVW2hqTNyRejReI6fnxrh+2djDGULXWDqx8pV/6V1Uf7J1gbWd4aJBNzz2qE2H1DXE/CabF4epUbF32EPf3F4iJ5EodY9Y0mODKT41tEhPmsarGoN6eYYBbVBPLOpgcF4jrFjYwxlrUrugAsUxFiEuZAJuQUlujCm9KyjlZSEcznZ7TX1Xj6+NsLyZj/1NT7qIx59dKUW+O1fVq3TnCWZSOYZjmUYjWU53zfJhaE0jy8L8+jyKAHPrb0wnsxx5Pwo33h3WIs6FEkecAn2dAT4wu5mXQbrXaQ4/EGhwoiVzQH93WKJHF97f4yBVKH0NZ61+f6ZCV0z8Cu7DS2OoaWutEfg49lH6jg3kGJfX1JviBUKH9AlJIHuLx3KXPvjhZnNtrCuuyK61GWvwQX9nEWCxxBakumRJh+7lofZ0BliVVtQyzO5zFvx+AftaMrCeyMeGsJu7DY0UUfiWe0BhP3uKZc9nbV570qMfzg6zInhjLaA6kc1XpPdHX6+sLM8SF6E+t4ttV4+vb1JZ+u/fWqcK/FC6etA0uK1sxN6kwz6XPo40XC651a3hfgnj9VzM5HnxEimUq26eoitUtBumTK2UDpyC+ZOL3vhsJBqtxJ8Hni6nF13RcA6r8mn1oT5zZ1NfGF3C7vW1bKiJagbNhTJjXuQfPp7qd9Viz/oM2mMeAj7XFOudyJj8c6lCf5m/wA/v16wZOr3G7wmn9kQ5XefbdfWv1xIXoT6DrUhLytbA9R5DIbHMvq8PWdLfUw4MJrBL2xaan36nuLE642K+LbNez0J3W1XocgA54ELsf1/tiBEXzCLbhXkbGsc171sE3GKgC0+k2dXhPitZ9pY3hzUbujdstp5p2w0nbWwrFvKKsqKqZfbZeiOM49596y4+vUbI2l+cmyIw73JqVbOiE7WBXRTi/IglLUrR5gGuljmmY31pDJ5EkdHOO8k6C5N5PjO8THa6nw0RhoLHhJQF3KzfWWUVcdHOTq4pCPGFxJNjvLSgvFxwd5YGrbLSTK0lGt8bgrBmho3H1sb5eOP1uve6ttJpuPuRI7xyRyjsQxXRzNcHkoznsqTzdmavMr61gTcNIddrGjwadGGaMijrVVxQeO47PvPjfHzqwnGcgWSu4Rge5uf57c3saotXLYkL0JZ9qYaL09trGcgnqP/vTEtN5WTktOjGd48O87mZVHdDCOcTbKj0c/27hDnxrK6nr4C7XpUK85AtOvFg5PXX51/xZkFI7oAUxb6z5sX6jMWEqaAlSGTX95Uyye2NtLdGJih4KKs0GQ6z+UbCU5cj3P0SpzLgynGMjYTOamrwYrdY4qbHiEImOjKsaaIhy3dIT7ySC2t9X7qQx6txHpjLM3+8xNcjt9q3azzGjz3SC0bl0V1A0olQN3H5U0BPrapnoNXJ508BDpM2X9lkk/0xakNuafCk4jfxeMrIrx7Lc7RoUwlnq27CnrvtEgh+xbqAxYEUgoPQmu4Ny3UZywUlFu9Murm+Y21fPyxO0meylr0jaQ5cTXGPx4f5cJwWksdJ/L2XXurszYkkYzn4EbG5kLC4sxIhmM9CXYsD7NzdVQXupy8GuP4zfTUQvYYgm3tfravrqEm6F70IpiFhApj1rWH+ejqKDdiIww6R2g3khZvnZ9gZVtIx+uGo1+3viOkm3MuTuR1LXyFQe1o7TZ0CXh3IaSlFsREdOw9JBCiC/gcsKWcEnG6B9xv8ju7m/iVXS26jrvYgKFi8IGxDD86Psxf7bvBPxwf49RIVgsfZu1C15Vw3FO1MfhUTO4SOgSYEmV0lGAm85JrsTzv9ia0auqpa3Heuhjn4kShQMRtCB5v9PLPdjezdUVNyRTDzCeUxVaWO5ks1BSkLFkoLkrltSej7r3POXJUfxouQc9giuvxBe3/WAro7l0BZ+y8fTj4xO/akwf+67x+wAJZdL2s251XWQWVimBbW/x89JE6nTgypnWO9Y6keO3dQb57cpxTIxmmH+2aztl6s8+gI+zWGXW/z9QuuYrVY5M5RhJ5BtK2llDK2QW9tkQe3hvKcGw4o5/2dJd9R3eQzcsiH6joWu5QHkpno5/nNtZy8kaSsaGCC381luPwhQl9uhD2uwpqtC6D9W1B1jb5ONyfrETNuaDii3CZUVMyPN9WfUGILm3TEIbdCbKsKuIKHWAuPvZILS11/ikZJIWxyRzff2eIrx8f02fARZKrjaHRZ7K+wav10Na0BnikPUjQaxZaLwuDT0ik8/SNZbkwkNTDDs4NpTk3ntUCD9xWEquu45FGH09sqNMVZZUMv8dkZWuIncvCXBjNEc/b+hjt5GCaUz1xXURT6LyDcMDN+o4gyy7GOOtk6ysIiicdAtoQcnS++9MXhuhSOVl2h5OIKxtzFHYL9iwPsWV5RB+DFaFi8vcuj/OtE6NcnMhOWV1FyMcbPOxaGeHJ9bWsaglqK+5zm3eUpKp/091is21VVHeiHb00zreODvPeYFp3ok1ftHUewZauIOvbQ2V3Xn6/UPepMeplx8oIb16IcW68ICt1JZ7X8ljPbMjhiRSKaFQ4tL49yIqoW8tW5Ssv/95R8ILFqfl+43knesfewwbk60B2lFNbqjLe3VEPT62roa3eP7U7ZfM2F/om+cHxUS47QobqZx5TsLXJx28/0cyWFVFd2aVI+UG7mlqoXpehXwGvqc+H60Ie3jw1qo/TVNyp4lPlIayr9+qz47AjvVTp8LgNupoC7FwWou/UOOPZwqnF+cE0524k2R506/umLHtDxEtHo4/wYIaxdEUl5URhggudCOme77r3eXerI0/+jglyM4jPOkUAJb9W1QUGXYLPbq7lo482aHdZOO701ZtJ/v7ADX54Pk4sV/Cm6rwmn1wR4neeaWPPhnpN2unn4feCCgl8HlMnmzZ3h1lR68Fl2VqmqSng4vPbGnliXS0h38OhjK1r+L0uDGlzqi/JULKgMJPI2nT6DV3u65/qAxCkcjaX+hO6fLbCoB54D0KciO37s4n5fuN5hdTJN9EuCom4soAu4gi4tFvY4JAcpxz1dE+cNy7GGckWSK4s7o5WH5/d2aQ7s+Yi7qBcUeW2PvVIPa21XrpPjjAQy7FjVZSIv2yLCR8IXpegrcHPmkafTnSqTTaWsekZSTPs9AMInX03WNcWoCXkQgxnKs1514MdpBRNwLX5fON5DwAF+ERhYmpjOVhzBa+BblRpqfPr7C5OynMsnuXI1TgDqUJrpdoQVoZdPLuhlg3dEZ1wmyvUDQr5TNZ3hfmnu1r4/O4WWut8FZtp/yAIo1Axt77Zr3MfCnkJl8Zz9I6kpzKVLkPoJqKGiOeOCTUVAF1NKpAt7f/m0Lx+uQXwDUVxUIN//t97YeAzBeubC6Wp02PzgbEUp/tvtUgq935Lm19b3KjfNa8FLCoG7WoM0FZnP3Qkx9nwon63ngLrdwmyWYly4K9M5Lg5ltYqtMXgyOUqaMy5xAIrKi4+im3dbQJhzKcQxUKkdFsKNe7lM3op4DboqvNqS1GEipfP9KcYTN7K7XaF3WxfVaPHBBsLYE2K7ZlGJZXA3QdMZa0jXhoCztKRaDmp2GSO/LTDJpdp0Bz16HlwFQbhJLC7sGzffL7xvBJ9ze8fNhxr/ki5EF3d2fqgi2jYO6NhZDKZ473rk4ykCytMkW91g5cdq6MPTZJs0eEctbWHCve3KNbRH8sxmbrVvame0/IGn5bGrkCoL79BCiLz+abzSvSMa6o4v6GcKuIiPhPPbfF2PmcxPJGZqsByOS2WEV2ptUQXWuHQfc0BF7W+WzdY6yFP5nVitAiXqTZnE09F8lzfhm7k/Iq1zOuStbAD+iILwvRlAy3k6DJmpA4tS5LJFJJwCm4hClrklWlFSgYhn0nUZ84IX8Yzls6ZFKF+5nWbU4nTCoP6Us0C0dj+wpF5+4Lze6eEji/KbmKq2xB3NI3kbambWIpVcKYjdige0vh5seAyBF6PSXE/Vbc/lbPJWzMrQgtCHhX7LAIgO4Ww5+2Mdd4I2fqv96m7HnYselkRXa2h29tLTYf8YtqCe0jH+y4uRCGrPv3oLGsVlHSnwzQNavwufRRXgXRXHvGq+fSM542QpqkiJz0WubVczs9xSl8tKbFtOaNfyOUS+HzmrTNdW2oVGbvyuqZKDsoln16HlLFsPbhxOmrDHn5jZxPPrwnTFa44wnuBTSCDHb//9rx8rflLHxu4kfpYrawGKda6TTa2+KgLz9RG1xYj5MZjZHRLadZGJ+eyOQuJu5IWVclDTh/07iDoM/nY5gY9AmrN6VF+enacE6NZUpUhC62MZhvQKE1jeD6UYeeP6FJ4QK4sF6IrC9AaMHludYRPbm2iq94/42zc4zHpqvcRvp7QPeM2Ug8U6BvLUKOP4qpUXyjolt1pfFXGPK3jdKn7+4sTrhTZ13eEdZVcd6Of750Y5Y0rk1rppwLoXodgjRBcLhmit3zpmJBk/QJZFoUyapF0BE0+80iU57Y2sbo1OKMaTS2yTM5GyluzutXf9cXznOqdZEVzAI/r4apFX0zYUs5oxp5I5zl2aUIfa3Y2BqkJuqaSp2rDbav1UbvZXVCryVi83ZfUPe1lTvYaYC3wBpCY65vNCylNI+dCylaEjs9LWmjCFIJ2v6n14D69rYllzYEZJM/lJb2jKV4/NsS+i3HdMlnEzWSeSzcSpDIW0WCV6AuG2xg6mrH5r0eGOXBtkj0rIjy6PMKq1oKmvtbSF+D3mnpM9K+nLaLvDfHza8lyn7OuiL5OIALqFsz1zeaF6ELYfpDbnPLXkoUyAhvrPHxhWwPPbqrXGuJFy2BJ9JikoxfH+P6JUd68kmA8d2vmlyEEUY+BS0Iia+nk3UKUwT7sKLrk6l5nLKmTcJaU9Ezm6U1McrAnyer3R/nImiif3tpIR4N/Sgcg4DW1ZnxHg4/mI4N85+S4bkiyylOKRhF8lUR2du49dKPnlZ1zqnufF+sb2fPFCIjnEews5fFLIbehRxN/YmsTbfW+qSMctZhG9PzxYf7mwKCeP17sPS8OU1wXdfOZzbV8fGujbj7xfIjIRBVzQzZvE0ASlJJMXpK2CxuxomvGltxI5rk6mCafzlMTNPWo5mLxjPLOlAtfG3STTebon8hqIc4yRRI4BpyN7f+zOUlLzZno7XsPCSFoRshfAzaWaoyuyLq9LcBv7GllZUtwSr5ZLYG+4TQ/OT7EP7w7ooUalSURjpvfEXLxTHeQz2xtKCTtGgJaNKJK8oWB8pwaIx49125lS4D2iJsal2A8ZZHOF+Ju9Zq0JP0TOUYnskS9phYLKW6+ykuLBlxaECQ+meXCaLYcteCFoxt3HsShuY5qmjPRI0/+nqLMeuCzFPrQS44DKoZbEXTxua0NPL2xbkqHTauYpC1ePzbIXx8a4tRYTss2K3hNwaZaN7+0sYZ/urOZnWtq9WK6HyWZKh4MyjoH/S6dZFvXEWJls58wEitj6dnqjrOlJ7z0jGWJxbM0KmKH3bo0Vr+HaWipLo+QnLg2qeP8MoQymlcl4o3wk/9TNr7/v8zpjeYEZ/7/cn0cUIIkV6hxm+xaFmLHmpopnXB04s3WQxO+eWyUc7G8LorB6U9/qjPALz1az7bVNXqYf7mPQio3CMcND/tdhSO0sId1nTHeOD3G/quT9CctXd+g3PL9PSny1k0tVPHUhvqp0livx9AqQE+vmGDk9Djj2bI7dvPo3nRBq8BOzOWYbU4WvflL+4QhDJ8oTEx9xpn1XFLwGIJnugP81tNtrG0PTWXYU1mbY1cm+Mt9A/y8J6kXjbL8EbfBx1aE+Z+f62TnuoLccgUqmZQNiq64IvyypgAbOoJ6Lr2Kz3tiBdltFWqp/x4YTbOiwavP1XX5sqNFp1z40bE0/fG8jvHLCOorpBDKfbcvxvZ95YGJPieLbghDSGRIIJTLHprLey0EtKymz2DniiirWgsJNJxz2hujKX52YpjDPQlNcoWgWdCD+/z2RtZ1hCu5aaIsoTbpjnq/PtoM+kxuxnv14AsVfysCHxtI8fqJEWpDHl0xV9SDX9bs5xceqeXCSIbTo9lys+qNQrJSItya9A+IOfmjpmG4DCG6nWO1kjs/95gGaxu8bF0e1kP2i7RNZWw9g/yNS5NToo9ao701wK/taubRFdEqyUsUyusK+1xsWVnDF7Y1srHOq702hYQlefNinHcvjDGRvGX8wj43m5ZF2NoRJFh+IViNhOUSQq0vHnzgRTnXb63IvdIRgiw5NPkMtiwP6/Py6fPTrgwmOXAxxvnxgpa68uY7Ayaf2FCjY/JooFoMU8rQIVbAxVMb6/jM5hq6QwUbU5iznuX10+Oc75vUzxpnLntrrY8nV0dp8xt3DNcocRTidCma5nKgOyeiC6mF5leVItHVYuiq8bBzVXRGFVs8nef9KxO8dyOpJ4Io1HhMPrY2okleE/RU1NTSSoV6RM01Pp7e1MBHVkep8Rj6uSkX/nB/iiMXJ/REnKKb7veYrGgNsrkjSKi8rLpR6AiVXWIOye4H/sbtLx0QtqElo9Y7GfeSgtcQbOoI6pHH08cane2d5Eenx+mJFVw7Qwh2dwZ0ldXKlkBVJqqM4DaFron45e1NfGJlWBPYlujS1x+cHufYpXF9fIqz8Xc0+PnExlragmU1AcfQGg+CddJwL4XrLtT/tTv95yUXn/sMwYbWAIFpQo45S9IzmOT9wTRZx5oHXILt3SFWtga14EEV5QXTEHoQ4xNronomG059RG88x7tX4wxOZKZ+N+CMYu6qLTuvLQp0CmE9cGfoA69sIRFILTTRUoqKMlGvSXeDb9ooH7SS6PmBFGMZe6qGvT3kYk1H6KGZc1aJCHpduqHl0dbAVC4mkZccuZ7g5mh6yn0XQlAT9rCu5daQiDJBoT/dtmse9A0enKCFKtFOZ2JqSUFdWF3QpcfsTnfF46kcZ4bSU8dpak10R9y67fRh1VKvBKhn3FLjZW17UM+oV1DP+Pp4lqtDKd1yTFFlNuRmTZOPB3eClwztIJeA6IVJLJ2OTlxJ3TadqAm5ZlTBKWqnMxYD8VuzPQIu5cr5dJa9yvPyhsdt8EhniKaAk4F36uHP3UyTyd1q/PK5C3XxoXkYp7WIKE5arV/2wuEHWqlzIXqjk3EvuTumSLu81kMocOvSsnlbq8NMpG71KDd6DNa0BnBX+AzyhwEqVlehWmeNd8p9T+vRy0ky2VtE1+fwIQ/NwZLsvfowNAArbCEfKE6fywqvdXStSg7qMdf6zBmTTvUstVhWl0sWUeMWdNR6qUq1VwbUht1W65ka7KAitPFEXguFFHMyxb51tT7KDHoAo40MdjxA4cwDEb37998xEHqHaS41tx3ngvweA7dx6+vZNkxm7KmpdcWZ6A3TZImqKG+4TJPWqFcfrRaRzkvGkrcGceCcqYc9ZefFFYrThAgJ4/6LeB/o29qunNcZvVRy9e04Z+NuUzCN51oRJpW1bz1wUTiHnct88ypKC6YBNX5zRqIta0tiqfwMTX6v2yBQftm4QpeokBFhWgtv0dv3HhC20CoyK0syPi8OX9B949MEHymolRQfuHJJTJeh53JXURkwDEHIazC9TUE3vOQLQp9FuExjSnikjCC0/LOk07KM+47T75vodi6PkDrNv7kU1WRkUUX0Np0BRXqXwVSds/49S94uF15FGaMo+zVjUd/1+ZbtQ68RsENI476P2e7fbxXClIWS185SLJTB0YCzLHtGXCYE2k0v7uNqh8/mbdK5slYKrWIalLeWytszZKOUO+9xzWwHyeUl2TLUlnIEIzeAvO+Q+b6JaphmQAhWO3K0JQl9hpq1dclrEcpdqwm4po5e9O/kJUPx/B3Wv4ryhG1LxpMWuWl/59buvDkjRFPrIlOegpG+Qsgs6jpeevu+uPsAFp0QiA2lrPaqHuFI0tLJtyJUTNYSds+YqT2RK5ytW1WmVwRyls1ALDdDRcZrQm1g5hhm5cVNZsvymatQuR5ol9K4r7D5vokudCWcXO+4ESUJ5bEPJfKkphVKuF0GjWE3gWnHKmM5ybWRdNWiVwhUuNY/kaGoA6mMeMTn0qIj03OuyXRBZLJMoRPh4j5Hn90X0Tv/4IAL3bEmSpvowNXxLInULZUR9aCjYQ8r6n1TDz2WsznXn2QwlqnG6WUOZcQHxjJcG85M9TJ4DcHKJr+eo1eEMgLxRI7BRNkSXcXnj4IMdr301qyPDu7PokvczvzzSCkWyhShHvNQPMdkIjtj3K7a2Vc3eKc6l9SP1IZweSCJVZ7JmSoc5PI2524kGUzmb4lNGILVTT5d315ENm8zMZklVr4W3eskwmslYtb8vS+iSym8Tn17yVrzIlQMdmU4TSp3yy8P+12sbQnQ6L8Vs91IWpzpiTOezFWteplC6lLXnBYVGXNm5bkMQUvIxYom/wwd//FknkvD6XLNulNszkSwysacteryrInuDGRXb7zC6VwraSQtyen+5Az33WUKlrUEeKzZN5WUS1k2h65Ocq53cqqdsYryQjpnc/J6jON9SbJW4RkGDMFj7QFa6m6FanpDmMxybjA9JSNWpoiCWAdi1nH67C26W5ggG5zSV8+DXuFiISfhws0Ug+OZqWM29byXNQbYvixEY+CWoOCpwTQHz41xYzRdLaApMxRi8zSHz49zbqSQa9FtykGT7cvDevhGEWojHxhNa0+vzLf0KJL1QspZe9azJrqQeu7d446iTMnG50XYUnJ2JMPr74/oAYpF1IY9PLmxgY+uCGsZKfVFhtI2f3dijO8eHaR3JIVV5qvgYYHavwfG03z/3UG+cybGSMbWhVHquX50VYRtq24p+qoNQG3kPz09Rm8sX+4beghYJ6VobXvhwKw4PGuiS4Sv4C7oRFxZYChl8c6VONeGkvqMFR27QVeDj52ro2yo9ehBipaU3ExavHZ6jLdOjzIUyyz1pVcxC8QSOY6eH+ONs+P0JfJ6c3cJwdpaD9tWRma47dm8Tc9QknevTxLLl/1OruN0AV2GmJ1kyqyI3vniEWX6ggjWlhPR87bkwliWI5dixKZlY31uky0rIvzC2qielqpulXr0F8dzfPvdYU326b9fRekhnbU4cmGMb70zzMmRW4nUtoDJJ9ZH2dQdmepMlM7s+8NXYlyP52ecxJQphHbfhW4sm0eLbuijiCYnPn9gJcrFhnqcN9MWhy/HdEa2WECjiN1c4+NjjzXwzLIgXmdTTFqSIzfTfOPIEO9eniCRLnsXryKhYu1LAwm+fmSIt/pSJB0L7TEEu7qC7F5fR2P01jJVz/3yQIIjVyYZz5XdoMUPQtRpW51VB+msiC6lfrPljqpMycfn06HiuFPDGX52ckQnYooP2W0KupsCfPyxBjY1enE7ZM9JeHcozd8evMlPTwxzYyw9o2a+iqWD2nTHEjmOX53gawdu8nZvSisGSacgamWNh+c21bO6NYTHdaunoX8kzY/fH+XiWJbyN+ZT8OlSWMSsGlxmtRtEnvyiC6Ymppb80drtSFmSG+NZ3FKyri00JQHtNg2aarzU+U1Sk1ldH5+xpZ6/fW08x7Hrk9wcSmFZFh63Scjn0s0RZbXTVQAUOSeSOc72TOqE6V/sv8mb15JMOtbZZwo21Xv557uaeO6xRj2AsYh4Ms8/HBjgmyfGuFm+RTJ3g1qGSQE/i+3/s4F7/fKsiB7e80WfEPwWsKUUxSbuBbUY4jlJOpXXmt5NUe/U+GRF9vqIh7qASXIyR58zilcZ8VjW5uJIhks3UmRTOa0qG/CauhNOCFFVjl1gKAuuG1UmMuw7NcK3jg7xvbMTXJrIaeUY9KkvbKz38uvbGnh2U4OWcy4+lrwlOd0T5y/fvsn5WK4Sw7A8yDfCT/3Opfi+//qhvzirDhghZJ1zrFa20wfVMz47luO14yNEAy5WtoXxOu5dbdDNjjW1eFwmUf8wP782SV+ioDOmvIHTY1luvDuqCy22dgbpbg5ot7856tHegaFIbxQkrKrknz2m3ypFQi0YIgt6AumsRc9Imqs3kzq/8vqFONdiWVJWIXGq/m3EY+iw6zNbGnj2kXoaop6p91Thlvq36nmfGa0ol306akG0WS7bLJD+gzHbVrfGUpyvdr9I5W1eOx8j6BY8v8tgRUtQl0oqctYE3WxfU0NjxE3TsWH+/vgoAylLW/acLRlMW/zgUpw3ryVYXethU5OX5Q0+WhsD1EU81IbculPK5y67aZ1LBtMoaPupe5zMWnrU8ehkjv7hFMOjKc7eTHP8Zppr8RypvJyRRAu6BM90BXn+8QYeX1VDXejWmCW1YfSPpvnJiSF+fH6CRPkfp30QVJzeZuTNYNtL+2P9L+/5wO1stkSvdxJxZQ11FwaSFt8+PYHpMvnl7dDZGJyy7EGvyer2MEG/C5/X5K0LE5wbyepCDLV41IJUceGJoYwuxgm5J2lVG0PARX3A1BZGvVd16svsoKInFULZtiSZl8TSNsOpvM6PDCVyeqxS1i4Qd+po1BS0Blzs6grwuZ3NrOsIF8ZpObc8b0vdxfbTE8N89/0xeuIVfUyqJ60a0oiCjH+YRtY9id6+94BwiF6yijL3g7yUXJ/M81fvjnBpMMWvbG9k17o6HXurL+pxFbLxv/1sBx/bXM87l2Icuxrn+I0UVyeypG2wkCQtSFqWtvTTUaX4g+Nuq1SLfQpB1GOwrMbN9s4Q21dF2NQd1rkW8zblmBNXY7x2bIgfno1xdbIi4/LpUF++TWpuit4P+8V7Et25jb5yqG+fLbQCTdri9SuTWoVGkXxDV4SIYxnUdw75TFa1Bmmv97N1ZYQz1+IcuDDBezdS2kqkrMKgxtudwspeV4sH4RyZKQu+Iurho6tCPNIV5pHuiK5fv0MHzpJcuZngHw4O8KPzMYazdqWTvIjAbLg5W9fdKMds+4dBOsduB/pTeN8a4LmNGV0b3VLr03GjIrxywZU7v7IlSEedn9UdIZ4ZTHJjOM2lkQxXxrL0jWd1fJmXTGXrZ0N3nbi7y9/bsiBNXS4QQty1GKOoxnsvFJtQ1N1QrrzHQGu8NYZcrKjzsqrBR1eTnw1dYRojHk3w6Va8ePR2sW+S194f5ccX4ww9PCTHiYDuWQ8zW6JbzquiUBCItHn96iRXxzL0jaR5Yl0tK1tDRKcNy3cZApfPZENHmHXtISbTFjcnMozFMkzEsoxOZhlKWIylClpk+Q/RphLO+/ndxpRQ5fTrSWTtqVbLcoD6Hv67zJVP5yXpvP2hZJfOEZjbuR8Rr0lz2EVbjZdQyE1d1KdPNlQMfvu9wrHiN8czvHdxnB8eH2FfX0pLRD08HNfIzYabsyV6GsiUg+DEgyBjSc6N5xh/b5QzAymeXBPVhG+p8ekpncU1pqy8ihcjARdhn4ndHNDKNMr9T2QtXWqZ1Yv7wz/PEIXz+9vXrnSkiK0yMkeKpK67DEPI21KT+F7fxLal9m7Ue3jdhr6vitimPqosTNu5/d0tW5JIW7x/LcahC+O8dSmuk6OJWXxehUHbBqG4eY/k0D2J3vvKbtmx9+AQMFYJmfe7QTrztPsSefovxXm7N8m2M+Ns6QqxdXmE7kY/oaCLkLcgMqhdTWdQgLI0aoHWlN90zrJC3iH32GSWC/0Jjl6J8bMLcS5PZHU1YxntjfONPikYk4gPvQOzXZ3DwKijLlOxkE7hxkja4idXEzrTvu/cOGtbA7rt8dGuMAG/SyfvvG6zel6+wFDPIp2ztac0NJ7mTF9CdyKe6ktwJZ5nLFsxDSoPinyB6GLiXjditkQfAPqdWKCiknIfhLyUDKQthgdtXRl3+HqC1Y1jLG/0ad25jlovPp+J3+vS7r2y6h5TYBofnhcRxRDAuHsVnbJcc5WfFs7/qM+422ZkOZ/xYWtDZ72dar8P/awP+fFsrayuUbAL5a6ZnE0yY+mZ5slUnhsTGa0U9N61SXrGs9xI5pnIylkl+h4CxICrQKrv5Z3zYtEngHNOU0t0fq6xPKCIN5qRjGUynB/LErocp0656n6TxhoPKxp9NEU81Add1PpNTfgPo7qKO30+F+0Nfl2NNx0qvr9yI0E8kZ3bRSuSmwbtjQF91jwdih+9Q0ltIe/FdM+9hhEKqI96aaq9s89paCLDyHgaOYva05wltYhnPGMxkshrqacb41kGRjMMJ/K6tXQ0J/WzqGIG+hHyct8f7ZqnZJwkj+Ag8Cn0AIfSnLm2kFBLTMWCmaxkNGsjkha+8RxHe5N4TaEngriNwhHRh8FjCDZ3hfj1Pa13ED2VtfnHo4O8fn5iTteqrHBzxM3vPdN2J9GRHDg9yl8fGb5n0q+Qj/jgbj2PS/C7e5r55A7/DMuu3va9KzH+ev+AVl29l/FVDriy6HlZSIwm84UeA/WqkvsDoazBWYG4NptfnhXRDdO0bds+BPK7TpVcy5wvs4whnSGNakEmP7SV4E4EXIK2RF5npG+HWtNjyTwnx3Jzuj5TCHJC6Pj2DkhIZCxOj+emBh08CITzXZIf0PqZylhasadvMlepDSVLCXXTLwDflFInye+JWVnm63+0XUophpHiW8Cpe3XKVFFFFQuKceAt4JBAzKq+ZfbikLbIOnH6d4CeSiygqaKKMoDi4XsSviZhoOeVD0/CFTFrovf/8XYpDHtCwA+B7wMjc7rcKqqo4n6hjOt14OtCclTYupBtVrivpFrPy7uljVTB/18CP3N2lyqqqGJx0A/8A/C6gMneL++adfbjvsu58tLOugzzPSH5E6AN2FnOyjPTUSxxDZhCCxu4DaETSVm7kAFO5Kvnt4sJQxROM4Kmgd9pNMrZkrR6FpbUx3IP0dNQcfmfAV/BZqDny7vuq9rivol+81WtYpHrfPHA+1KIvweanYq5si6kcQmo9xi0R9ysbvazptmvmyzUwhqezHFlOMPJvqQu2EjasppJXkAYojA7rS3oYnmDV48+7qz16OEME2mL3vEMF2+muDCcYSRr62O5CkcOOCyltuY3+u6T5DwI0YuQiBTwA4fovwl0laPugrrgBq/JukYvT6+K8NiyMA1RL6GAWxeLKAueydpa4/3SjQQHL8X0UMaiQGHlr7HFhfKi1tS42dYZ5InVUZY1+QkFPAS8BUHOXL5QOTcxmeXwpRhvnZ/g1FCGkcrtWlMkfx/4qkBe6X119wPVTT4w0Xtf3SXbXjx0VQj5V6Jwrv75cpriUkTYJfjEmjCf2tKgZYlqgu67dmMpdDUG2NAZZvWZUb7zzjDHR7Papa9ifqAs+aqwi3+xu4nda2tprPHp9tW7ldnaTQE6GgOsbw/yvXeH+PGFOMO5iutDV9/mGqA859cQctbJt9sxp5arPHnLxLhiIv67U0TzjDMAriwQNAVPdQX51d0trG4PTclJfRD8HoPORj8fczcS8Zu4Dw9r4YoyH8FbEnAZgpVhF59/vIGPbG6gIVKYi/dBUJuC+p2tK2u0Eq/HFPzwQlwLelYIpNNM9o/A1xEM9b78xAMvtDkRfbAQr2c79h46API/AEng+XKQnQq6DZ5s9/PbT7eysTvygVb8dpiGoKXOy0c3N+qhDn0/7OVybG6VbA871J1fFXXz2zsaeW5LI83R2U39Kkp+Pbo8SiTowjBv8N9PjJMuI+GOD0Ev8DdC8hUMcbnn5Z1z+lLzUrPe+8rOlBTiPQqWvaccpNPaAyYf31ir3fUPIrmUHyxYGPa7eHRZhO3tAZ2l9xmze3nF3TvKKg5CxdvM6p4oz2p3V5Bd62q1XNTdID+kG87jEixvCvD0+hpa/BXRhpEBfiwlf2XDtbmSnLla9OmwhSdjyuzbTuXcbwINpZqccys3scHH5mURrRZzO/KWZDCWZTieJeAx9eJTlsO8jaENES+ffKyBphqPbr6YjQev3qO93kc0WBEnkneHQItqPr+5Tg9i+LD7IpwuuZ0rI3TU+++4x9LRfO8bzZDJ2zSF3VpD33ObfJXbZbCmLcSyOi89SaucJ6aq2OMs8LfApfkqN583ot/4oy2y86V9w1K6vurE658u1eRc0EQfn9WFPXdokakFcuVmktePDXJxKKPbUTd2Btm2upbOhpntmMqSbF9Tw9rO0KyP2wqS0oaeFlOpUN9xbVuQllrvrO6LaUDE78bnmUle9U8nkjmOXhxn35kxrae3ttnP46trWNdxa4Ze8TOjATermnwc7UsyuRBfbOGhLPcQ8E2EPNT3yu55G9Q/r6ut5+Un7faXDpwRUvyFIzv1kVIcs6xcxe56H37vzKN/tSiVFf/ZqRH+/Ogo4xlLW/8j1xNYUuhjN7975mKM+F2Effd/Gyt9xoMKbUL3cV/udj/SWVuPY/raoUH29SS119R4PaF71YM+F6vbgjNcRmXVu+p8urhmsjxPQ0aBbwPfki5zXveqeTcrAiOB4Ge6j7PghpRcJl7FhY0hF97b3D9bWfPBFPsvx3VhjF4qluT9kQxvX4rx9CP1+KN3xpCVTtoHxVzvSyyV551rcU7cTBNzWm6vJ/LsvzrJxhWTrGwJzHD1XaZ6rm685fc8ihn2vxaI/w/Eld4/3DGvGcV5J3pvQdIm0773yAGBVeP0r+8oJbGKwkC/uyfalCvvuc2d1+62ufADFHXyr8wM0UJernCEOm5PXrpFIc9y1+uRZVnEFAd+KuDvVFze88qOeT8jXDDyGcJOAD+hcPEl1emWkVJLFmVvq500DEFHg4/Hu0N6vlfAFETdBhvqvGztDn+gK1ok6FxfWcvWCitzgSnQ19wecWv39g4ICAZctAddhfrxB/wc6YQ62bw9lYicy+tuUO7/xs4Q6xt9RFyGfh6dQRfbuoOsaQ3o5zUdeUsyksyTLS+m54GDSP5CwsmeV3YuSCHAgmWEel7eaXe8cGAUIb6D4EknOedbqM+7HyQsybXRDKlMXuuIF6HWTWPYw0c21pPLWVwYTOtk3KNdIZ1083vu3BfjaYt4Kj/nZhc9AHI8y0jqwZOsLqGIYPLsyjB71tboCSe3Q1F78/IIX8zZvHk+xqH+FLH8g1WUKYLfjOX0eGOP68HdHeV+K1IHbytY8nkM1neE+MLORlrC40xmLda3BNi+OqoTo7d/Ys6yC8+1fOJz6STf/lZi/FzaRnKhPmhBU7+9X94tO1480MutyrmtwJ2rb5GRsOD8QJKxeJa6sJfpobpadMtbAnxmV6tuZgl4DC3+qBbi7VDW7Oj5Md67Fp/VsIJ7IZa2uDT6YJ2/biHY3uLjFx+pZdfaGj0ocnpWuggVfqxuC9MU9bG8NUTnyRHeuBjnavz+JZ+U6Tl0LUHa7r/jWGy2KJ5CbF8RZuvq2hnJzmImffe6ej31Vt3vhoiHhvCdx2vq0mOJnG52SZUNz/XhwGsgXweZ7P/ytgW78kVJW3TsPRwC+STIf+Uk55Y8E98RdPHrW+v4pztb7jg2mw0sKbnYn+CPvnuVn19PzktsrbYK+z5kkotQlnxrs5d/+VwHj62I6lOA2eQTlEUeHM/w4+PD/D/7bnIjcf8jhg09+Gtuy0i9xy+uCPEvnmnTtQ0+9/1FlOqalVf1g3cG+fJP+rlZHmWwg/oYDf4zyBO9r+xe0ItelNbS4J7/JWfI/ABCG4H1ztHbkra1KvcumcjTUePRzSqzLYGlKOIYz/HW6RG+eXJcz0y3nUPQubweZK9QhG7ymnz2sXqee6xRFwDNNmmoh0j6TOpCbq4NJLU3cb+pXjkP31t52vGURdSUtNX7qQ267yvxmcpYnLoeLzQaDWXKIRmXBt4E/hPSONH76q4Fr6FeFLJN7v9/iez6nRymGHGe7UqgbjE++4OgrGYsa5NNWbrnORxw63PYe60vS1nBiSyHz4/xzXdHuDCeu29yzCeCLoPdHQGe39bEsqbAXQlSXPh3+25CCO3ip1N5zt1IEssvzXijjA0jsZwuZupo8OlrutfwCOko2p7pjfO9o0O8eXVy6hiuhKFI/h7wp4bBPjvnTscP/OcF/9BFs6qxA18h8uQXkyD6HYv+6FIr02RtGIjnkJm8LnENeE1nqOLdF5guxRxOaUv+d4cGeXcoo3vSlxLNfoPPb63X1WLB2wqAtEubzDM8kWFiMqdHG7lcxh3ei2mKQmJtJKVHQeeW4Cup2ziatbk5kqHWW6gc9LlNfW13exrKCxiOZTh+dYJvHR7kh+djDGZLnuQK57W7LuT3e17ePbEYJGex3efIk1+UhTNDOQFikyNasaQufFZC/0SO60NJUuk8Vl5qPfS8LEwQURZjbDLPjdE0716c4LvvDvODU+OcGcvpgQ5LCRXbrqzx8vxj9SxvCd6REBtP5PjJ+yN848gQb5wb59rNpM6ON9X4ZpT+CicJOTae5lh/iuQSZa11yWtW0juSYWQig5W39IimjDNhNpOTTKTzegrM1ZtJfnxsmK+/O8KhvpRWmikDl30c+G8IvqZi9Ni+ryzaJS9qwXVvQZo21/7C/iPCMP8E+H0nE79kx27K/RtKW7zZk+Rof4o6/zCdUQ9dNW5CbkNLSY2nLfrjOS6NZLVrmJOlMb1T7ZBttV4iYc8dM9/UJnXs4jj/10/7uT6Z1xbTY8Cp/iT/LuJhZWtwxu8rC9pW79N99kMfMJRhMaDu7anRDBfGsnz79DitYTedETfNIZf2tCazNoOJPD0TWfriOZ1rKZP+lQng2xLxFYHs6X1596Je9ZJ0VvR9eU+2Y++hN0HWOLPc1i9l5VyxBTKel8TjOa7Hc+zvvfN3Sg0qvg55DJ1bmA6pxztZ9I2k6Z3MT01kSVlwdjjjzHabSXRl1V1u445a/qWAehYZKRlMWfp1YnCmsEopPot7IOXE5X9jIPp67jEQcSGwdOSyxRhS/MiRrx1wknQlAXmXV6nCcsp5p0M4pbw+tzGjVFSPUXIbegDj3VAoDS69b1suz+IDkHc03/4UwTsu91xn5T4YlozofV/eYYHdD3zDGQgxqxlSVdyCImUsnddVfLdDkbyrKcC6eo+uFxdOaey2dj81dxF3UMsvm8mTzJTMflsJUDezD/iqlPzIsuX4lT+cvRb7fGJJE2Gx/V+R4ad+LyaELh5oA1Yt9TWVFQSEXQa7ukO01PlmJOO0Wx9wE3ILmr0GG+q97FkW5mObG7RAw+2Ju7FEjncvjLP/WmLJknEViD4tICH5GlL09T+ATPN8YcnVD7Lk027bOGRg/EcErcC2UriucoBy2ftiOd6+OEFbY+COCr9owMXzO1r4xS2N2mJ7XCqeF3dVcbnQn+DNS2VxDl0umAD+XArxp+Dp63t1y5Le2CXPvAy9/KTsf/WJnBTymCNr21NK8XqpYzxr89aFmNacv9sscZcpdNddJODSTSJ3q0mfzOQ5cTXG8cEU2RKM0csQKi5/T8DX3NLo7Xtly5LX5C450ach6cTqX3dmTFVX3CyQsyUXxnL87PSYPl++X687nbO50Jfg5xdiTGQrThd9KZBzNN++iuDi1Ve2l4TRKhmi972yWxqSy6IwwPENp7OnintAF5nkbH58Ica+06O6I2+2woiK5FdvJvjRsSGO3Uzd9yZRxR2Qjkf6twh+IAvHaiWBkkp8tW7/orRNMW4bmuSdTmtryWvElwISecnoRBaZy2stvGL56N3KeTN5W5fEHrs6wXePDPKjCzEGq9n2uUI6AivfRIj/BqK39+VdS+6yF1GS6lqdLx0MSHgcyb8CfqmanJsdFKlrPYJ1DV4e7wrxaGchG+926vctS5LO5LlwI8HRq3Fd7notltPTSavGfM5Q4ebfCin+C9J9sefLW0uG5JQqgSQyJaXxjkD+DbAF6C7VTamUYEvJSEZysD/NyZtp6t8fo7POS13Qhcs0dN3+yGSO62NZxrK2rj6rxuTzAhWXvyEQfy6EuHL91dIiOaVMnva9h4SBbJbwb4Bfd0QmS/Z6SxHKinuMgjCF8uBVDJ63ZcnU6lcIVMxzGngJIX5qSJG+/sqOkru7JU2cNf8/e/f3I1dZBnD8+5ydXWNjIlTjD3YXiVdeGDWonenSmhgv1MRw4X+g8a4XEqss3HildmaX9kJ7gQlINVYwJZCIhQKioNTdhQpYGqWFkrIz2wVrd9td7LLbOe9jzpl3yAADXdrdnXPO+3yS3vTqnZPz7PP+Os/zg6loqV/LCjuBr2etbLQJnvpKMXeq6vjM2NZzvR7Qu8nMrns3J/aUHcgxYB8wld6vMSY75oCHgPviZnOh14N5L5lco3dyqq8DfxIRBU2mSSPv+PTKmI2lPsjvQWQvcPLVPdszfWyR6al7p6HRyauAbwHf99+wZ3o2YgotST6PArsRmWpUy2vSCHE9ZT6jtw3EstCM9GEn6dn6db5bqzEbLQae8svJ51XjzO2wd5ObrPjybWUXSXQWkfuBv/se0sZspLRHmsIB59yf44srizO1kcztsHeTm0BPnKqljecawO+A5yzYzQa7kLYZUw6pkwuze76SiyAna1dgV2PhyTviD2/7Xt3fKb4GGMzj7zC5c9ZXQ9qrqsdnb9ua6c23t8vNGv0txC0KPK4afaKjYEU+f4vJg+XWclF/I8Kx0+Pr21VlPeRq6t5Wr46olOLFVt8qfgtM93pMprCSIP8n6D0KzzjN53IxN8dr3QzdOlVS1etEuQn4bhYaOJrCOdFqnSR3N8bKZ3o9mMuVy4ze5nAxaJLNDwDHfGUPY9ZKMmu8T4QH8l68NNcZvW1odPIDwLch/az1c1no1mpyLwnyP6jy40g4Va/1rrDjWsh1Rm9r1CrL6bEH/Bp4xWrOmSv0ZsMFFabzHuQUJdBJbzJEc4oc9HXiz1jNOXOZYv/Z6Z2KPrUSNXO3w95NYQJ9praliWrdr9cP+YZ2xrwfSeZ+rfUO6UNO4vn/7tpWiIRRmEBPzIxVYkFf8FP4v/nKH8aslg9y/igazc1Wt+V+yt5WuEsmzrGE8KRI+tf5GuALRfydZs0t0qpA/EtR6vWxciGm7G2F2HXvZvBHEx+SKNoBugMYKvJvNVcsmflNiXLTQP/Asyd/en1hMnlboabubxVdgPT8837frbUQay2z5prAS8DdDv13EYOcIgf6zHjZIbyEyD7gCf/lkTGdkj/+s611uRyMoigzDRfWWmED3buomm7O7ffFAizYTZv6k5kHgd+jzNar5cLO+oJYt147mjaE2OKryX7DNueMX87dC3J7FOkL07uy01VlPRQ9o7eILjnRp33BitleD8f0XLN1/Kp3CfGLRQ9yQgn06epW1da0/a9+qjZnm3PBcn7zbb8Kx1U1iLsWQUzd2wZ3Homk1NwO/BD4qpWNDo7669H7EK01qlvnej2gjRJERm+b2f0lh+izoL8CjlhDiODMA4+kPfhVzvd6MBspuE2pPlhUOORalyR2AmUrWBGEc2mAoz8X3PF67YbCr8s7BTV17zR88+Rm4EaVtCHE50N+FgG44O9SjCEcblQrQazLOwWX0ds0js5Ln3vYV5G9Ftjc6zGZdeGAfwB3AM9JLEFWIQpqjd6psXtLHPe51xC9F3ja1uuFpK0yzXpARB9DOF8fL+6lmPcSbKAnTu8acai84ivJHrVgL5xkyv4X4EFxbrFRrQQZ5IQ8dX+TY1kieUDRJd/AsQL093pY5orNAwcV9qJyanrshkJ+rLJaQWf0RGO8oupkARc9lt55hpNWTTb3fMMF7oqQozNjxb/5dinBBzppsG9R1yydTzKALz7wohWYzK3XgcNplSHhiIq+0esBZYEdKXUYvvVwn2r0SVS+A+wAPmbPKFcu+jvst4M82qhVrG6gZ2v0DqIuyeKzSt9+4Crgm8CnrU585inwP99h9xfA46ALvR5Ulli26mL4lglxGm0W9HrgRn8v/lPAJlvuZMqKn6o/r/CItP4drdcqdnryNhbo72JwdEJEtIRGw/6a7Nf8t+yb/a58nz2/nnB+s3Q5CXB/fPaEE33GlZrnXv3J9uA33rqxF/UShkYnIpRNRNEwypdBPwt8xmf4ZHo/4LO8Pcv1ox3B/R9/MvIvYELQE6BnYmHldHUk2HPyS7GXc5UGb5kUlAGUqxE+Alwt8FFUP47IJh/w9jzXXpLB31B0PlI5gzCvwpwgZ/uj0rmXf/ZFOx1ZBXsx34fBmydbz0sQh4o46Y/QD4rQ56Kor9fjKyZVUY0drPTHsixIs1lK/k+o18K8zmqMMV3ZDrIxAbBANyYAFujGBMAC3ZgAWKAbEwALdGMCYIFuTAAs0I0JgAW6MQGwQDcmABboxgTAAt2YAFigGxMAC3RjAvD/AAAA//95OhSMXmHZWgAAAABJRU5ErkJggg==;" parent="CIlAjLKx_zQ3_18mQWrC-11" vertex="1">
          <mxGeometry x="80" y="31" width="60" height="60" as="geometry" />
        </mxCell>
        <mxCell id="CIlAjLKx_zQ3_18mQWrC-14" value="" style="shape=image;imageAspect=0;aspect=fixed;verticalLabelPosition=bottom;verticalAlign=top;rounded=0;glass=0;gradientColor=none;image=data:image/png,iVBORw0KGgoAAAANSUhEUgAAA2EAAADLCAYAAADnY5sqAAAABmJLR0QA/wD/AP+gvaeTAAAgAElEQVR4nO3deXycZbn/8c/1TNKFAqXtTAIFBGRRkFVQFhERRK3Q0kzI8biwHBcUj+Lyc6nIkSooxX1BPeCCiHrUkKSUTRQU5ICALELBBRFZS5OZ7pYuyTzX748UD3RPMs99z0y+79erL3gV5v5ekCYz13NvICIiIiIiIiIiIiIiIiIiIiIiIiIiIiIiIiIiIiIiIiIiIiIiIiIiIiIiIiIiIiIiIiIiIiIi1WaxC6gXPpuEe/M7kkt2I/Fdcd8VsxeRsiOJj8WZADYeY9zg3zMG2B58JVgFWAqk4EvBKhjLSVmB+RO4PUGSPElSeRLGPWGdT62K+18rIiIiIiJZURO2Hu8gR9ryMlIOJkkPwO0gYG9gZ6A5UBkl4DHgAYz5uD/AAHfbvPKKQPkiIiIiIpKRUd+E+bE0MalwBObH43YUcATG9rHr2ogKxnzgNlJuoWnNTda5fHHsokREJDxvy++D2W0YuezD7Fzr7vt25jkReceOBSqV+zC2yT6MH1t36ezMc0Qy5sWWj2M+K9sQvmjdpQszzYikKXYBMfiJEycxdszJwAzgOGAiWK23pDmcg4GDMf6TytiKF/N3A9eSS7usc/GfYhcoIiJhWE/5YS8WrsE5I/s0n+0z8lc09GqMtHIusDOeedJqaPpy5ikiQaTjcZuUaYTbuEzHj2jUNGHesct40rXt4G/FeR3hlhZmJQd2OHA4ldxnva3lTyTpz/Hmy637mcdjFyciIhnLpedSSf4NMp+9KdDMh4HPZpwThc/ccXe88p4gYeYXW5feo0UEktgFZM3bWg7y9vx3qKx5BvcrcKZR/w3Yhsz3w+0zMPCoFwu/8vbCv/mxo6fJFhEZbaxz0dPgFwcJc/uYz2hpDZIVmg2cD4wNkLSUdOycADkiUgcasglzMG/Ln+TFlpsw/yNu7wUmxq4rkAQ4AefnTM4/4sX8//OOSaPlv11EZHRJBy4EFgVI2pacfzJATlB+cusBmL01SJjZ563n6RBfKxGpAw3XhHl76+soFu7G7Grw42LXE5ftBvYlKk1Penthjs/cYYfYFYmISPXY3KVLwcNsWjc7y9tbXxwkK5RcOocwn4WeZm3TtwLkiDQWq/ETG0agYZowL+Zf68XCPXj6a+DlseupMdvhfIJkzN8HZ8YYE7sgERGpklz5m8Cj2Qf5GLwyO/ucMPyUwquBNwWKO9euXvBsoCwRqQN134R5R+seXixcCfYb1HxtgU8enBkrzPe2/EmxqxERkZGzTtaCzQ6U9jafWTg4TFbGUsLszzLmkytdESRLROpG3TZhPpvE2/NnUkkfANpj11Nn9sHsam8vXO3FybvELkZEREbowL6fAPcGSErIcX6AnEx5W+vJwFGB4mZZJ5VAWSJSJ+qyCfO21v15oHAnbpcA28aup245J2G5B7y9cHrsUkREZPhsNilm5wQJc07yU/LHBsnKgHeQwyqfCxT3O+sqXRcoS6QBufaE1QpvazkNS+8EDotdS0NwJuH80IuFK/3EidleuCciIpmxrr4bwG8MEpYyx6nTDfMDhdPAXhYgyXGbFSBHROpQ3TRhPm3y9t5e6ML8crK/mHI0amfsmHt8Zv7Q2IWIiMgwefJRIM0+yA6nmJ+efU51+Rm7j8MC7Z9zOq2n7/dBskSk7tRFE+Ydhb0Yn9yOU4xdS4Pbg8T+14uFM2IXIiIiQ2c9fffj9vNAaRf5sTSFyaqS5f/8T/AXBUjqJ+HcADkiUqdqvgnzU1qPJ+WuQEsHBMYBl3lb4cK6XWoiIjKaeXIOsCZA0kuZXHh7gJyq8I5JE8FCXTh9iXWV/hYoS0TqUE03YV5saSNNr8HRXqXQjFm05X/kZ9IcuxQREdl6NnfhYzj/HSjuAu/YZXygrJEZaPoYMCVA0j8ZsAsC5Ig0Pm/cCYGabcK82PI+8CsZnJmRGMzezqLCVXXzBisiIoMGmi8AlgVI2pl09VkBckbE21pbMM4OEmb+RZvX1xskS0TqVk02Yd6Wfzf4xdRofaOKM43Kmqv8jN3VDIuI1Am7ekEZ+EKgtHNr/nRdq8wGtguQ1Ec/Xw2QIyJ1ruaaHG9reS9ml6D9SLXkBFas7PZpe42NXYiIiGyl3NivAk9mnuNMYuyYj2SeM0ze0boHJO8ME2bn2bzyiiBZIlLXaqoJ8/b8dMwvRg1Y7XGmMX7Z5TqsQ0SkPljnU6vAPxso7sPeUdgxUNbQVNILwccESHqYQt/3A+SISAOomSbM2/OH4fY/QC52LbJJb6bY8pnYRYiIyFbKlS8DfyhA0gQq/FeAnCHxtpaDgI4wYfZJu5T+IFkio4U17sP/mmjCvGPKzrhdA0yIXcsIDAALgEeB+4A7wG/EuRXjHuBvDC4LWR2xxirw//L2/FtiVyEiIltmnVSAcwLFvds7CnsFyto65l8kyGcdu4uevp7sc0SkUUS/ZNGPpYlK8jOgNXYtQ/BnsFtxfwD4O008wqTS41v7BMw7puzMgO1FYnuS+ksxexXwCqiT4+DdLvX2KfdZ16K/xC5FREQ2z7rL87xY+C3w2oyjmqlwPlATD+q8Lf8a4IQwaeksAw+TJSKNIHoTxuT854CjY5exBUuBKzH7Jandaj29fSMZzDoXPQ08Ddzy3O/59Knb0LTmCEiOw3gzUFtPE19oWzzp9OlTD7erFzwbuxgREdmCNJ1FktxB9vt63+wz81+yueV7Ms7ZLAfDbE6YNJtn3aXfhskSkUYRtQnzUwqvJuWjMWvYjAHMr8Xtx2w/4Rr74WOZLiNc18z8Zt2vc72t5UgSfxtubwGfnGX2MO3PmIELgJo9EUtERAbZ3EV3eXuhB6eYdRRmnwfekHHO5hUL7cARAZIqWBJquaeINJBoe8J8+tRtSPl+zBo2oR/8Coz9rKs807pLV2bdgG2M9fT93rpK72eCvQjjQwzuN6st7h/0Uwqvjl2GiIhshdQ/CQEOjjBe76e0Hp95ziZ4Bzkg1KmQl1nXwhAHn4iMVjqYo+qaBz4L7B0tf0Mp2KXQtLd1l0+zrtLfYhcEYFf0rrSu0tfJjd1rXTO2KHZNz5OQ8j3dHyYiUvusp/ww5mGOUE/TOdGuNEnz7wT2DZC0ikolVLMnIg0mShPmbVP2BT87RvYmPELix1t333us+5nHYxezMdb51KrBZmzNPoPNYs3Yh3HLPhS7CBER2Qpp7jwgxGXCh9HekvXSxw14xy7jcQt1VP7X7KrF2V+GLSINKc5MmCVfpTZOAhwAO59VE/e3K8s3xy5ma1jn8sXW3fcejBMZPPI+PuNTNXtJp4iI/Iv19Pbh9tUgYe6f92MD7z1P13wQ2CXzHGMJa9Z+MfMcEWlYwZswbyu8kdgbdgctwtM3WHffp+36R9bELmaorKt0HbncoTg3x64F2I7UtCRDRKQeNPkXgd4ASfswKf8fAXIA8Jk77IDbx8KE+Wft2mVLgmSJSEMKPxNm9pngmRvUwHwseaX1LPpN7FJGwjoXllhSOgHjoti14H6Gt7e+OHYZIiKyedZZ+ifGBWHCbLZPn7pNkKyk6ZOBThN+jFU7fCdAjoi4DuaoCi/mTwR/ZcjMjfg1CUdZV++jkeuoCruZAesqzQJ/L5BGLKWZNP1UxHwREdlaU0qXACEOoJpKU/8Hsg7xGfmpYO/POmdd2qfqcQWNiNSWwDNhdm7YvPW430Ru7MnWWfpn1DoyYN3lS4AzidmIGad6x6QXRcsXEZGtYpfSjxHmPdmY5R3bZztD1WSfAULMuN3PgeWfBcgRkQYXrAnztpYjCXNx4qb8L0020zqfWhWxhkxZd+n7GO8mXiPWTCX3n5GyRURkKLpKncDvAyTtQGXMJ7Ia3Nvy+wBnZDX+C8PsYzY76qoTEWkQIWfCMl+OsEnGPUxI3tiIM2Drs67SD4CIR8Yn7wq2/l9ERIbNwIFZgdLO9pMn75rJ0IldCEFOYfyt9fT9OkCOiIwCQZowL+Z3wvyUEFkbUcab2u2K3pWR8oOz7tI3cX4QJ90n07z2rXGyRURkKKy79DvgugBR42hqqvr9XV6c8gqctmqPu7EoUg9z8qKI/J9EB3OMjCVvJ869YBXM3l6rFzBnavXE94HdFSfczoiTKyIiQ1ZJZgGVzHPc3+FtU/at7qC5ORDiQ5r91OaW78k+R0RGi0DLEf3UMDnrx/Ip6+q7IUp2ZIMnNw20A+UI8Ud5e2HvCLkiIjJEdlXvfOCKAFE5LDm/WoMN3jvqx1VrvE2ztaScl32OiIwmma+h9vbCITgHZJ2zEXfTVPpShNyaYd2Ln/Jiy0fAfxQ6GrdTgU8HzhWpOu+YNBHGTCbFSNKEfp8IViGXLAcgGVgD4xc38qE/Mgrk0nOpJP9G9icMtntby5HW0zeiA0EcDONz1Spqs4xv2dy+vwfJEgnET5w4idzYMTTbBBJbYZ0LS7FrGm2y38jqdGSesaEUS95vnQGWV9Q46+67wov508BeFzbZT0FNmNQBn7bXWMYu3Z/EDsb8pbjtgbE7zq7AZCo0/evA0QqQrFv55M/9XgKswYuF1UAJ5zGMf4A/iiUPkvj9vKz0qE5Uk1pmnYue9mL+YrCPZx/mc4DXjGiM9vy/47y8OgVt1jLS5jDNnkiVeUfrHlTSQ8H3BdsP2BPYCawFfAw4uEOFy4B3RC531AlxmtDMABkv5HzTunvvDJ5bq3J2FhXmA+MCpu7rHfmXWGf5r1kH+cmtB2CVMVnnZGfdrMpAfz8DlX8yedza0XSQTGg+fWqeMQOvIfVXYxwDyw4AG/xZ6M81WMMaehywK8auwKsHz57zwcbtgcI/vc3vxLgV91uZuN3t9sPHVlflP6gGeMfk/ehPxseuY0RylkKyjNWrl/CKZctGZdOcDlxI0vxOYErGScd4e8sbhrtdwM+kmbJ9ttpFbZQxx7qfXhQkayO8Y5fx9K/eL9OQXNNq61r4UKYZW+AnT94VS1oyDbHck9bT25dpRmQ+Iz+VZk7C7TjgaCrpzoP/ZP1tk8N7k4vC2cln5g+NV4BVbG7pj1mMnGkTtu7ujipvwt2iMqsrmoF5HussPeLFwpcg0MWcz0mTGcAXM8/JpfPAds88J0ueQi43+Gtl+tysylM4T2E8ATwB/mdy3MPLyn8blR8QR8Db8vtgyUzw6dB/JE4u8HlL22J2PHA8ZrB85Upvz99IyrU0Nc2t+2UgleQXJPay2GWMiAOkMHYMPFDA21iO8TDYPXh6D869LC3fbzczELvUrNjcpUu9mL8QLPul/O5f8Nn8elg/y0qFMzH2yqCq9S1gbfM3AuRsWjrwYhK7O9uM9E9A3O/fXO7jwPszzfD0g0Dcr2cGvJjfCZJT161AOgwfxrub13RXdhqJnRYxfykwKYuBs50JSzgpwpf163b94uXBU2tdbs1XqYz9ILBdsEz3kwjRhDWmccBeL/ygYc/NqqzwIvfhfif4LyksutUupT9WobXKp0/N09z/FrC3g7+yxp78TcDtZIyTqVS+7cXCDeA/JTeuR3vLaoSxPXAY+GGYDT5InlJY4kW/BqOTReXrG7Ihy5W/SaXwPuDFGScdyPz8m6H8P0N5kZ/aOoGVaagHip+2qxc8GyhLZKs5GO2FaTjvBaaBh1jZJlWW7emIbsdnOv4GeSwn7b84aGadsM7li8G/Ezj1CD+1dULYzFFhO+AYzD6GJTdRLpS8vfALb2s5zTsK28YuLjZvLxzixZZLaO5/AvjGYANW05qAE8F+QmXNM15sucTbp7w0dlGyEc4ksFNxm8fkwhNeLJzvHdtPjl1WNVkna8FmBwlz+5x3MLSl5CsrHwF2zKagF/gLi0uXB8gR2WrewRhvL5xOMT8f51pgOmG2FkkGMmvC/FiacI7OavyNMi62uUuXBs2sJwPJV4CAT/V8DKv8VeHyRq2JOB2YX06FBV5sucSL+RAb1muKtxWO9rbCb3HuBT8TqMc9ShPBz8STh7xY+Fn171SSKtoJOJfK2Me9vTCnoZqxA/t+AtwbIGkPKi3v2tp/2adPzeP20SwL+hfzjzfkTKfULW/PT6dSeAjnh1Dl5d9WW0tFRovsZsLyLa9ct5wjlH48+XrAvLpj8/p6scDH1adp2NlQ2W6wAbF7vFi4y4v5GbELypq3tRzkxcIvMW7FODZ2PVWSAG/GkvlezP/IO6bsHLsg2aRtcT7BwNh/eDH/IZ8d6v7N7NhsUszOCZPm5/mM/NYtkx8zcE6QzxXOrdZVvjrzHJGt4DOnvNKL+TtwmwcZ7YUczj4yGbHs3izSwLNg2PWNfupNVXgu8PIKOypsnjzPK8Cu8mL+Dm/PT49dTLX59KnbeLFlNuZ/AN4Qu56M5MBOpZI87MWW2UNeuiXhGNuDfZUHCreuO5Sqrg2eXOg3Bohqock+uKV/yYs77Yb7+wLUAzmbFSRHZDO8Y9JEby98nSS5HezwTMM0ExZFhk/s/BXZjb0R5j8JmlenrLv3DpzMj41/npf7sVqvHJcdjts8LxZ+5e2tWW+2D8LbW19Hc/9fwc8DmmPXE8A24OdRKfzeO/IviV2MbNZRmN3rxZYwDUOWPPkoBDmJ9ePe1rr548l94DPA2AC1dNmVfbcHyBHZJG9vfR2VpodwzgZyseuRbGTYhFm4zfDOcpKxWjqwtcI2rNswqaW+j65uHCfg6YPeVviEd9TnD3U/liYvtszG0xuAXWLXE8HLqdh93l7Y4syBRDUB/FteLHyvnh9CWU/f/bj9PEDUdiS+ydknb2vdH+PtAeoYwNP/CpAjslHrvceFXIaumbAIMmnCBp9o+YuyGHujjC4d6zwEadMVhPyGMz8sWJZsyXiMOVQKv6u3WTGf0dLK5MKt62a/6n7fzQiMx/maFwvf0/LEmvdOJheu2eo9T7XIk3OANdnn8J+b/Jlk6ecJMhvg37WeRX/OPkdkQ95R2JHJhd9Feo/TnrAIsvki5zggk3E37brAeXXN5i58DPhLwMj9A2bJ1jkK9z94W8sJsQvZGn5y6wE0+R3AEbFrqSHvpFL4jXfsWIhdiGzWG2hKbvSOSRNjFzIcNnfhYzj/nX2SjyFNP73B77a3Hg6clH0+K8nZZwPkiGzAZxYOpuJ3AEfGKiFS7qiWTROWpvtlMu4m0uhvvjlgXqMIseH6OVqOWJN8MubXe1vhE7Er2RwvFo4hl94G7B67lhr0KgbSm72jEOLeJBk2fyUDTXN92l4h9jRV30DzBcCyzHOMU72t5aAX/F6aziHEU3q3L1tnaWHmOSLr8ZmFaSTcBrZb7FokrGyaMPOQTdj9dvWCcsC8xuDJTQHT1ITVrhzGHC+2/LfX4HIEb8u/BriWwQuqZWPM96PCLV6cPBr3yNUP41jGLb+sFr/PtmTde+wXAkQlGP+ajfL2/PRA106UWD3w5QA5Ii/gba0nk9ADbBO1EDPNhEWQ0UyYvTSTcTfKfhMuq4H4mluASqC0qfW6FGf08PdQLHy3lj4getuU4zD7JbBt7FrqwD6Qu8mnT83HLkQ2w/wttLXMjl3GsOTGfhV4Mvsgn+Ft+dcM3rcWaHmg8xm7fvHyIFki63hb/m1Y2kWYUz+3UIzXzHv/aJLVTNgemYy70az0lmBZDcTmLl2K8cdggf1N4f5MyHC9k/bC12IXAc+dhpZ0AeNi11JH9qG5/zo/tXVC7EJkM8zP9VPyx8YuY6gGD7/yME2R2QXc3/J2nIMDpD1KU+m7AXJE/sWL+RmY/ZBaOX5eM2FRVL0J8zNpBgu3LGYgDddINJqU+4NlWaK1zvXAOduLLVE3p3tx8i5Y+ktgh5h11KlX8Gz6o1qa0ZQNJKR2WV2emJgrX4bbnwIkHY35xQFywPikdbI2SJYI61Z5YL+A+r2+Qqqj+jNhS1p3IVxnv4yrFj8VKKvxmM8PlpWkuwfLkhHyc72YnxEl+UyaIfczwt6P0licIm0t/y92GbJZu9Nkc2IXMVTWSQVLPxkoLkST+ge6Sp0BcqQWJPEfTnlH6x5Y8nNqYQmiRFf9JswrIWc8HjIdqzl8SS5cE6ZTf+qJQXKZF3cK/zUrF74MvCp4bqMxv9DbCkfHLkM26yw/peWo2EUMlXWX5wG/jV1HVXg6S58hJBSfkd+OSuVqoPb27rq+D2KofhNWIeBRyRawiWhAZg8Ey3Jag2VJFfhkGPipHxtuuYS356cDHwiV1+CaMK7Q/rCaZlTS+ryXKk1nUf/Ny7XWs0gHe0k4TXY5WG2eFm3xZwlHo+o3YWbhLg411832I2CdC0tAoOP905YwOVJFRzG5cFaIIO+YNBG3b4fIGkV251k/P3YRshlmx3uxcEzsMobK5i66C6Mndh0jkJJybuwiZPTwtpb3Am2x69gkzYRFkcXpiOE+bKcW4Ljchvd0mBhTE1aPjM8EOfa80vQloEbvubK1YE8At4PfiHENRidwHfiNwB0Mfh8NRC1zY9zP9uKUV8QuQzbD/dOxSxiW1D8J9McuY5h+ZHNLOtRLgvC2KftiXsv30K3GeCR2EaNRBkuNrBBslUIO3W4/cs8ABwXIURNWj5xJNPefR4bLBNc1Ce/MavwhSoF7cH6F2T2Y3U9X7z+2Zt+Izybh/vxeJHYw+CtwOwE4kLgnFeYg+ZrD0dr7UqPMjvf2/GHWVb47dilDYT3lh709/33c3hu7liFaTW7gvNhFyOjgs0l4IPkusS9jXp+xBLiR1K5h9cBc3ZMXRxb7PcIduzuQLAiW1bieCZRT7xfuXoexMpORnQTIg+ch2Rt8TCY5w/deb5vybetZVPXlv4NHqSdfIfqR6v4Q8D0891Pr6e0bzgg2mxTKDwMPA78A8I4pO5Mmp+K8A9i7evUOyVG0txTp6uuKlF8dzs0klEY4xjhgCrAPtbQ5Pk3eAtRVEwZAmjsPS99GyPf9EfNvWOeSJ2JXIaPE/Py7qK3Dpu7G/CtMKV9pl9bJTLbzVxLCnWGwYX42n/3IogkzHxfseWtzU2+gpEYWqgkbHygnG7nk/dbZ+4+sY/yM3cexbOVhmL8W7O0MfliMrYkk92HgzKqPXCy0A/FO8TPm437uuhPfqj9856KngTk+my8wv3AKzmxg3yyyNsv9Qj+Wq+zmGlwyubWM86yr9LtqDeczW/bEOAHztxHzzyCA+b/5bD422MjXD+vp7fNiy9fA/yt2LVvFWEKy9qLYZcjo4B07FkgrtXAVRYr51bh9xbqr9zM0GPOrrKv8idhlZCGDI+oZV/UxN26pdT61KlBW47JgTVhu8A4o2Rz74WOrraf0v9ZdPt+6Sy8BOxr4Zey6cH+bd2w/uerjGp+q+phbZzXOLJLSIVk1YM9ns0mtq/QLFpcOxJkFrMk6cz17MyXfETizptncvr9bT99/W3fp1aR+GHBdxHJ24YE6vVIg518A6uOBqPvnrHP54thlyCiRVs7DmRS1BuMeSF5lXeWZddmANbgMDuawQE2YLwuT0+BSC7cOeGE+VIPeMKy77zbrLk3DkhNw+1PEUrahMu5d1RzQT2l5Pc7B1Rxz69gTmB1uPaWLrJNK0OSbGbCe0kXgRwGBL5o3XeC8CTa3fI91l04EKwKLIpVRuyenbYZ1lv6JcUHsOrbCU+TG6QRWCcJntuyJ27sjlrAI40McUHqldffeEbEO2YwMmjAPtOzMQj9JbkyJrw6WNbZJTdgwWVfvjTSNOQzz/45XRfo+7yBXveH8o1Uba+s9yEB6pHX1xVtfDlh3+V4G/HCMcHcdOof6Kfljg+XVIevu66FSOQR4MEJ8/Z5iOaV0CfC32GVsnp2j1TMSTOIXRNvf7VxO2r+XdZW+Xm9LnEebLI6oD/VBO1zz0Mg8YBO2dq2asBGwzqdWWVf5LIw3E345G2C7USlUZYOxd7TuAbyuGmMNwSPgr7d55Zo40MfmlReQ5I4POsOZJlWdzWxEdtXiJ1mz9hjgvsDRB1f1IUdAdin9WA3fu2XM58C+n8QuQ0aHde9vp0SIXoPxIespnWFzly6NkC9DVM9NmGbCqiFJwjVhSVLfh3PUCOsq/YLE3wisCB/u06syTsVPJ+yJiEtJ7Y3WXQ61B3KrWOfCEp6cSLAlcD7TOwr1flJp5uzaZUvI8SYg5F2UE2DySwLmVVdXqRP4fewyNirl45oRkGAq6UfJ5vTxzbAnSNNjrKv09bC5MhL124S5ZsKqIg04E5YkmgmrEruyfDNwEqEfRrjNGPEQYOBvr0Y5Q0g93eb2/T1s5taxuQsfw+xtEORD4gQGrBggp+5ZZ2kh2Fsg4L7BgeSQYFlVtu4eulmx69iIW6ynFP9wIxkVfOYOOwBnBI79X9K1B9ncRXcFzpURyqIJG5vBmBvha8PkNLg0DdeEVSpqwqpo8KSj4Bt/9/H2KS8d0QjFKYcBe1annK3gXB7iBMSRsK6+G8AvCRKWuE5J3ErW3XcbRrh9mAmtwbIysO70tZinTK7PsSh7T6UWuWe/+iI35i0EvZjZb2RC8kYtP6xPWRzMEebyN7PAU70NypKAG0cTNc5VZt19VwDfDJz6phG+/o3VqWNrolgCY+rjVMABPkGIe/uc1/q0vQI9LGsAa5tnQ3aXdb6AJzsEyclSJZlFyNnDzfu5dZXr7xJsqV/u7wiY9mdWpe12RW+Yn09SdRncE2aBZlZcsyrVEHKJYC7grNtokhv7CeDRYHlurxzZAAGbMPevWs/TsY4cHxKbV16B8fkAUROYsKI+76SKwK5eUAYuCxPmE4PkZMiu6p0PXBG7DqCfHPVxibQ0hHWrRA4LFLeUHDPs+sXhrhmSqqt+E2aB9mqZ6UluNaQBlwj6GB0PnAHrfGoVzn8GjBz2m8y69fIjbOK22gpWpfW1STkpXUqQ2bBKuEa4IaQ/ChLj1P9MGEAuPRd4NmoNxness/RI1BpklElmBosy/4T+fNe/LJYjhmnCPNgpjI3NQl2uDQxUNBOWkXUbz38dKO7F3rH95GG9MjfmcIKdGmU/rbenhNbJWvGNqwQAABnASURBVJwfZB7kdmTmGQ3Euhf9gTBLRRvifc06Fz0NfnHEElbQbyFmlUX+j1Od04O37G4OKH8vUJZkKIvliKFmOzQTVg0hm7D+Ac2EZcn5SqAkY2DcocN6pXvAC2nth+GyqihJsm/C4BA/NvQRynXOuTV2CXUlHbiQYFcvrMe4yOb19UbJllFp3YPJw8OE2Tm6cqEx1O9yRJgQKKexeRrw/+Nk3e2WpZ7SDQEv/j1omK8LtRSxlwN76/K4XuvqfRS4P+OYbZjSsl/GGQ3G/hK7gnoyeFqbXxgh+hm2Sb4WIVdGs3TMqyDIZesP0tN3Y4AcCaB+lyNCXk9yqyHZKVBQatc/oiYsQzZ4HHOY47TNdxvmK8Pcg+T8sq6fFDrXZJ/hL888o6GkT8WuoO7kyt8k5KFBAOazdVqcBOcEOuzIL153J580gAyasFCnI5Kwfb4lUFYjC9WEaT9YCLmBq4LkmO861Jf49KnbADtnUM2GzH8fJCcrCbcHSNk7QEbjsEDH1DcQ62Qt2Oxggc5fWVQOsZxXZD12VICQCp7rCZAjgWRxWXO4N6okWAPRyHYMlBP3pKxRwjqXPIExP0DSLkN+yZiBvYDsL8sc9IdAOdlIx9yZeYapCRsaq5W7r+rLgX0/Ae4NkpXYLLuZgSBZIs9nvCxAym3W09sXIEcCyeBgDkpVH3NTTE3YyPnUMDGmHxzhXJd5gjPkmTBS9sqgko0b4G/BsjKw7m6zrH+WqgmTzNlsUpw52Sf5Q9bVNzf7HJEX8hn5qTiTMg8yvynzDAmq+nuqEi/hoR52qwmrgjD/D83DNeejnXNfgJSCT9tr7ND2+aW7BZoIW0Slv8lPnJj9m2K2HgMKmY3u7J7Z2CLPZ17O/HvfTe8xEkfOXxrmvc3uDhAiAWVwsEXSF2zPoAV8st6AfEZ+OyDQTBg6LjgUsz/jmX8PGk3PbgcMoQmzUHs4pzB2zOJAWfVsB+9gzOC+HRERGZ7cLkE+9ya5+l5mLxuo/nLENOCHbbMDgmU1olyyP6H26BhajhjKs9v/FQLsi0hWjx/Sv28ZzurI8KzJ52OXICJS15Ig2zqWWudCzfY2mOo3YUnlyaqPuSnO/sGyGpGlBwYMC/fnYpRbt0Qw+5mgJBlaE4apCas1uURfExEZHTyjh85OaybjPp+hz1ANKIMmbPzjhLvDYFefucMOgbIaT8iZRPPHgmUJ4Kuyj7BthviCidkUIsOWS+t935yISGzbZZ7gasIaUdWbMOt8ahUEXJKYjAlxLGhjcgIu50weD5clYNlfCWA2xJkwH5dNITJsFdPXRERkJNzHZh9iS7PPkNCyuCcMBk/1CsMIcUFew/Fpe40FDgsW2K+ZsKBsKAdmDFMuHeIbj43JphAZtkRNmIjIiCQWoAkLsLpFgsumCXP+msm4G83y44JlNZLxS48ChricbJiMJTavT6cjhuRk/6ZQSYbY6LmasFqTpmrCRERGJpd5grE68wwJLpsmzOxPmYy7ccd4B/pwN1Rux4fL4qFgWbKOZ99g+xCfzLllcCWGjEiQJ7giIjIiTn/sEqT6MpoJS0M2YdswUHhlwLzGYIRrwgjalAsAQ92vNQzNQ2zCEt1HVXOyOi1MRESqxyzUgXcSUEZNWNODmYy7SXZC2Lz65idOnETI/WDumgkLyM/YfRwwJfOgtenQDv9wz/6wEBEREZE6kEkTZnMXPgYBL+c1f0uwrEYwZuybgYBLw0y3vIe0YuW+hFijno4b6nJEbSwWERERIbvTEcG4J7OxN7S3t+fDzezUO/NTA6b10zTmjwHzxH3fECkMbLNiSK9IUBMmIiIiQpZNmNtdmY29Mam9PWhenfKOwl7AkQEj56+7O06CSV4eIKTPrn9kqMfg68+BiIiICJk2YX5HZmNvjPHvfmzIJXZ1asBOhZCb8f3OcFkCgPtJAVKeHPIr3FdmUIeIiIhI3cmuCds2uRUs5GlorUzJdwTMqzt+xu7jMH932FT7Tdi80c1ntuyJ8ZIAUUNvwgzdFSciIiJChk2YXdG7EjzsgQxpcq7PzrCxrHcrVr4H2ClgotPffHPAPEnSmYGSnh76S+yp6pchIiIiUn+ybVjcbsp0/PWZ78f9rdODZtYJn7bXWJyPBg017rerF5SDZo5igw8g7L1hwuzxIb8mtaHPnomIiFRDonsRpbZk24SZXZ/p+BvNTD8VPLMejF96BrBL0Ewn/Nd/NJvfMgPYK0hWzu4b8musoiZMREREhKybsO7eO4HQS5Be4W35fw+cWdO8Y9JEsE8HD07TucEzRzP3D4dKYtXqe4f8qlyiJkxERESEjC/sNXA3vwYPtETqX8H2NT9x4g127bIlQXNrVdr8RfCpgVMXMHeRLmkOxNtaiuDHBIp7ZFjfWy8r9fFAYQ0wtvolbdS9GB4oq075otgViIiIjEbZH+luSQ/uYZswaGVc8+eBswLn1hxvKxyN+7siRM819AE4BJ+R3w7zr4cLtLuH8zKbTepF5gOBLla3s62r77YwWSIi9cpzsSsQGY2yP0nQ+m4CFmSesz63M72tcHTw3Bri06dug3EpQe8Fe05yRfjMUao5+TIh9/tZOoKL2O2e6hWyBe66skJEZEuMbWKXIDIaZd6EWScV3H+Sdc5GJBi/8Bn50MvwakdT/7eBfSMkP7xuP6BkzIst78MD3/3mXDf816bhmjDj33RlhYjIFu3kZ9IcuwiR0SbMB5Sk6fIgORvaiZz9bDT+cPG2/IcxTo8SblympYjZ8/bW14F/LWwof7We8sPDfr0RrgmDnXgwH2qfnIhIvWpi0Y77xC4ic64j6utSA3/dgjRh1rXwIZybQ2RtGM6rKRe+EiU7Em+bchxmX4gUv4Y0+UGk7FHDi/kT8XQehH7A4PNG9PJc+UFgTXVq2QoVzg2WJSJSr9L01bFLENkos8mxS8hKuKU6Zt8IlrWh93uxMCo+jPnM/KEkyZWEOHRl435qPb19kbJHBW9rOQ2sBxgfPDxnV4/k5dbJWuCOKlWzFYF2vBfzrw2WJyJSTcnAQJggbwuTE5FOy60+t9WZZxgNu60oXBOW65sHPBYsb0Pne3thVsT8zHlby5GY/QZnUrQijG9Gy25w3lHY1ouFyzC/nOAzYAA8hpVuH/kwPqJGbujsfI9yOI2IyEjl1gaJMY734k67BcmKpYGXtUVjvjTzDOelmWdEEqwJGzygwy4KlbdRzoXeVvhE1Boy4qe0HAX+S4ztI5bxS+sq3Rcxv2F5MX8iFe4FzohWhNm3rZPKiMfJ2VVVqGYoXkV7PuzhJSIiVbFqWaCgHAx8NFCWNAzLvgmDPbytdf8AOcGFPTms0Pd94s6GgTHHiy2XeAdjotZRRd6efwup/zpyAwaWzI6a32B8Nomf0nq8txV+C3YNsHfEcp4lWf39agxknaVHgL9UY6yt5vblRv0hLiINrHP5EsLto31vQ/+c1HLE6rMgTRiYnxIkJ7CgTZhdSj/4nJCZG+dnUin82ttaW2JXMhLeQc6LLV/C7acQ/Z6Pa61Lx9KPlHcUtvW2Kcd5W+ECHsg/SpreiHFs7LrAfmydyxdXbTgPvSSRbbF0rs9oaQ2cKyIybAaOB3t43YSllzbsidJajlh9Fe8NlPQBP3FivK02GQl/eEO+/ANKLWdjvl/w7Bc6BvM/eFv+NOsp3xK5liHz4k67MdD/fcyPj10LMIDlGnKZ579U0ou9vbAyk7Hdm8EKQAsVXowlucF/UDPvF/1Y5atVHdHtpxgfq+qYW7YnTelNPqPleJvXF+qNQ0RkZIz7gJcESjuSRYUvQemDgfKknjWX/kSlsAYYm22QT2Zc8zkQ/HNDpoI3YXYp/X6KnU3qN4bO3pC/CLPfejH/Y3zsh63n6UWxK9oSn03C/Py78IEvYbZd7HrW+Y51LXwodhEZe1N2CxlqptnaOOM71rWoqssHbW7pj95WuBUj8LHI9jKa0ju9vWWGdfU9EDZbRGQYzO7F/d+D5Tlne3uhz7pKnwuWKXXJOlnr7TyIc2jmYW4f8WL+Vusuj+yqnBoSdk/YOnZl701gtfI/0cBOxdbO92L+rT47zv+TreFtLUfyQP523C4BaqUBW0RuzezYRUhGjCWkYz6bydgJF2cy7hbZbrjf4cX8h2r5+11EBBhswkJzLvC2woX6GSlb5HZ3oKQE7MdezL88UF7m4n1zDaRnYSyJlr+hncB+wgOFv3l7/kw/Nto9WxvwYsurvL1wNea3gx0eu54XMP9AVfcKSW1J+a/MZoinlHqApzMZe8vGg32V+YV7vK3wRh1hLyI1a9Xqe4FA94U9jzGL+YVrvJjfKXi21A/zuwKmbQf2O29vaQ+YmZloTZjNKy/Aa3Jt54txu4TJhb94W8tHvWPKzjGKGLwTquVULxZuBv9fnJNi1LF5Pte6yv8TuwrJzG0sKV2S1eCDB/Xw7azG3yrOwRjXUyw87O0tH/OOHQtR6xERWY9du2wJzm+ihDvTwP7sxZaPe0dh2yg1SG1LclcT9iHBBNw7va3wfS9O3iVgbtXFnWbuLv0AuDZqDZu2J+ZfpJI84cWWm7y98I6sGzKfNnl7b89P92LLT6jQC/4j4DVZZo5ALzk7K3YRkhVbDE1vs5sz/sE6Ifk68WbDnm8v3L9ApfK0Fwu/97aWL3uxpc07puys5TgiEl3CzyOmTwS/iJQnvJj/tre3vs6nT419IrPUCOtcWIrwkMAw3gG5h7295VKfWZjm0/bK+HCQ6ou65M7Avb/5DJr77wV2jVnLZiTgx+EcRyXBi4W/A7fi/I7E55OsfXQ4y/H8jN3HsWL1nqTpS0g4GvwYnINxctT+VRYVkuRt1tm7MHYhkgmH9D+su+/xrIPsit6VXmz55LoHDrWgGTgC8yOAj1BJ4IHCgBcpAQuBBRjPxi1xPamfaz3lh2OXISIZWr22h7FjvwMe745TZxLYWXh6Fs1pvxcLj4E9Cb4SY/UIxz6kOkVKJD8DXh8hdzzu7ybh3YxfttqLhadxFpBQvc+nzkrrLv1H1cZ7nuj7nuzqBWVva3kz5rdAXdxNsSewJ8YZuEFlLN5eWILzd/Cn8GQVxgpgBeaDswhuO+A+joRtcFqAPVm+cmcGO/k66LnW5+cPHq4iDcntfOsphTs4p7vvxxRb3g/+ymCZQ9ME7LTu1yG19/2aVPf6ABGpOXbtsiVeLNwATI9dyzrNwN7gewP18TnGE+39zYr392DN3wLGR6xiHIOfz/es8p/HpUBjNmEA1tP3ey8WzgK+F7uWYXEmAYeBHYb583////6mLputjbqSA8vn0x27DMnIN62n77yQgQbuzocwbkMHZIiIbFySfJ00rZUmrP5Y2hifwmqQzV261NsKl2LofrkhqJm9DtZd+j5wYew6ZLP+QH/z6TabNHYhkonv0x3ngk7r6fs9Zl+LkS0iUg/syt6bMO6JXUfd0kxYtpqYAzW2XL/G1UwTBkB36VNArewNkedz+xP9zW+yqxfoG6wh2aV0l95tMedrt9vmHEAXKIuIbJJ9KnYFdUszYZmyztJC4NLYddSTmmrCDJxc6R24/zh2LfICf6OSnmBXLyjHLkSqroIzy7r73hO1AQPsh4+tJs2dDOjPmYjIRlhX3w3ADbHrqEuaCctejotwlscuo17UVBMGYJ1UWFL+DwZPWpHYnL8y4MfavPKC2KVItdli3KZZT+mi2JU8x+YufIzE3gb0x65FRKQ2Nb0HWBG7irqjmbDMWWdpIYnX4h3ANanmmjAAu5kBuktvBfty7FpGuT/QlHu1GrCGdDtmr7Cevl/HLmR9dmXfr8DPAO09FBFZn3U/8zjog67UqK7yd4Ffxi6jHtRkEwaDSxOtu++jwDk0yrmC9cS4hgnJa61zYSl2KVJVq3BmkSsdY129j8YuZlOsu/xT8PehRkxEZEPd5UvRB92h0XLEIAa3FqXvYvBod9mMmm3CnmPdpQtxnwEsi13LqGF8g6Q0067oXRm7FKmqX2PJ/tZTusg6qcQuZkusu3wJ2BnAQOxaRERqiYEz4O8Enoxdi8j6rHPR05i9Cz1I3ayab8IArKd8DZ4cDTwSu5YGtxLzt1pX6YP18CFdtpbfifkM6y69vpZnvzbGuvuuIOE4oDd2LSIitcTmlRdguWloxkFqkHX1dWFaNrs5ddGEAVhP74MM+MvBr4hdS2Pyh/DkCOsq/0/sSqRa7K7B5qt8hHWVr45dzXDZlaVboXIY8IfYtYiI1BLrWvgQibcBa2LXIrI+6yp/BefrseuoVXXThAHYvPIK6y6fhtmp6MlPtaS4fYVVOxxqPb0Pxi5GRmwF2KXgh1p33+H13Hw9n3Uvforc2NfoIYyIyAvZleWbgdPB1sauRWQDB5U+ovfujaurJuw51tX3Y3LsC1wZu5Y69wjux1lP3/+z6x/RU7R6NXgnx5UYZ5BjqnX3vce6y/fGLqvarPOpVdZdPg38JLQPQkTkX6y79HNI34geUEuNsdmkdJdPB/tM7FpqTV02YTB4F4F1lzrAisA/YtdTZ1ZinMuqiftbT/mW2MXIkK0Afof7F/H0eAqlvHWXOqyrdLl1lv4Zu7isWXf5WlZV9sf4Btr0KyICgHWXf4vljgZ7InYtIs+37sTz2RjvRPeA/ktT7AJGyrr7evyM3a9nxcoP4ZwDbBe7phqWAj9mwD85ePeXTp+vYWuAJ3GewvxJ3J4A/zOJ38MBix622aO7+bDrFy8HPuintPyc1C8AXhu7JhGR2Kxr4UM+I38kObsM4/Wx6xF5Pusq/cDbW5/A08uAXWLXE1vdN2EA9sPHVgNzvG3n72L9HwD/EDAxdl01xDGuBT5tXaX7YhdTl8xnUCG7S6tzuSV4UmHNs8uZPG7tZq8H6MqsirpjV/bdDhznxZZXAZ8FPy52TSIiMQ0+ZOUN3lboIOESnEmxaxJ5jnX13ujTJr+M8U1fBH83MGrvb2uIJuw51vP0ImC2d+z4LSrpB8DfCxRi1xWPrQX/GWZftq6+B2JXU9eS3IPW1Rto2auuxBsq6+67DTje26YchyXvA5sOPiZ2XSIisVhPqdOLO90FA98G3hS7nuiS0fthv9asW83yHm8vXIVzMbBH7JpiqNs9YZtjnQtL1t33aXJjd8P9TKDhDinYggU4n4N0d+suna4GTEYL61n0G+suncKaNTti/h5Af/ZFZNSy7mcet+7SiZAciXEN4LFriiYdxf/tNcq6SteRL70Et9MZhXcBN2QT9hzrfGqV9ZS/a92lQ0k5BPgmjbsRajXQg/t0Fpd2s57SudZdfiZ2USIx2LXLllhX+VLrLh2E8XKMTwK3AAOxaxMRCc26e++wrtJ0LDkS6GE03iummbCaZJfSbz19PyJf2g/83Rh/jF1TKA21HHFzbG7pj8DZ3sGHqeSPwawdZwawa+zahs1ZjvEr3LuocK3NK6+IXZJIrVm3D/I+YI5Pm7w945peR5IeScohWHII+OTYNYqIhGBdvXcCRe+YNJGB5pNJvAO314+K5duaCatpdin9UP4e8D2fuePuWOXNGKcD+8auLSujpgl7jnVSgfJvgd8C7/e2Kfti9gbMjsc5EpgSucTNWQ3cg3MzOW6gXPq93awn+yJba9069O51vwDw4k674enBJJU9Se1FGDsDU4EXAa1Ac5xqRUSyYZ1LlgE/An40+HAqOQR4OcbgX7E9gG2iFlltmgmrGzZ34WPARcBFg+/RlUMxPxQ4FHgZMJkG+PM56pqw9VnPoj8Dfwa+5mC0T3kJnhyBcQjOAWAHRXpSvhrjIVLuJ+EBPLmTXO+91snaCLWINCzrfuZx4PHN/Ts+bfL2JJUczeMnkvPaWsa9/fjsTu3caukbseZsn6RvNz7utRpr1v6K5ubDMs3I5ZZkOn4suXF3kPbvmWnGQGV1puM3sHUPp25Z9+tfvKOwLf25fM39zBuuyprFmYzbb++j2T6WydjPSZtG7Yldz3uP7n7+73sHYxho3YGEbTMtoGKZXQmkpwJbwadPzTOmf1fcdwXbbfCvyS6YvwjYERiLMQFnPDBuM0NVMJbjrAVWAkvBngJ/HLMnSdMnseRJGHic3OJnBmftZEu8WPgHsHumIbnkxdYZ6nREEREREWlko34mbGvY1QvKQJnBfSVb5B2FbXl2bTPbjNsB7J88u2qAa5cttdF8KpGIiIiIiABqwjJhnaV/Dv7dssZcWiIiIiIiIsPWGOt8RURERERE6oSaMBERERERkYDUhImIiIiIiASkJkxERERERCQgNWEiIiIiIiIBqQkTEREREREJSE2YiIiIiIhIQGrCREREREREAlITJiIiIiIiEpCaMBERERERkYDUhImIiIiIiASkJkxERERERCQgNWEiIiIiIiIBqQkTEREREREJSE2YiIiIiIhIQGrCREREREREAlITJiIiIiIiEpCaMBERERERkYDUhImIiIiIiASkJkxERERERCQgNWEiIiIiIiIBqQkTEREREREJSE2YiIiIiIhIQGrCREREREREAlITJiIiIiIiEpCaMBERERERkYDUhImIiIiIiASkJkxERERERCQgNWEiIiIiIiIBqQkTEREREREJSE2YiIiIiIhIQGrCREREREREAlITJiIiIiIiEpCaMBERERERkYDUhImIiIiIiATUFLsAkSp4AkgzTaj092c6voiIiIiIiIiIiIiIiIiIiIiIiIiIiIiIiIiIiIiIiIiIiIiIiIiIiIiIiIiIiIiIiIiIiIiIiIiIiIiIiIiIiIiIiIiIiIiIiIiIiIiIiIiIiIiIiIiIiIiIiIiIiIiIiIiI1Kn/D/4RfFvjE7YLAAAAAElFTkSuQmCC;imageBackground=#ffffff;" parent="CIlAjLKx_zQ3_18mQWrC-11" vertex="1">
          <mxGeometry x="230" y="31" width="251.47" height="59" as="geometry" />
        </mxCell>
      </root>
    </mxGraphModel>
  </diagram>
  <diagram id="WI1qoECa9Y9R4Opb1uH8" name="Page-4">
    <mxGraphModel dx="935" dy="548" grid="1" gridSize="10" guides="1" tooltips="1" connect="1" arrows="1" fold="1" page="1" pageScale="1" pageWidth="827" pageHeight="1169" math="0" shadow="0">
      <root>
        <mxCell id="jMXSenY-9r7tCc_rm8bD-0" />
        <mxCell id="jMXSenY-9r7tCc_rm8bD-1" parent="jMXSenY-9r7tCc_rm8bD-0" />
        <mxCell id="jMXSenY-9r7tCc_rm8bD-5" value="" style="rounded=1;whiteSpace=wrap;html=1;" parent="jMXSenY-9r7tCc_rm8bD-1" vertex="1">
          <mxGeometry x="389" y="90" width="310" height="120" as="geometry" />
        </mxCell>
        <mxCell id="jMXSenY-9r7tCc_rm8bD-8" value="" style="rounded=1;whiteSpace=wrap;html=1;" parent="jMXSenY-9r7tCc_rm8bD-1" vertex="1">
          <mxGeometry x="93" y="270" width="410" height="260" as="geometry" />
        </mxCell>
        <mxCell id="0XENEz4wSS-R9rneuf6d-10" value="&lt;font style=&quot;font-size: 18px;&quot;&gt;Cluster&lt;/font&gt;" style="text;strokeColor=none;align=center;fillColor=default;html=1;verticalAlign=middle;whiteSpace=wrap;rounded=0;" vertex="1" parent="jMXSenY-9r7tCc_rm8bD-1">
          <mxGeometry x="241.5" y="253" width="75" height="30" as="geometry" />
        </mxCell>
        <mxCell id="0XENEz4wSS-R9rneuf6d-15" value="" style="rounded=1;whiteSpace=wrap;html=1;" vertex="1" parent="jMXSenY-9r7tCc_rm8bD-1">
          <mxGeometry x="119" y="295" width="90" height="85" as="geometry" />
        </mxCell>
        <mxCell id="0XENEz4wSS-R9rneuf6d-16" value="eth0" style="rounded=1;whiteSpace=wrap;html=1;" vertex="1" parent="jMXSenY-9r7tCc_rm8bD-1">
          <mxGeometry x="126" y="324" width="39" height="12.5" as="geometry" />
        </mxCell>
        <mxCell id="0XENEz4wSS-R9rneuf6d-17" value="&lt;font style=&quot;font-size: 12px;&quot;&gt;Pod&lt;/font&gt;" style="text;strokeColor=none;align=center;fillColor=default;html=1;verticalAlign=middle;whiteSpace=wrap;rounded=0;" vertex="1" parent="jMXSenY-9r7tCc_rm8bD-1">
          <mxGeometry x="133" y="283" width="50" height="20" as="geometry" />
        </mxCell>
        <mxCell id="0XENEz4wSS-R9rneuf6d-19" value="" style="rounded=1;whiteSpace=wrap;html=1;" vertex="1" parent="jMXSenY-9r7tCc_rm8bD-1">
          <mxGeometry x="239" y="296" width="90" height="84" as="geometry" />
        </mxCell>
        <mxCell id="0XENEz4wSS-R9rneuf6d-20" value="eth0" style="rounded=1;whiteSpace=wrap;html=1;" vertex="1" parent="jMXSenY-9r7tCc_rm8bD-1">
          <mxGeometry x="246" y="324" width="39" height="12.5" as="geometry" />
        </mxCell>
        <mxCell id="0XENEz4wSS-R9rneuf6d-21" value="&lt;font style=&quot;font-size: 12px;&quot;&gt;Pod&lt;/font&gt;" style="text;strokeColor=none;align=center;fillColor=default;html=1;verticalAlign=middle;whiteSpace=wrap;rounded=0;" vertex="1" parent="jMXSenY-9r7tCc_rm8bD-1">
          <mxGeometry x="252" y="284" width="50" height="20" as="geometry" />
        </mxCell>
        <mxCell id="0XENEz4wSS-R9rneuf6d-22" value="Default CNI Pugin" style="shape=callout;whiteSpace=wrap;html=1;perimeter=calloutPerimeter;size=64;position=0.47;fillColor=#fff2cc;strokeColor=#d6b656;rounded=1;" vertex="1" parent="jMXSenY-9r7tCc_rm8bD-1">
          <mxGeometry x="79" y="224" width="106" height="94" as="geometry" />
        </mxCell>
        <mxCell id="0XENEz4wSS-R9rneuf6d-23" value="" style="rounded=1;whiteSpace=wrap;html=1;" vertex="1" parent="jMXSenY-9r7tCc_rm8bD-1">
          <mxGeometry x="359" y="296.25" width="120" height="83.75" as="geometry" />
        </mxCell>
        <mxCell id="0XENEz4wSS-R9rneuf6d-24" value="eth0" style="rounded=1;whiteSpace=wrap;html=1;" vertex="1" parent="jMXSenY-9r7tCc_rm8bD-1">
          <mxGeometry x="367" y="324" width="40" height="12.5" as="geometry" />
        </mxCell>
        <mxCell id="0XENEz4wSS-R9rneuf6d-25" value="&lt;font style=&quot;font-size: 12px;&quot;&gt;CNF Pod&lt;/font&gt;" style="text;strokeColor=none;align=center;fillColor=default;html=1;verticalAlign=middle;whiteSpace=wrap;rounded=0;" vertex="1" parent="jMXSenY-9r7tCc_rm8bD-1">
          <mxGeometry x="378" y="284.25" width="69" height="20" as="geometry" />
        </mxCell>
        <mxCell id="0XENEz4wSS-R9rneuf6d-26" value="eth99" style="rounded=1;whiteSpace=wrap;html=1;fillColor=#f8cecc;strokeColor=#b85450;" vertex="1" parent="jMXSenY-9r7tCc_rm8bD-1">
          <mxGeometry x="126" y="365" width="40" height="12.5" as="geometry" />
        </mxCell>
        <mxCell id="0XENEz4wSS-R9rneuf6d-28" value="eth99" style="rounded=1;whiteSpace=wrap;html=1;fillColor=#f8cecc;strokeColor=#b85450;" vertex="1" parent="jMXSenY-9r7tCc_rm8bD-1">
          <mxGeometry x="367" y="365" width="40" height="12.5" as="geometry" />
        </mxCell>
        <mxCell id="0XENEz4wSS-R9rneuf6d-33" value="" style="rounded=1;whiteSpace=wrap;html=1;" vertex="1" parent="jMXSenY-9r7tCc_rm8bD-1">
          <mxGeometry x="109" y="431" width="330" height="40" as="geometry" />
        </mxCell>
        <mxCell id="0XENEz4wSS-R9rneuf6d-29" value="" style="verticalLabelPosition=bottom;html=1;fillColor=#A153A0;strokeColor=#ffffff;verticalAlign=top;align=center;points=[[0,0.5,0],[0.125,0.25,0],[0.25,0,0],[0.5,0,0],[0.75,0,0],[0.875,0.25,0],[1,0.5,0],[0.875,0.75,0],[0.75,1,0],[0.5,1,0],[0.125,0.75,0]];pointerEvents=1;shape=mxgraph.cisco_safe.compositeIcon;bgIcon=mxgraph.cisco_safe.design.blank_device;resIcon=mxgraph.cisco_safe.design.l2_switch;" vertex="1" parent="jMXSenY-9r7tCc_rm8bD-1">
          <mxGeometry x="272.25" y="455" width="36" height="30" as="geometry" />
        </mxCell>
        <mxCell id="0XENEz4wSS-R9rneuf6d-34" value="&lt;font style=&quot;font-size: 12px;&quot;&gt;Virtual Switch 20.0.0.1/16&lt;/font&gt;" style="text;strokeColor=none;align=center;fillColor=default;html=1;verticalAlign=middle;whiteSpace=wrap;rounded=0;" vertex="1" parent="jMXSenY-9r7tCc_rm8bD-1">
          <mxGeometry x="183" y="460" width="79" height="20" as="geometry" />
        </mxCell>
        <mxCell id="0XENEz4wSS-R9rneuf6d-36" value="" style="endArrow=classic;startArrow=classic;html=1;rounded=0;exitX=0.107;exitY=0.009;exitDx=0;exitDy=0;exitPerimeter=0;entryX=0.463;entryY=0.945;entryDx=0;entryDy=0;entryPerimeter=0;" edge="1" parent="jMXSenY-9r7tCc_rm8bD-1" source="0XENEz4wSS-R9rneuf6d-33" target="0XENEz4wSS-R9rneuf6d-26">
          <mxGeometry width="50" height="50" relative="1" as="geometry">
            <mxPoint x="141.37" y="410.36" as="sourcePoint" />
            <mxPoint x="142" y="362" as="targetPoint" />
          </mxGeometry>
        </mxCell>
        <mxCell id="0XENEz4wSS-R9rneuf6d-46" value="&lt;font color=&quot;#f10463&quot;&gt;route: 20.0.0.1/12 dev eth99 via 20.0.0.1&lt;/font&gt;" style="edgeLabel;html=1;align=center;verticalAlign=middle;resizable=0;points=[];" vertex="1" connectable="0" parent="0XENEz4wSS-R9rneuf6d-36">
          <mxGeometry x="0.3997" y="-1" relative="1" as="geometry">
            <mxPoint x="127" y="52" as="offset" />
          </mxGeometry>
        </mxCell>
        <mxCell id="0XENEz4wSS-R9rneuf6d-37" value="" style="endArrow=classic;startArrow=classic;html=1;rounded=0;exitX=0.473;exitY=-0.013;exitDx=0;exitDy=0;exitPerimeter=0;entryX=0.5;entryY=1;entryDx=0;entryDy=0;" edge="1" parent="jMXSenY-9r7tCc_rm8bD-1" source="0XENEz4wSS-R9rneuf6d-33">
          <mxGeometry width="50" height="50" relative="1" as="geometry">
            <mxPoint x="265" y="409" as="sourcePoint" />
            <mxPoint x="266" y="371.0000000000001" as="targetPoint" />
          </mxGeometry>
        </mxCell>
        <mxCell id="0XENEz4wSS-R9rneuf6d-38" value="" style="endArrow=classic;startArrow=classic;html=1;rounded=0;exitX=0.844;exitY=-0.007;exitDx=0;exitDy=0;exitPerimeter=0;entryX=0.5;entryY=1;entryDx=0;entryDy=0;" edge="1" parent="jMXSenY-9r7tCc_rm8bD-1" source="0XENEz4wSS-R9rneuf6d-33" target="0XENEz4wSS-R9rneuf6d-28">
          <mxGeometry width="50" height="50" relative="1" as="geometry">
            <mxPoint x="386.5" y="410" as="sourcePoint" />
            <mxPoint x="388" y="370" as="targetPoint" />
          </mxGeometry>
        </mxCell>
        <mxCell id="0XENEz4wSS-R9rneuf6d-39" value="10.0.0.1/16" style="text;strokeColor=none;align=center;fillColor=none;html=1;verticalAlign=middle;whiteSpace=wrap;rounded=0;" vertex="1" parent="jMXSenY-9r7tCc_rm8bD-1">
          <mxGeometry x="125" y="296.25" width="60" height="30" as="geometry" />
        </mxCell>
        <mxCell id="0XENEz4wSS-R9rneuf6d-40" value="10.0.0.2/16" style="text;strokeColor=none;align=center;fillColor=none;html=1;verticalAlign=middle;whiteSpace=wrap;rounded=0;" vertex="1" parent="jMXSenY-9r7tCc_rm8bD-1">
          <mxGeometry x="241.5" y="296.25" width="60" height="30" as="geometry" />
        </mxCell>
        <mxCell id="0XENEz4wSS-R9rneuf6d-41" value="10.0.0.3/16" style="text;strokeColor=none;align=center;fillColor=none;html=1;verticalAlign=middle;whiteSpace=wrap;rounded=0;" vertex="1" parent="jMXSenY-9r7tCc_rm8bD-1">
          <mxGeometry x="366" y="296" width="60" height="30" as="geometry" />
        </mxCell>
        <mxCell id="0XENEz4wSS-R9rneuf6d-42" value="20.0.0.3/16" style="text;strokeColor=none;align=center;fillColor=none;html=1;verticalAlign=middle;whiteSpace=wrap;rounded=0;" vertex="1" parent="jMXSenY-9r7tCc_rm8bD-1">
          <mxGeometry x="125" y="348.5" width="60" height="16.5" as="geometry" />
        </mxCell>
        <mxCell id="0XENEz4wSS-R9rneuf6d-43" value="eth99" style="rounded=1;whiteSpace=wrap;html=1;fillColor=#f8cecc;strokeColor=#b85450;" vertex="1" parent="jMXSenY-9r7tCc_rm8bD-1">
          <mxGeometry x="245" y="365" width="40" height="12.5" as="geometry" />
        </mxCell>
        <mxCell id="0XENEz4wSS-R9rneuf6d-44" value="20.0.0.4/16" style="text;strokeColor=none;align=center;fillColor=none;html=1;verticalAlign=middle;whiteSpace=wrap;rounded=0;" vertex="1" parent="jMXSenY-9r7tCc_rm8bD-1">
          <mxGeometry x="244" y="348.5" width="60" height="16.5" as="geometry" />
        </mxCell>
        <mxCell id="0XENEz4wSS-R9rneuf6d-45" value="20.0.0.1/16" style="text;strokeColor=none;align=center;fillColor=none;html=1;verticalAlign=middle;whiteSpace=wrap;rounded=0;" vertex="1" parent="jMXSenY-9r7tCc_rm8bD-1">
          <mxGeometry x="366" y="348.5" width="60" height="16.5" as="geometry" />
        </mxCell>
        <mxCell id="0XENEz4wSS-R9rneuf6d-48" value="" style="ellipse;shape=cloud;whiteSpace=wrap;html=1;fillColor=#f8cecc;dashed=1;strokeColor=#b85450;opacity=50;" vertex="1" parent="jMXSenY-9r7tCc_rm8bD-1">
          <mxGeometry x="69" y="334.5" width="420" height="83.25" as="geometry" />
        </mxCell>
        <mxCell id="0XENEz4wSS-R9rneuf6d-51" value="Second Network&amp;nbsp;" style="shape=callout;whiteSpace=wrap;html=1;perimeter=calloutPerimeter;size=64;position=0.47;fillColor=#fff2cc;strokeColor=#d6b656;rounded=1;base=30;arcSize=33;position2=1;" vertex="1" parent="jMXSenY-9r7tCc_rm8bD-1">
          <mxGeometry x="3" y="270" width="106" height="99" as="geometry" />
        </mxCell>
        <mxCell id="0XENEz4wSS-R9rneuf6d-52" value="tunnel" style="rounded=1;whiteSpace=wrap;html=1;fillColor=#d5e8d4;strokeColor=#82b366;" vertex="1" parent="jMXSenY-9r7tCc_rm8bD-1">
          <mxGeometry x="438" y="324" width="40" height="12.5" as="geometry" />
        </mxCell>
        <mxCell id="0XENEz4wSS-R9rneuf6d-53" value="" style="rounded=1;whiteSpace=wrap;html=1;" vertex="1" parent="jMXSenY-9r7tCc_rm8bD-1">
          <mxGeometry x="472" y="112" width="120" height="83.75" as="geometry" />
        </mxCell>
        <mxCell id="0XENEz4wSS-R9rneuf6d-55" value="&lt;font style=&quot;font-size: 12px;&quot;&gt;CNF Pod&lt;/font&gt;" style="text;strokeColor=none;align=center;fillColor=default;html=1;verticalAlign=middle;whiteSpace=wrap;rounded=0;" vertex="1" parent="jMXSenY-9r7tCc_rm8bD-1">
          <mxGeometry x="491" y="100" width="69" height="20" as="geometry" />
        </mxCell>
        <mxCell id="0XENEz4wSS-R9rneuf6d-59" value="tunnel" style="rounded=1;whiteSpace=wrap;html=1;fillColor=#d5e8d4;strokeColor=#82b366;" vertex="1" parent="jMXSenY-9r7tCc_rm8bD-1">
          <mxGeometry x="517" y="181.25" width="52" height="12.5" as="geometry" />
        </mxCell>
        <mxCell id="0XENEz4wSS-R9rneuf6d-61" value="eth0" style="rounded=1;whiteSpace=wrap;html=1;" vertex="1" parent="jMXSenY-9r7tCc_rm8bD-1">
          <mxGeometry x="551" y="130" width="40" height="12.5" as="geometry" />
        </mxCell>
        <mxCell id="0XENEz4wSS-R9rneuf6d-66" value="" style="rounded=1;whiteSpace=wrap;html=1;" vertex="1" parent="jMXSenY-9r7tCc_rm8bD-1">
          <mxGeometry x="580" y="270" width="403" height="260" as="geometry" />
        </mxCell>
        <mxCell id="0XENEz4wSS-R9rneuf6d-67" value="&lt;font style=&quot;font-size: 18px;&quot;&gt;Cluster&lt;/font&gt;" style="text;strokeColor=none;align=center;fillColor=default;html=1;verticalAlign=middle;whiteSpace=wrap;rounded=0;" vertex="1" parent="jMXSenY-9r7tCc_rm8bD-1">
          <mxGeometry x="739" y="251.75" width="75" height="30" as="geometry" />
        </mxCell>
        <mxCell id="0XENEz4wSS-R9rneuf6d-68" value="" style="rounded=1;whiteSpace=wrap;html=1;" vertex="1" parent="jMXSenY-9r7tCc_rm8bD-1">
          <mxGeometry x="750" y="295" width="90" height="85" as="geometry" />
        </mxCell>
        <mxCell id="0XENEz4wSS-R9rneuf6d-69" value="eth0" style="rounded=1;whiteSpace=wrap;html=1;" vertex="1" parent="jMXSenY-9r7tCc_rm8bD-1">
          <mxGeometry x="757" y="324" width="39" height="12.5" as="geometry" />
        </mxCell>
        <mxCell id="0XENEz4wSS-R9rneuf6d-70" value="&lt;font style=&quot;font-size: 12px;&quot;&gt;Pod&lt;/font&gt;" style="text;strokeColor=none;align=center;fillColor=default;html=1;verticalAlign=middle;whiteSpace=wrap;rounded=0;" vertex="1" parent="jMXSenY-9r7tCc_rm8bD-1">
          <mxGeometry x="764" y="283" width="50" height="20" as="geometry" />
        </mxCell>
        <mxCell id="0XENEz4wSS-R9rneuf6d-71" value="" style="rounded=1;whiteSpace=wrap;html=1;" vertex="1" parent="jMXSenY-9r7tCc_rm8bD-1">
          <mxGeometry x="870" y="296" width="90" height="84" as="geometry" />
        </mxCell>
        <mxCell id="0XENEz4wSS-R9rneuf6d-72" value="eth0" style="rounded=1;whiteSpace=wrap;html=1;" vertex="1" parent="jMXSenY-9r7tCc_rm8bD-1">
          <mxGeometry x="877" y="324" width="39" height="12.5" as="geometry" />
        </mxCell>
        <mxCell id="0XENEz4wSS-R9rneuf6d-73" value="&lt;font style=&quot;font-size: 12px;&quot;&gt;Pod&lt;/font&gt;" style="text;strokeColor=none;align=center;fillColor=default;html=1;verticalAlign=middle;whiteSpace=wrap;rounded=0;" vertex="1" parent="jMXSenY-9r7tCc_rm8bD-1">
          <mxGeometry x="883" y="284" width="50" height="20" as="geometry" />
        </mxCell>
        <mxCell id="0XENEz4wSS-R9rneuf6d-74" value="Default CNI Pugin" style="shape=callout;whiteSpace=wrap;html=1;perimeter=calloutPerimeter;size=64;position=0.47;fillColor=#fff2cc;strokeColor=#d6b656;rounded=1;" vertex="1" parent="jMXSenY-9r7tCc_rm8bD-1">
          <mxGeometry x="870" y="230" width="106" height="94" as="geometry" />
        </mxCell>
        <mxCell id="0XENEz4wSS-R9rneuf6d-75" value="" style="rounded=1;whiteSpace=wrap;html=1;" vertex="1" parent="jMXSenY-9r7tCc_rm8bD-1">
          <mxGeometry x="605" y="296.25" width="120" height="83.75" as="geometry" />
        </mxCell>
        <mxCell id="0XENEz4wSS-R9rneuf6d-76" value="eth0" style="rounded=1;whiteSpace=wrap;html=1;" vertex="1" parent="jMXSenY-9r7tCc_rm8bD-1">
          <mxGeometry x="684" y="324.75" width="40" height="12.5" as="geometry" />
        </mxCell>
        <mxCell id="0XENEz4wSS-R9rneuf6d-77" value="&lt;font style=&quot;font-size: 12px;&quot;&gt;CNF Pod&lt;/font&gt;" style="text;strokeColor=none;align=center;fillColor=default;html=1;verticalAlign=middle;whiteSpace=wrap;rounded=0;" vertex="1" parent="jMXSenY-9r7tCc_rm8bD-1">
          <mxGeometry x="624" y="284.25" width="69" height="20" as="geometry" />
        </mxCell>
        <mxCell id="0XENEz4wSS-R9rneuf6d-78" value="eth99" style="rounded=1;whiteSpace=wrap;html=1;fillColor=#f8cecc;strokeColor=#b85450;" vertex="1" parent="jMXSenY-9r7tCc_rm8bD-1">
          <mxGeometry x="757" y="365" width="40" height="12.5" as="geometry" />
        </mxCell>
        <mxCell id="0XENEz4wSS-R9rneuf6d-79" value="eth99" style="rounded=1;whiteSpace=wrap;html=1;fillColor=#f8cecc;strokeColor=#b85450;" vertex="1" parent="jMXSenY-9r7tCc_rm8bD-1">
          <mxGeometry x="613" y="365" width="40" height="12.5" as="geometry" />
        </mxCell>
        <mxCell id="0XENEz4wSS-R9rneuf6d-80" value="" style="rounded=1;whiteSpace=wrap;html=1;" vertex="1" parent="jMXSenY-9r7tCc_rm8bD-1">
          <mxGeometry x="604" y="431" width="330" height="40" as="geometry" />
        </mxCell>
        <mxCell id="0XENEz4wSS-R9rneuf6d-81" value="" style="verticalLabelPosition=bottom;html=1;fillColor=#A153A0;strokeColor=#ffffff;verticalAlign=top;align=center;points=[[0,0.5,0],[0.125,0.25,0],[0.25,0,0],[0.5,0,0],[0.75,0,0],[0.875,0.25,0],[1,0.5,0],[0.875,0.75,0],[0.75,1,0],[0.5,1,0],[0.125,0.75,0]];pointerEvents=1;shape=mxgraph.cisco_safe.compositeIcon;bgIcon=mxgraph.cisco_safe.design.blank_device;resIcon=mxgraph.cisco_safe.design.l2_switch;" vertex="1" parent="jMXSenY-9r7tCc_rm8bD-1">
          <mxGeometry x="767.25" y="455" width="36" height="30" as="geometry" />
        </mxCell>
        <mxCell id="0XENEz4wSS-R9rneuf6d-82" value="&lt;font style=&quot;font-size: 12px;&quot;&gt;Virtual Switch 20.1.0.1/16&lt;/font&gt;" style="text;strokeColor=none;align=center;fillColor=default;html=1;verticalAlign=middle;whiteSpace=wrap;rounded=0;" vertex="1" parent="jMXSenY-9r7tCc_rm8bD-1">
          <mxGeometry x="678" y="460" width="79" height="20" as="geometry" />
        </mxCell>
        <mxCell id="0XENEz4wSS-R9rneuf6d-83" value="" style="endArrow=classic;startArrow=classic;html=1;rounded=0;exitX=0.107;exitY=0.009;exitDx=0;exitDy=0;exitPerimeter=0;entryX=0.463;entryY=0.945;entryDx=0;entryDy=0;entryPerimeter=0;" edge="1" parent="jMXSenY-9r7tCc_rm8bD-1" target="0XENEz4wSS-R9rneuf6d-78">
          <mxGeometry width="50" height="50" relative="1" as="geometry">
            <mxPoint x="775.31" y="431.3600000000001" as="sourcePoint" />
            <mxPoint x="773" y="362" as="targetPoint" />
          </mxGeometry>
        </mxCell>
        <mxCell id="0XENEz4wSS-R9rneuf6d-84" value="&lt;font color=&quot;#f10463&quot;&gt;route: 20.0.0.1/12 dev eth99 via 20.1.0.1&lt;/font&gt;" style="edgeLabel;html=1;align=center;verticalAlign=middle;resizable=0;points=[];" vertex="1" connectable="0" parent="0XENEz4wSS-R9rneuf6d-83">
          <mxGeometry x="0.3997" y="-1" relative="1" as="geometry">
            <mxPoint x="-7" y="52" as="offset" />
          </mxGeometry>
        </mxCell>
        <mxCell id="0XENEz4wSS-R9rneuf6d-85" value="" style="endArrow=classic;startArrow=classic;html=1;rounded=0;exitX=0.473;exitY=-0.013;exitDx=0;exitDy=0;exitPerimeter=0;entryX=0.5;entryY=1;entryDx=0;entryDy=0;" edge="1" parent="jMXSenY-9r7tCc_rm8bD-1">
          <mxGeometry width="50" height="50" relative="1" as="geometry">
            <mxPoint x="896.0900000000001" y="430.48" as="sourcePoint" />
            <mxPoint x="897" y="371.0000000000001" as="targetPoint" />
          </mxGeometry>
        </mxCell>
        <mxCell id="0XENEz4wSS-R9rneuf6d-86" value="" style="endArrow=classic;startArrow=classic;html=1;rounded=0;entryX=0.5;entryY=1;entryDx=0;entryDy=0;" edge="1" parent="jMXSenY-9r7tCc_rm8bD-1">
          <mxGeometry width="50" height="50" relative="1" as="geometry">
            <mxPoint x="634" y="428.75" as="sourcePoint" />
            <mxPoint x="634.4099999999996" y="376.2500000000001" as="targetPoint" />
          </mxGeometry>
        </mxCell>
        <mxCell id="0XENEz4wSS-R9rneuf6d-87" value="10.0.0.1/16" style="text;strokeColor=none;align=center;fillColor=none;html=1;verticalAlign=middle;whiteSpace=wrap;rounded=0;" vertex="1" parent="jMXSenY-9r7tCc_rm8bD-1">
          <mxGeometry x="756" y="296.25" width="60" height="30" as="geometry" />
        </mxCell>
        <mxCell id="0XENEz4wSS-R9rneuf6d-88" value="10.0.0.2/16" style="text;strokeColor=none;align=center;fillColor=none;html=1;verticalAlign=middle;whiteSpace=wrap;rounded=0;" vertex="1" parent="jMXSenY-9r7tCc_rm8bD-1">
          <mxGeometry x="872.5" y="296.25" width="60" height="30" as="geometry" />
        </mxCell>
        <mxCell id="0XENEz4wSS-R9rneuf6d-89" value="10.0.0.3/16" style="text;strokeColor=none;align=center;fillColor=none;html=1;verticalAlign=middle;whiteSpace=wrap;rounded=0;" vertex="1" parent="jMXSenY-9r7tCc_rm8bD-1">
          <mxGeometry x="664" y="296.25" width="60" height="30" as="geometry" />
        </mxCell>
        <mxCell id="0XENEz4wSS-R9rneuf6d-90" value="20.1.0.3/16" style="text;strokeColor=none;align=center;fillColor=none;html=1;verticalAlign=middle;whiteSpace=wrap;rounded=0;" vertex="1" parent="jMXSenY-9r7tCc_rm8bD-1">
          <mxGeometry x="756" y="348.5" width="60" height="16.5" as="geometry" />
        </mxCell>
        <mxCell id="0XENEz4wSS-R9rneuf6d-91" value="eth99" style="rounded=1;whiteSpace=wrap;html=1;fillColor=#f8cecc;strokeColor=#b85450;" vertex="1" parent="jMXSenY-9r7tCc_rm8bD-1">
          <mxGeometry x="876" y="365" width="40" height="12.5" as="geometry" />
        </mxCell>
        <mxCell id="0XENEz4wSS-R9rneuf6d-92" value="20.1.0.4/16" style="text;strokeColor=none;align=center;fillColor=none;html=1;verticalAlign=middle;whiteSpace=wrap;rounded=0;" vertex="1" parent="jMXSenY-9r7tCc_rm8bD-1">
          <mxGeometry x="875" y="348.5" width="60" height="16.5" as="geometry" />
        </mxCell>
        <mxCell id="0XENEz4wSS-R9rneuf6d-93" value="20.1.0.1/16" style="text;strokeColor=none;align=center;fillColor=none;html=1;verticalAlign=middle;whiteSpace=wrap;rounded=0;" vertex="1" parent="jMXSenY-9r7tCc_rm8bD-1">
          <mxGeometry x="612" y="348.5" width="60" height="16.5" as="geometry" />
        </mxCell>
        <mxCell id="0XENEz4wSS-R9rneuf6d-94" value="" style="ellipse;shape=cloud;whiteSpace=wrap;html=1;fillColor=#f8cecc;dashed=1;strokeColor=#b85450;opacity=50;" vertex="1" parent="jMXSenY-9r7tCc_rm8bD-1">
          <mxGeometry x="559" y="334" width="420" height="83.25" as="geometry" />
        </mxCell>
        <mxCell id="0XENEz4wSS-R9rneuf6d-95" value="Second Network&amp;nbsp;" style="shape=callout;whiteSpace=wrap;html=1;perimeter=calloutPerimeter;size=64;position=0.47;fillColor=#fff2cc;strokeColor=#d6b656;rounded=1;base=30;arcSize=33;position2=0.15;" vertex="1" parent="jMXSenY-9r7tCc_rm8bD-1">
          <mxGeometry x="948" y="272.75" width="106" height="99" as="geometry" />
        </mxCell>
        <mxCell id="0XENEz4wSS-R9rneuf6d-96" value="tunnel" style="rounded=1;whiteSpace=wrap;html=1;fillColor=#d5e8d4;strokeColor=#82b366;" vertex="1" parent="jMXSenY-9r7tCc_rm8bD-1">
          <mxGeometry x="605" y="324.75" width="40" height="12.5" as="geometry" />
        </mxCell>
        <mxCell id="0XENEz4wSS-R9rneuf6d-100" value="" style="shape=link;html=1;rounded=0;entryX=0.25;entryY=1;entryDx=0;entryDy=0;width=7.5;exitX=1;exitY=0.5;exitDx=0;exitDy=0;strokeColor=#fa0000;" edge="1" parent="jMXSenY-9r7tCc_rm8bD-1" source="0XENEz4wSS-R9rneuf6d-52" target="0XENEz4wSS-R9rneuf6d-59">
          <mxGeometry width="100" relative="1" as="geometry">
            <mxPoint x="539" y="340" as="sourcePoint" />
            <mxPoint x="619" y="250" as="targetPoint" />
            <Array as="points">
              <mxPoint x="509" y="330" />
              <mxPoint x="529" y="330" />
            </Array>
          </mxGeometry>
        </mxCell>
        <mxCell id="0XENEz4wSS-R9rneuf6d-102" value="" style="shape=link;html=1;rounded=0;width=7.5;exitX=0;exitY=0.5;exitDx=0;exitDy=0;entryX=0.621;entryY=1.117;entryDx=0;entryDy=0;entryPerimeter=0;strokeColor=#ff0505;" edge="1" parent="jMXSenY-9r7tCc_rm8bD-1" source="0XENEz4wSS-R9rneuf6d-96" target="0XENEz4wSS-R9rneuf6d-59">
          <mxGeometry width="100" relative="1" as="geometry">
            <mxPoint x="494" y="340" as="sourcePoint" />
            <mxPoint x="549" y="190" as="targetPoint" />
            <Array as="points">
              <mxPoint x="549" y="330" />
            </Array>
          </mxGeometry>
        </mxCell>
        <mxCell id="0XENEz4wSS-R9rneuf6d-103" value="&lt;font style=&quot;font-size: 18px;&quot;&gt;Hub Cluster&lt;/font&gt;" style="text;strokeColor=none;align=center;fillColor=default;html=1;verticalAlign=middle;whiteSpace=wrap;rounded=0;" vertex="1" parent="jMXSenY-9r7tCc_rm8bD-1">
          <mxGeometry x="579" y="70" width="100" height="30" as="geometry" />
        </mxCell>
      </root>
    </mxGraphModel>
  </diagram>
  <diagram id="Ppnh7tpyNY-yCjYA81Ip" name="Page-5">
    <mxGraphModel dx="954" dy="615" grid="1" gridSize="10" guides="1" tooltips="1" connect="1" arrows="1" fold="1" page="1" pageScale="1" pageWidth="827" pageHeight="1169" math="0" shadow="0">
      <root>
        <mxCell id="kgTtI0zeSmzzGsi_rJ50-0" />
        <mxCell id="kgTtI0zeSmzzGsi_rJ50-1" parent="kgTtI0zeSmzzGsi_rJ50-0" />
        <mxCell id="4xa5vcUNq-AHUEAc1WwK-6" value="" style="rounded=1;whiteSpace=wrap;html=1;dashed=1;fillColor=none;" parent="kgTtI0zeSmzzGsi_rJ50-1" vertex="1">
          <mxGeometry x="620" y="230" width="160" height="130" as="geometry" />
        </mxCell>
        <mxCell id="TS-30S_ZtPCCUwQr37_C-16" value="" style="rounded=1;whiteSpace=wrap;html=1;dashed=1;fillColor=none;" parent="kgTtI0zeSmzzGsi_rJ50-1" vertex="1">
          <mxGeometry x="117.25" y="485.12" width="662.75" height="70" as="geometry" />
        </mxCell>
        <mxCell id="kgTtI0zeSmzzGsi_rJ50-39" value="" style="rounded=1;whiteSpace=wrap;html=1;dashed=1;fillColor=none;" parent="kgTtI0zeSmzzGsi_rJ50-1" vertex="1">
          <mxGeometry x="120" y="230" width="460" height="130" as="geometry" />
        </mxCell>
        <mxCell id="kgTtI0zeSmzzGsi_rJ50-69" value="" style="rounded=1;whiteSpace=wrap;html=1;dashed=1;fillColor=none;" parent="kgTtI0zeSmzzGsi_rJ50-1" vertex="1">
          <mxGeometry x="116.25" y="390" width="663.75" height="70" as="geometry" />
        </mxCell>
        <mxCell id="kgTtI0zeSmzzGsi_rJ50-10" value="资源同步" style="rounded=1;whiteSpace=wrap;html=1;fillColor=#f8cecc;strokeColor=#b85450;" parent="kgTtI0zeSmzzGsi_rJ50-1" vertex="1">
          <mxGeometry x="461" y="401.25" width="89" height="42.5" as="geometry" />
        </mxCell>
        <mxCell id="kgTtI0zeSmzzGsi_rJ50-37" value="节点接入" style="rounded=1;whiteSpace=wrap;html=1;fillColor=#f8cecc;strokeColor=#b85450;" parent="kgTtI0zeSmzzGsi_rJ50-1" vertex="1">
          <mxGeometry x="359" y="500" width="81" height="45.12" as="geometry" />
        </mxCell>
        <mxCell id="kgTtI0zeSmzzGsi_rJ50-38" value="集群管理" style="rounded=1;whiteSpace=wrap;html=1;fillColor=#f8cecc;strokeColor=#b85450;" parent="kgTtI0zeSmzzGsi_rJ50-1" vertex="1">
          <mxGeometry x="250" y="500" width="80" height="45.12" as="geometry" />
        </mxCell>
        <mxCell id="kgTtI0zeSmzzGsi_rJ50-40" value="联合调度器" style="rounded=1;whiteSpace=wrap;html=1;fillColor=#f8cecc;strokeColor=#b85450;" parent="kgTtI0zeSmzzGsi_rJ50-1" vertex="1">
          <mxGeometry x="250" y="401.25" width="80" height="42.5" as="geometry" />
        </mxCell>
        <mxCell id="kgTtI0zeSmzzGsi_rJ50-43" value="服务监控" style="rounded=1;whiteSpace=wrap;html=1;fillColor=#f8cecc;strokeColor=#b85450;" parent="kgTtI0zeSmzzGsi_rJ50-1" vertex="1">
          <mxGeometry x="250" y="310" width="70" height="38.5" as="geometry" />
        </mxCell>
        <mxCell id="kgTtI0zeSmzzGsi_rJ50-45" value="Serverless 控制器&lt;br&gt;（副本、规格、存储、网络指标）" style="rounded=1;whiteSpace=wrap;html=1;fillColor=#f8cecc;strokeColor=#b85450;" parent="kgTtI0zeSmzzGsi_rJ50-1" vertex="1">
          <mxGeometry x="569.45" y="401.25" width="185.3" height="42.5" as="geometry" />
        </mxCell>
        <mxCell id="kgTtI0zeSmzzGsi_rJ50-70" value="编排管理" style="text;html=1;resizable=0;autosize=1;align=center;verticalAlign=middle;points=[];fillColor=none;strokeColor=none;rounded=0;" parent="kgTtI0zeSmzzGsi_rJ50-1" vertex="1">
          <mxGeometry x="35" y="423.75" width="60" height="20" as="geometry" />
        </mxCell>
        <mxCell id="kgTtI0zeSmzzGsi_rJ50-73" value="运维中心" style="text;html=1;resizable=0;autosize=1;align=center;verticalAlign=middle;points=[];fillColor=none;strokeColor=none;rounded=0;" parent="kgTtI0zeSmzzGsi_rJ50-1" vertex="1">
          <mxGeometry x="667.41" y="240" width="60" height="20" as="geometry" />
        </mxCell>
        <mxCell id="kgTtI0zeSmzzGsi_rJ50-75" value="" style="rounded=1;whiteSpace=wrap;html=1;dashed=1;fillColor=none;" parent="kgTtI0zeSmzzGsi_rJ50-1" vertex="1">
          <mxGeometry x="810" y="230" width="110" height="330" as="geometry" />
        </mxCell>
        <mxCell id="kgTtI0zeSmzzGsi_rJ50-76" value="运营管理" style="text;html=1;resizable=0;autosize=1;align=center;verticalAlign=middle;points=[];fillColor=none;strokeColor=none;rounded=0;" parent="kgTtI0zeSmzzGsi_rJ50-1" vertex="1">
          <mxGeometry x="835.16" y="243.75" width="60" height="20" as="geometry" />
        </mxCell>
        <mxCell id="kgTtI0zeSmzzGsi_rJ50-78" value="应用市场" style="whiteSpace=wrap;html=1;rounded=1;strokeColor=#b85450;fillColor=#f8cecc;" parent="kgTtI0zeSmzzGsi_rJ50-1" vertex="1">
          <mxGeometry x="146" y="310" width="74" height="38.5" as="geometry" />
        </mxCell>
        <mxCell id="kgTtI0zeSmzzGsi_rJ50-82" value="应用管理" style="text;html=1;resizable=0;autosize=1;align=center;verticalAlign=middle;points=[];fillColor=none;strokeColor=none;rounded=0;" parent="kgTtI0zeSmzzGsi_rJ50-1" vertex="1">
          <mxGeometry x="35" y="297.5" width="60" height="20" as="geometry" />
        </mxCell>
        <mxCell id="dxe5oV1_BkUxLGmSsDA0-0" value="应用管理" style="whiteSpace=wrap;html=1;rounded=1;strokeColor=#b85450;fillColor=#f8cecc;" parent="kgTtI0zeSmzzGsi_rJ50-1" vertex="1">
          <mxGeometry x="146" y="250" width="74" height="38.75" as="geometry" />
        </mxCell>
        <mxCell id="dxe5oV1_BkUxLGmSsDA0-1" value="配置管理" style="whiteSpace=wrap;html=1;rounded=1;strokeColor=#b85450;fillColor=#f8cecc;" parent="kgTtI0zeSmzzGsi_rJ50-1" vertex="1">
          <mxGeometry x="833.91" y="503.5" width="73.44" height="30" as="geometry" />
        </mxCell>
        <mxCell id="C1xswwN7f7l1yQjc08O6-2" value="用户管理" style="rounded=1;whiteSpace=wrap;html=1;fillColor=#f8cecc;strokeColor=#b85450;" parent="kgTtI0zeSmzzGsi_rJ50-1" vertex="1">
          <mxGeometry x="835.16" y="414" width="72.19" height="27.5" as="geometry" />
        </mxCell>
        <mxCell id="C1xswwN7f7l1yQjc08O6-3" value="项目管理" style="rounded=1;whiteSpace=wrap;html=1;fillColor=#f8cecc;strokeColor=#b85450;" parent="kgTtI0zeSmzzGsi_rJ50-1" vertex="1">
          <mxGeometry x="832.66" y="277.5" width="72.19" height="27.5" as="geometry" />
        </mxCell>
        <mxCell id="C1xswwN7f7l1yQjc08O6-4" value="计费管理" style="rounded=1;whiteSpace=wrap;html=1;fillColor=#f8cecc;strokeColor=#b85450;" parent="kgTtI0zeSmzzGsi_rJ50-1" vertex="1">
          <mxGeometry x="832.66" y="323" width="72.19" height="27.5" as="geometry" />
        </mxCell>
        <mxCell id="C1xswwN7f7l1yQjc08O6-5" value="报表" style="rounded=1;whiteSpace=wrap;html=1;fillColor=#f8cecc;strokeColor=#b85450;" parent="kgTtI0zeSmzzGsi_rJ50-1" vertex="1">
          <mxGeometry x="833.91" y="461" width="72.19" height="25" as="geometry" />
        </mxCell>
        <mxCell id="C1xswwN7f7l1yQjc08O6-6" value="权限系统" style="rounded=1;whiteSpace=wrap;html=1;fillColor=#f8cecc;strokeColor=#b85450;" parent="kgTtI0zeSmzzGsi_rJ50-1" vertex="1">
          <mxGeometry x="833.29" y="368" width="73.44" height="27.5" as="geometry" />
        </mxCell>
        <mxCell id="4xa5vcUNq-AHUEAc1WwK-8" value="系统监控" style="whiteSpace=wrap;html=1;rounded=1;strokeColor=#b85450;fillColor=#f8cecc;" parent="kgTtI0zeSmzzGsi_rJ50-1" vertex="1">
          <mxGeometry x="359" y="401.25" width="81" height="42.5" as="geometry" />
        </mxCell>
        <mxCell id="fd4B5mZt4nCNdbXrSYBD-0" value="端云一体化&lt;br&gt;开发/CD" style="rounded=1;whiteSpace=wrap;html=1;fillColor=#f8cecc;strokeColor=#b85450;" parent="kgTtI0zeSmzzGsi_rJ50-1" vertex="1">
          <mxGeometry x="359" y="250" width="81" height="38.75" as="geometry" />
        </mxCell>
        <mxCell id="GucSd3mu4lunKuoDKpcO-1" value="存储控制" style="whiteSpace=wrap;html=1;rounded=1;strokeColor=#b85450;fillColor=#f8cecc;" parent="kgTtI0zeSmzzGsi_rJ50-1" vertex="1">
          <mxGeometry x="146" y="500" width="74" height="45.12" as="geometry" />
        </mxCell>
        <mxCell id="GucSd3mu4lunKuoDKpcO-2" value="函数市场" style="whiteSpace=wrap;html=1;rounded=1;strokeColor=#b85450;fillColor=#f8cecc;" parent="kgTtI0zeSmzzGsi_rJ50-1" vertex="1">
          <mxGeometry x="461" y="310" width="79" height="39.75" as="geometry" />
        </mxCell>
        <mxCell id="JH8uNGvWjEa93c4zHjT5-3" value="镜像引擎" style="whiteSpace=wrap;html=1;rounded=1;strokeColor=#b85450;fillColor=#f8cecc;" parent="kgTtI0zeSmzzGsi_rJ50-1" vertex="1">
          <mxGeometry x="146" y="401.25" width="74" height="42.5" as="geometry" />
        </mxCell>
        <mxCell id="JH8uNGvWjEa93c4zHjT5-4" value="安全运行时" style="whiteSpace=wrap;html=1;rounded=1;strokeColor=#b85450;fillColor=#f8cecc;" parent="kgTtI0zeSmzzGsi_rJ50-1" vertex="1">
          <mxGeometry x="572" y="500" width="78" height="45.12" as="geometry" />
        </mxCell>
        <mxCell id="TS-30S_ZtPCCUwQr37_C-0" value="" style="rounded=1;whiteSpace=wrap;html=1;fillColor=none;dashed=1;" parent="kgTtI0zeSmzzGsi_rJ50-1" vertex="1">
          <mxGeometry x="112.82" y="590" width="807.18" height="120" as="geometry" />
        </mxCell>
        <mxCell id="TS-30S_ZtPCCUwQr37_C-4" value="&lt;font style=&quot;font-size: 14px&quot;&gt;分布式云&lt;/font&gt;" style="text;html=1;resizable=0;autosize=1;align=center;verticalAlign=middle;points=[];fillColor=none;strokeColor=none;rounded=0;dashed=1;" parent="kgTtI0zeSmzzGsi_rJ50-1" vertex="1">
          <mxGeometry x="30" y="650" width="70" height="20" as="geometry" />
        </mxCell>
        <mxCell id="TS-30S_ZtPCCUwQr37_C-17" value="基础设施管理" style="text;html=1;resizable=0;autosize=1;align=center;verticalAlign=middle;points=[];fillColor=none;strokeColor=none;rounded=0;" parent="kgTtI0zeSmzzGsi_rJ50-1" vertex="1">
          <mxGeometry x="14.689999999999998" y="511.37" width="90" height="20" as="geometry" />
        </mxCell>
        <mxCell id="TS-30S_ZtPCCUwQr37_C-19" value="集群迁移/&lt;br&gt;改造" style="rounded=1;whiteSpace=wrap;html=1;strokeColor=#b85450;fillColor=#FFD966;dashed=1;" parent="kgTtI0zeSmzzGsi_rJ50-1" vertex="1">
          <mxGeometry x="682.75" y="500" width="72" height="45.12" as="geometry" />
        </mxCell>
        <mxCell id="TS-30S_ZtPCCUwQr37_C-22" value="" style="aspect=fixed;pointerEvents=1;shadow=0;dashed=0;html=1;labelPosition=center;verticalLabelPosition=bottom;verticalAlign=top;align=center;shape=mxgraph.mscae.enterprise.internet;fillColor=none;strokeColor=#3399FF;" parent="kgTtI0zeSmzzGsi_rJ50-1" vertex="1">
          <mxGeometry x="190" y="610.53" width="117.34" height="72.75" as="geometry" />
        </mxCell>
        <mxCell id="TS-30S_ZtPCCUwQr37_C-23" value="" style="aspect=fixed;pointerEvents=1;shadow=0;dashed=0;html=1;strokeColor=none;labelPosition=center;verticalLabelPosition=bottom;verticalAlign=top;align=center;fillColor=#00188D;shape=mxgraph.mscae.enterprise.key_permissions" parent="kgTtI0zeSmzzGsi_rJ50-1" vertex="1">
          <mxGeometry x="239.95999999999998" y="642.23" width="18.48" height="35.53" as="geometry" />
        </mxCell>
        <mxCell id="TS-30S_ZtPCCUwQr37_C-26" value="" style="html=1;verticalLabelPosition=bottom;align=center;labelBackgroundColor=#ffffff;verticalAlign=top;strokeWidth=2;strokeColor=#0080F0;shadow=0;dashed=0;shape=mxgraph.ios7.icons.globe;fillColor=#66B2FF;gradientColor=none;" parent="kgTtI0zeSmzzGsi_rJ50-1" vertex="1">
          <mxGeometry x="768.75" y="653.28" width="30" height="30" as="geometry" />
        </mxCell>
        <mxCell id="TS-30S_ZtPCCUwQr37_C-29" value="" style="aspect=fixed;pointerEvents=1;shadow=0;dashed=0;html=1;labelPosition=center;verticalLabelPosition=bottom;verticalAlign=top;align=center;shape=mxgraph.mscae.enterprise.internet;fillColor=none;strokeColor=#3399FF;" parent="kgTtI0zeSmzzGsi_rJ50-1" vertex="1">
          <mxGeometry x="413.46" y="600.53" width="117.34" height="72.75" as="geometry" />
        </mxCell>
        <mxCell id="TS-30S_ZtPCCUwQr37_C-30" value="" style="aspect=fixed;pointerEvents=1;shadow=0;dashed=0;html=1;labelPosition=center;verticalLabelPosition=bottom;verticalAlign=top;align=center;shape=mxgraph.mscae.enterprise.internet;fillColor=none;strokeColor=#3399FF;" parent="kgTtI0zeSmzzGsi_rJ50-1" vertex="1">
          <mxGeometry x="681.41" y="610.53" width="117.34" height="72.75" as="geometry" />
        </mxCell>
        <mxCell id="TS-30S_ZtPCCUwQr37_C-31" value="私有云" style="text;html=1;resizable=0;autosize=1;align=center;verticalAlign=middle;points=[];fillColor=none;strokeColor=none;rounded=0;" parent="kgTtI0zeSmzzGsi_rJ50-1" vertex="1">
          <mxGeometry x="224.2" y="690" width="50" height="20" as="geometry" />
        </mxCell>
        <mxCell id="TS-30S_ZtPCCUwQr37_C-32" value="专有云" style="text;html=1;resizable=0;autosize=1;align=center;verticalAlign=middle;points=[];fillColor=none;strokeColor=none;rounded=0;" parent="kgTtI0zeSmzzGsi_rJ50-1" vertex="1">
          <mxGeometry x="447.13" y="689.28" width="50" height="20" as="geometry" />
        </mxCell>
        <mxCell id="TS-30S_ZtPCCUwQr37_C-33" value="公有云" style="text;html=1;resizable=0;autosize=1;align=center;verticalAlign=middle;points=[];fillColor=none;strokeColor=none;rounded=0;" parent="kgTtI0zeSmzzGsi_rJ50-1" vertex="1">
          <mxGeometry x="718.75" y="690" width="50" height="20" as="geometry" />
        </mxCell>
        <mxCell id="TS-30S_ZtPCCUwQr37_C-34" value="函数编排" style="rounded=1;whiteSpace=wrap;html=1;fillColor=#f8cecc;strokeColor=#b85450;" parent="kgTtI0zeSmzzGsi_rJ50-1" vertex="1">
          <mxGeometry x="359" y="310" width="81" height="38.5" as="geometry" />
        </mxCell>
        <mxCell id="TS-30S_ZtPCCUwQr37_C-36" value="网络控制" style="rounded=1;whiteSpace=wrap;html=1;fillColor=#f8cecc;strokeColor=#b85450;" parent="kgTtI0zeSmzzGsi_rJ50-1" vertex="1">
          <mxGeometry x="461" y="500" width="89" height="45.12" as="geometry" />
        </mxCell>
        <mxCell id="TS-30S_ZtPCCUwQr37_C-37" value="" style="aspect=fixed;pointerEvents=1;shadow=0;dashed=0;html=1;labelPosition=center;verticalLabelPosition=bottom;verticalAlign=top;align=center;shape=mxgraph.mscae.enterprise.internet;fillColor=none;strokeColor=#3399FF;" parent="kgTtI0zeSmzzGsi_rJ50-1" vertex="1">
          <mxGeometry x="423.46" y="610.53" width="117.34" height="72.75" as="geometry" />
        </mxCell>
        <mxCell id="TS-30S_ZtPCCUwQr37_C-38" value="FaaS" style="rounded=1;whiteSpace=wrap;html=1;fillColor=#f8cecc;strokeColor=#b85450;" parent="kgTtI0zeSmzzGsi_rJ50-1" vertex="1">
          <mxGeometry x="250" y="250" width="70" height="38.75" as="geometry" />
        </mxCell>
        <mxCell id="TS-30S_ZtPCCUwQr37_C-39" value="Eventing" style="whiteSpace=wrap;html=1;rounded=1;strokeColor=#b85450;fillColor=#f8cecc;" parent="kgTtI0zeSmzzGsi_rJ50-1" vertex="1">
          <mxGeometry x="461" y="250" width="79" height="40" as="geometry" />
        </mxCell>
        <mxCell id="TS-30S_ZtPCCUwQr37_C-40" value="日志" style="whiteSpace=wrap;html=1;rounded=1;strokeColor=#b85450;fillColor=#f8cecc;" parent="kgTtI0zeSmzzGsi_rJ50-1" vertex="1">
          <mxGeometry x="636.75" y="270" width="53.25" height="27" as="geometry" />
        </mxCell>
        <mxCell id="TS-30S_ZtPCCUwQr37_C-41" value="审计" style="whiteSpace=wrap;html=1;rounded=1;strokeColor=#b85450;fillColor=#f8cecc;" parent="kgTtI0zeSmzzGsi_rJ50-1" vertex="1">
          <mxGeometry x="703.75" y="270" width="56.25" height="27" as="geometry" />
        </mxCell>
        <mxCell id="TS-30S_ZtPCCUwQr37_C-42" value="告警" style="whiteSpace=wrap;html=1;rounded=1;strokeColor=#b85450;fillColor=#f8cecc;" parent="kgTtI0zeSmzzGsi_rJ50-1" vertex="1">
          <mxGeometry x="636.75" y="320" width="53.25" height="28.75" as="geometry" />
        </mxCell>
        <mxCell id="TS-30S_ZtPCCUwQr37_C-43" value="事件" style="whiteSpace=wrap;html=1;rounded=1;strokeColor=#b85450;fillColor=#f8cecc;" parent="kgTtI0zeSmzzGsi_rJ50-1" vertex="1">
          <mxGeometry x="703.75" y="320" width="56.25" height="28.5" as="geometry" />
        </mxCell>
      </root>
    </mxGraphModel>
  </diagram>
  <diagram id="Lpc7gNIsoN7-9WWE7VAf" name="Page-6">
    <mxGraphModel dx="954" dy="1784" grid="1" gridSize="10" guides="1" tooltips="1" connect="1" arrows="1" fold="1" page="1" pageScale="1" pageWidth="827" pageHeight="1169" math="0" shadow="0">
      <root>
        <mxCell id="CCC-XVfhaCt7SHkQT_ky-0" />
        <mxCell id="CCC-XVfhaCt7SHkQT_ky-1" parent="CCC-XVfhaCt7SHkQT_ky-0" />
        <mxCell id="CCC-XVfhaCt7SHkQT_ky-46" value="" style="rounded=0;whiteSpace=wrap;html=1;dashed=1;" parent="CCC-XVfhaCt7SHkQT_ky-1" vertex="1">
          <mxGeometry y="-370" width="760" height="190" as="geometry" />
        </mxCell>
        <mxCell id="CCC-XVfhaCt7SHkQT_ky-29" value="" style="rounded=0;whiteSpace=wrap;html=1;dashed=1;" parent="CCC-XVfhaCt7SHkQT_ky-1" vertex="1">
          <mxGeometry y="120" width="760" height="310" as="geometry" />
        </mxCell>
        <mxCell id="CCC-XVfhaCt7SHkQT_ky-28" value="" style="rounded=0;whiteSpace=wrap;html=1;dashed=1;" parent="CCC-XVfhaCt7SHkQT_ky-1" vertex="1">
          <mxGeometry y="-119.17" width="760" height="190" as="geometry" />
        </mxCell>
        <mxCell id="CCC-XVfhaCt7SHkQT_ky-2" value="" style="outlineConnect=0;fontColor=#232F3E;gradientColor=none;fillColor=#277116;strokeColor=none;dashed=0;verticalLabelPosition=bottom;verticalAlign=top;align=center;html=1;fontSize=12;fontStyle=0;aspect=fixed;pointerEvents=1;shape=mxgraph.aws4.camera;" parent="CCC-XVfhaCt7SHkQT_ky-1" vertex="1">
          <mxGeometry x="70" y="140" width="78" height="78" as="geometry" />
        </mxCell>
        <mxCell id="CCC-XVfhaCt7SHkQT_ky-3" value="" style="outlineConnect=0;fontColor=#232F3E;gradientColor=none;fillColor=#277116;strokeColor=none;dashed=0;verticalLabelPosition=bottom;verticalAlign=top;align=center;html=1;fontSize=12;fontStyle=0;aspect=fixed;pointerEvents=1;shape=mxgraph.aws4.car;" parent="CCC-XVfhaCt7SHkQT_ky-1" vertex="1">
          <mxGeometry x="70" y="310" width="78" height="78" as="geometry" />
        </mxCell>
        <mxCell id="CCC-XVfhaCt7SHkQT_ky-4" value="Camera" style="text;html=1;resizable=0;autosize=1;align=center;verticalAlign=middle;points=[];fillColor=none;strokeColor=none;rounded=0;" parent="CCC-XVfhaCt7SHkQT_ky-1" vertex="1">
          <mxGeometry x="10" y="169" width="60" height="20" as="geometry" />
        </mxCell>
        <mxCell id="CCC-XVfhaCt7SHkQT_ky-5" value="Car" style="text;html=1;resizable=0;autosize=1;align=center;verticalAlign=middle;points=[];fillColor=none;strokeColor=none;rounded=0;" parent="CCC-XVfhaCt7SHkQT_ky-1" vertex="1">
          <mxGeometry x="20" y="346" width="30" height="20" as="geometry" />
        </mxCell>
        <mxCell id="CCC-XVfhaCt7SHkQT_ky-7" value="" style="shape=image;html=1;verticalAlign=top;verticalLabelPosition=bottom;labelBackgroundColor=#ffffff;imageAspect=0;aspect=fixed;image=https://cdn4.iconfinder.com/data/icons/social-life/512/raspberry-pi-128.png" parent="CCC-XVfhaCt7SHkQT_ky-1" vertex="1">
          <mxGeometry x="216" y="218" width="128" height="128" as="geometry" />
        </mxCell>
        <mxCell id="CCC-XVfhaCt7SHkQT_ky-8" value="" style="edgeStyle=elbowEdgeStyle;elbow=vertical;endArrow=classic;html=1;entryX=0;entryY=0.5;entryDx=0;entryDy=0;strokeColor=#EA6B66;" parent="CCC-XVfhaCt7SHkQT_ky-1" source="CCC-XVfhaCt7SHkQT_ky-3" target="CCC-XVfhaCt7SHkQT_ky-7" edge="1">
          <mxGeometry width="50" height="50" relative="1" as="geometry">
            <mxPoint x="110" y="290" as="sourcePoint" />
            <mxPoint x="160" y="240" as="targetPoint" />
            <Array as="points">
              <mxPoint x="170" y="282" />
            </Array>
          </mxGeometry>
        </mxCell>
        <mxCell id="CCC-XVfhaCt7SHkQT_ky-9" value="" style="edgeStyle=elbowEdgeStyle;elbow=vertical;endArrow=classic;html=1;entryX=0;entryY=0.25;entryDx=0;entryDy=0;strokeColor=#EA6B66;" parent="CCC-XVfhaCt7SHkQT_ky-1" target="CCC-XVfhaCt7SHkQT_ky-7" edge="1">
          <mxGeometry width="50" height="50" relative="1" as="geometry">
            <mxPoint x="110" y="220" as="sourcePoint" />
            <mxPoint x="200" y="210" as="targetPoint" />
            <Array as="points">
              <mxPoint x="170" y="250" />
            </Array>
          </mxGeometry>
        </mxCell>
        <mxCell id="CCC-XVfhaCt7SHkQT_ky-10" value="Raspberry Pi" style="text;html=1;resizable=0;autosize=1;align=center;verticalAlign=middle;points=[];fillColor=none;strokeColor=none;rounded=0;" parent="CCC-XVfhaCt7SHkQT_ky-1" vertex="1">
          <mxGeometry x="240" y="189" width="80" height="20" as="geometry" />
        </mxCell>
        <mxCell id="CCC-XVfhaCt7SHkQT_ky-15" value="" style="outlineConnect=0;fontColor=#232F3E;gradientColor=none;fillColor=#277116;strokeColor=none;dashed=0;verticalLabelPosition=bottom;verticalAlign=top;align=center;html=1;fontSize=12;fontStyle=0;aspect=fixed;pointerEvents=1;shape=mxgraph.aws4.camera;" parent="CCC-XVfhaCt7SHkQT_ky-1" vertex="1">
          <mxGeometry x="435" y="140" width="78" height="78" as="geometry" />
        </mxCell>
        <mxCell id="CCC-XVfhaCt7SHkQT_ky-16" value="" style="outlineConnect=0;fontColor=#232F3E;gradientColor=none;fillColor=#277116;strokeColor=none;dashed=0;verticalLabelPosition=bottom;verticalAlign=top;align=center;html=1;fontSize=12;fontStyle=0;aspect=fixed;pointerEvents=1;shape=mxgraph.aws4.car;" parent="CCC-XVfhaCt7SHkQT_ky-1" vertex="1">
          <mxGeometry x="435" y="310" width="78" height="78" as="geometry" />
        </mxCell>
        <mxCell id="CCC-XVfhaCt7SHkQT_ky-17" value="Camera" style="text;html=1;resizable=0;autosize=1;align=center;verticalAlign=middle;points=[];fillColor=none;strokeColor=none;rounded=0;" parent="CCC-XVfhaCt7SHkQT_ky-1" vertex="1">
          <mxGeometry x="375" y="169" width="60" height="20" as="geometry" />
        </mxCell>
        <mxCell id="CCC-XVfhaCt7SHkQT_ky-18" value="Car" style="text;html=1;resizable=0;autosize=1;align=center;verticalAlign=middle;points=[];fillColor=none;strokeColor=none;rounded=0;" parent="CCC-XVfhaCt7SHkQT_ky-1" vertex="1">
          <mxGeometry x="385" y="346" width="30" height="20" as="geometry" />
        </mxCell>
        <mxCell id="CCC-XVfhaCt7SHkQT_ky-19" value="" style="shape=image;html=1;verticalAlign=top;verticalLabelPosition=bottom;labelBackgroundColor=#ffffff;imageAspect=0;aspect=fixed;image=https://cdn4.iconfinder.com/data/icons/social-life/512/raspberry-pi-128.png" parent="CCC-XVfhaCt7SHkQT_ky-1" vertex="1">
          <mxGeometry x="581" y="218" width="128" height="128" as="geometry" />
        </mxCell>
        <mxCell id="CCC-XVfhaCt7SHkQT_ky-20" value="" style="edgeStyle=elbowEdgeStyle;elbow=vertical;endArrow=classic;html=1;entryX=0;entryY=0.5;entryDx=0;entryDy=0;strokeColor=#EA6B66;" parent="CCC-XVfhaCt7SHkQT_ky-1" source="CCC-XVfhaCt7SHkQT_ky-16" target="CCC-XVfhaCt7SHkQT_ky-19" edge="1">
          <mxGeometry width="50" height="50" relative="1" as="geometry">
            <mxPoint x="475" y="290" as="sourcePoint" />
            <mxPoint x="525" y="240" as="targetPoint" />
            <Array as="points">
              <mxPoint x="535" y="282" />
            </Array>
          </mxGeometry>
        </mxCell>
        <mxCell id="CCC-XVfhaCt7SHkQT_ky-21" value="" style="edgeStyle=elbowEdgeStyle;elbow=vertical;endArrow=classic;html=1;entryX=0;entryY=0.25;entryDx=0;entryDy=0;strokeColor=#EA6B66;" parent="CCC-XVfhaCt7SHkQT_ky-1" target="CCC-XVfhaCt7SHkQT_ky-19" edge="1">
          <mxGeometry width="50" height="50" relative="1" as="geometry">
            <mxPoint x="475" y="220" as="sourcePoint" />
            <mxPoint x="565" y="210" as="targetPoint" />
            <Array as="points">
              <mxPoint x="535" y="250" />
            </Array>
          </mxGeometry>
        </mxCell>
        <mxCell id="CCC-XVfhaCt7SHkQT_ky-22" value="Raspberry Pi" style="text;html=1;resizable=0;autosize=1;align=center;verticalAlign=middle;points=[];fillColor=none;strokeColor=none;rounded=0;" parent="CCC-XVfhaCt7SHkQT_ky-1" vertex="1">
          <mxGeometry x="605" y="189" width="80" height="20" as="geometry" />
        </mxCell>
        <mxCell id="CCC-XVfhaCt7SHkQT_ky-25" value="" style="endArrow=classic;html=1;exitX=0.75;exitY=0;exitDx=0;exitDy=0;strokeColor=#EA6B66;" parent="CCC-XVfhaCt7SHkQT_ky-1" source="CCC-XVfhaCt7SHkQT_ky-7" edge="1">
          <mxGeometry width="50" height="50" relative="1" as="geometry">
            <mxPoint x="260" y="110" as="sourcePoint" />
            <mxPoint x="420" y="22" as="targetPoint" />
          </mxGeometry>
        </mxCell>
        <mxCell id="CCC-XVfhaCt7SHkQT_ky-26" value="" style="endArrow=classic;html=1;exitX=0.25;exitY=0;exitDx=0;exitDy=0;entryX=0.5;entryY=1;entryDx=0;entryDy=0;entryPerimeter=0;strokeColor=#EA6B66;" parent="CCC-XVfhaCt7SHkQT_ky-1" source="CCC-XVfhaCt7SHkQT_ky-19" edge="1">
          <mxGeometry width="50" height="50" relative="1" as="geometry">
            <mxPoint x="290" y="228" as="sourcePoint" />
            <mxPoint x="422" y="21.670000000000073" as="targetPoint" />
          </mxGeometry>
        </mxCell>
        <mxCell id="CCC-XVfhaCt7SHkQT_ky-30" value="&lt;font style=&quot;font-size: 18px&quot;&gt;边缘云&lt;/font&gt;" style="text;html=1;resizable=0;autosize=1;align=center;verticalAlign=middle;points=[];fillColor=none;strokeColor=none;rounded=0;dashed=1;" parent="CCC-XVfhaCt7SHkQT_ky-1" vertex="1">
          <mxGeometry y="40" width="70" height="20" as="geometry" />
        </mxCell>
        <mxCell id="CCC-XVfhaCt7SHkQT_ky-31" value="&lt;font style=&quot;font-size: 18px&quot;&gt;Serverless&lt;br&gt;图片预处理&lt;br&gt;&lt;/font&gt;" style="rounded=1;whiteSpace=wrap;html=1;fillColor=#f5f5f5;strokeColor=#666666;fontColor=#333333;" parent="CCC-XVfhaCt7SHkQT_ky-1" vertex="1">
          <mxGeometry x="354" y="-40" width="120" height="60" as="geometry" />
        </mxCell>
        <mxCell id="CCC-XVfhaCt7SHkQT_ky-33" value="" style="outlineConnect=0;dashed=0;verticalLabelPosition=bottom;verticalAlign=top;align=center;html=1;shape=mxgraph.aws3.bucket;fillColor=#E05243;gradientColor=none;" parent="CCC-XVfhaCt7SHkQT_ky-1" vertex="1">
          <mxGeometry x="513" y="-270" width="60" height="61.5" as="geometry" />
        </mxCell>
        <mxCell id="CCC-XVfhaCt7SHkQT_ky-34" value="" style="endArrow=classic;html=1;exitX=0.75;exitY=0;exitDx=0;exitDy=0;entryX=0.5;entryY=1;entryDx=0;entryDy=0;entryPerimeter=0;strokeColor=#EA6B66;" parent="CCC-XVfhaCt7SHkQT_ky-1" source="CCC-XVfhaCt7SHkQT_ky-31" target="CCC-XVfhaCt7SHkQT_ky-33" edge="1">
          <mxGeometry width="50" height="50" relative="1" as="geometry">
            <mxPoint x="300" y="-180" as="sourcePoint" />
            <mxPoint x="350" y="-230" as="targetPoint" />
          </mxGeometry>
        </mxCell>
        <mxCell id="CCC-XVfhaCt7SHkQT_ky-35" value="&lt;font style=&quot;font-size: 18px&quot;&gt;ML&lt;/font&gt;" style="rounded=1;whiteSpace=wrap;html=1;" parent="CCC-XVfhaCt7SHkQT_ky-1" vertex="1">
          <mxGeometry x="330" y="-350" width="120" height="60" as="geometry" />
        </mxCell>
        <mxCell id="CCC-XVfhaCt7SHkQT_ky-36" value="&lt;font style=&quot;font-size: 18px&quot;&gt;推理&lt;/font&gt;" style="rounded=1;whiteSpace=wrap;html=1;" parent="CCC-XVfhaCt7SHkQT_ky-1" vertex="1">
          <mxGeometry x="585" y="-40" width="120" height="60" as="geometry" />
        </mxCell>
        <mxCell id="CCC-XVfhaCt7SHkQT_ky-37" value="" style="endArrow=classic;startArrow=classic;html=1;exitX=0.5;exitY=0;exitDx=0;exitDy=0;entryX=0.5;entryY=1;entryDx=0;entryDy=0;" parent="CCC-XVfhaCt7SHkQT_ky-1" source="CCC-XVfhaCt7SHkQT_ky-19" target="CCC-XVfhaCt7SHkQT_ky-36" edge="1">
          <mxGeometry width="50" height="50" relative="1" as="geometry">
            <mxPoint x="-90" y="80" as="sourcePoint" />
            <mxPoint x="-40" y="30" as="targetPoint" />
          </mxGeometry>
        </mxCell>
        <mxCell id="CCC-XVfhaCt7SHkQT_ky-39" value="" style="endArrow=classic;html=1;entryX=1;entryY=0.75;entryDx=0;entryDy=0;" parent="CCC-XVfhaCt7SHkQT_ky-1" source="CCC-XVfhaCt7SHkQT_ky-33" target="CCC-XVfhaCt7SHkQT_ky-35" edge="1">
          <mxGeometry width="50" height="50" relative="1" as="geometry">
            <mxPoint x="520" y="-280" as="sourcePoint" />
            <mxPoint x="570" y="-330" as="targetPoint" />
          </mxGeometry>
        </mxCell>
        <mxCell id="CCC-XVfhaCt7SHkQT_ky-40" value="&lt;font style=&quot;font-size: 18px&quot;&gt;图片Bucket&lt;/font&gt;" style="text;html=1;resizable=0;autosize=1;align=center;verticalAlign=middle;points=[];fillColor=none;strokeColor=none;rounded=0;" parent="CCC-XVfhaCt7SHkQT_ky-1" vertex="1">
          <mxGeometry x="403" y="-228.5" width="110" height="20" as="geometry" />
        </mxCell>
        <mxCell id="CCC-XVfhaCt7SHkQT_ky-41" value="" style="outlineConnect=0;dashed=0;verticalLabelPosition=bottom;verticalAlign=top;align=center;html=1;shape=mxgraph.aws3.bucket;fillColor=#E05243;gradientColor=none;" parent="CCC-XVfhaCt7SHkQT_ky-1" vertex="1">
          <mxGeometry x="615" y="-351.5" width="60" height="61.5" as="geometry" />
        </mxCell>
        <mxCell id="CCC-XVfhaCt7SHkQT_ky-43" value="" style="endArrow=classic;html=1;exitX=1;exitY=0.5;exitDx=0;exitDy=0;" parent="CCC-XVfhaCt7SHkQT_ky-1" source="CCC-XVfhaCt7SHkQT_ky-35" target="CCC-XVfhaCt7SHkQT_ky-41" edge="1">
          <mxGeometry width="50" height="50" relative="1" as="geometry">
            <mxPoint x="480" y="-330" as="sourcePoint" />
            <mxPoint x="530" y="-380" as="targetPoint" />
          </mxGeometry>
        </mxCell>
        <mxCell id="CCC-XVfhaCt7SHkQT_ky-44" value="&lt;font style=&quot;font-size: 18px&quot;&gt;模型Bucket&lt;/font&gt;" style="text;html=1;resizable=0;autosize=1;align=center;verticalAlign=middle;points=[];fillColor=none;strokeColor=none;rounded=0;" parent="CCC-XVfhaCt7SHkQT_ky-1" vertex="1">
          <mxGeometry x="650" y="-290" width="110" height="20" as="geometry" />
        </mxCell>
        <mxCell id="CCC-XVfhaCt7SHkQT_ky-45" value="" style="endArrow=classic;html=1;exitX=0.5;exitY=1;exitDx=0;exitDy=0;exitPerimeter=0;" parent="CCC-XVfhaCt7SHkQT_ky-1" source="CCC-XVfhaCt7SHkQT_ky-41" target="CCC-XVfhaCt7SHkQT_ky-36" edge="1">
          <mxGeometry width="50" height="50" relative="1" as="geometry">
            <mxPoint x="460" y="-330" as="sourcePoint" />
            <mxPoint x="625" y="-330.6346153846155" as="targetPoint" />
          </mxGeometry>
        </mxCell>
        <mxCell id="CCC-XVfhaCt7SHkQT_ky-47" value="&lt;font style=&quot;font-size: 18px&quot;&gt;核心云&lt;/font&gt;" style="text;html=1;resizable=0;autosize=1;align=center;verticalAlign=middle;points=[];fillColor=none;strokeColor=none;rounded=0;dashed=1;" parent="CCC-XVfhaCt7SHkQT_ky-1" vertex="1">
          <mxGeometry x="5" y="-208.5" width="70" height="20" as="geometry" />
        </mxCell>
      </root>
    </mxGraphModel>
  </diagram>
  <diagram id="EyKcEpHQlpiAEI3VS66q" name="Page-7">
    <mxGraphModel dx="954" dy="615" grid="1" gridSize="10" guides="1" tooltips="1" connect="1" arrows="1" fold="1" page="1" pageScale="1" pageWidth="827" pageHeight="1169" math="0" shadow="0">
      <root>
        <mxCell id="Tt9E_PuKXi1-dNqv6SaU-0" />
        <mxCell id="Tt9E_PuKXi1-dNqv6SaU-1" parent="Tt9E_PuKXi1-dNqv6SaU-0" />
        <mxCell id="Tt9E_PuKXi1-dNqv6SaU-3" value="&lt;img src=&quot;data:image/png;base64,iVBORw0KGgoAAAANSUhEUgAAARYAAACMCAYAAAC5x4beAAAgAElEQVR4Ae3dCfS/21T4cRVuasXKYhlW3UUstTQsZBlqSbjLbBmTwiIh8yzzUDRPKslU0YBkCpWEkIpClFIkSUqD5nn6/Nfrcd9f+z7/z+8O7v39vr+f73PWej7nnH323mef/Zy9n3OezznnudBuC5sGNg1sGriANXChC5jfxm7TwKaBTQO7zbFsnWDTwKaBC1wDm2O5wFW6Mdw0sGlgcyxbH9g0sGngAtfA5lgucJVuDDcNbBrYHMvWBzYNbBq4wDWwOZYLXKUbw00DmwYu9L//+78HWvif//mfvWnA//u//9vNcrBolRWkg6/pwlvzgl/ZmjY4XrP+mY4m3P/+7/9exIETLPziyS/6KUd40YdTm8QTNvNo12XxgyeUj/+Z4IUuGJzSs7y0uHrit6aJvvLw41G5PL0pDzeYePKd5crwmHzjWRzOjCd+/Ge59BZOXQ0cjFjqLOLSmlWnqZOI/+u//ussLQYLLxrx5DP5xgtOHax4TbcvHz1DKP0f//EfUM8i25/8yZ/sXvKSl+x+/Md/fPfnf/7nB3WR5UMf+tDuK77iK3Z/9Vd/tdDljGSSpRj+bB+cf//3f1/o/CgPt3jiKy/M9MSJT3jrGN94T1nhBf/oRz+6+8mf/Mnd8573vN2v/MqvLDKrQ52z3nijU16IT/loisHDnzLM8pme+PGcMVzXPjnWfCbdlj75NXDgWP7zP/9zkbabLF7f3NmZlLuE4OXrMMriUYdcw4IXK4+PdCGeE09Z/KWnHH/wB3+w+7RP+7TdbW97292d7nSn3dOf/vSFVfgf+MAHdpe//OV3f/mXf7kYC/isN7x1fckjVoZm4sh/wzd8w+7v//7vD1Dju8YLobrKwwu3uLLaWL5y8D/90z/dPf7xj9/d8pa3XNpdWbji7vOsE235dXvQ4OOCE96EV0/tVDblLI02/tHALUzewbb41NTAhbqZ67hOIu7SxPAqr9PU/ODylUUTfTjiWQbfBe7a1/nwAI9HebEQv6c85Sm7r//6rz/In1l8EE36gNVXGV7BwlEGHg54dYZ7iUtcYvee97znoB3RruVe86/tk2f1VEe8jBrXcoT7S7/0S7ub3/zmC2qw4uirI75kSz7xlE2+gI+yWQ7WBa+64JSOvnJlQvXO8lk24Vv61NHAMmLpRtYJfv3Xf333JV/yJbt73/veu2td61q7i1/84rsnPOEJS2fSNPjPf/7zd1e72tWWUcH1r3/93Wte85ql1T/zMz+z+9Iv/dJlmmHEgMdVrnKV3aUvfend2972tgWHAT3zmc/cnX766bsLXehCuy/8wi/cvexlL/v/tGYKo95/+Id/WMoY0+zkM53s//Zv/7aMGPC+8pWvvDiXu9zlLrv3v//9i9zqfuhDH7rU+eVf/uXL1Kn2q+QnfuIndl/wBV+w0L397W/f3eAGN1hk/N7v/d7FSP7mb/5m4X+pS11q99mf/dm7q171qrvv+Z7vWeTjTH7oh35owX/Uox61+8Ef/MElb1QkJC9ZZ51kMsL64i/+4kUuTvFf/uVfdl/2ZV+2wK55zWvuTPXQ/PAP//Duspe97O7TP/3TFz2/4hWvWHjHT2wadOtb33qB+6nst3/7t3df9VVftdBe4QpXWHglVzgHRKsE2R/0oAftrnjFKy7to9M/+qM/WrD+8R//cXeNa1xj97Vf+7W77/u+79td73rX2934xjde7qm2/tZv/dbSB775m7959+AHP3jBvfOd77x75zvfeVDLrL9RVfo6QNoSp4wGzuJYSO1m6ugPe9jDlg74q7/6qzsd8rM+67N2v/M7v3PwDsNT8Y1vfOOOoZnTMzCd41//9V93t7rVrRbjVc5xPO1pT9t953d+5+6Rj3zkQv+c5zxn4af8n//5n3cveMELlrp+8zd/c+FBhr/+679eYAzohS984YFR1gF7z1M+jZP9TW960+6ud73r0tFf+9rXLnmGWvi7v/u7ZURBtqYs8SH/L//yLy8OU5te//rXLxeeAr3c4x73WNrxsY99bMdAnvjEJy5l733vew8cC9j3f//3Lw70b//2bw/kz1iqDyGY/I/92I8t9eIr/Nqv/dqigz/8wz9cpjAcLWfmnvzTP/3T7qd/+qcX/XoQ5FjRvfrVr97d9KY3PagTb9e73vWu3S/+4i8u75ve8Y53LLw/8pGPHNAmUzGeyYuv+8wZ0N9973vf3cMf/vCDcg8G+rzNbW6ze+lLX7r7ru/6roW/e+d91GMe85jdhS984cWxcHz3uc99lnI6E9TTVVtm3QvS9nPKaOBgKuQm1qGkPaF1nm7yve51rx2HwHAFIxSdw8jmi77oixaD8PIQD4b34he/eElzDF6cMtYzzjhjoTXSufa1r704G09ndZ122mmLgVaf2KjoqU996jJiSTYMShdHszA/80fH5sgE5eHWWY1sjKh0+srgKs+RcgjRi7Wdo7rYxS62u//977/71m/91t1P/dRP7RinkLPjhI1ehHgr84R/9KMfvVxGYuQzsuEIyEgmtPKCJ7yrkN6MkL7jO75jMV6y4CWoi/ycvtHDWi+/93u/txi4l9acpva/6lWvWmg5L07zcY973O6xj33sIpv4la985cIX7+c+97m7O97xjsuoyojQCKt6jUrwM7qsXm274Q1vuOSNtIx+hcq1R1vSW7wqX5C3n1NSA3tHLDoRw9R5M0RGYJgvePH5GZ/xGUunNMzXKTmQhvye4i9/+csXQ2xUwCA9RRknZ/Q1X/M1u5/92Z9dLk87juiP//iPD+pTjyc32AwZ6oRJz84obbSgYwu1IVqxkQnZDOOjD8/IzHSuMHlznkYIhvwMj4FyMhPnMz/zMxfHUn3x+d3f/d3d7W9/+90d7nCH3e1ud7tFB/RgJFLdDPAmN7nJMpIin3+2KjOlhG+ER1/0Z3RA/0IycCw3u9nNFli0jNeUkyH/2Z/92XKvTF84Fjjvfve7D+QhGweiLs5dO0zr1G+kY5T6ohe96Cw6+o3f+I1Fn0aG1akuDxN598NLZSG9KNPPgkUnP53NgrD9nFIaOFjH0s0mvRts6vKkJz3poDEPechDDubkhtPm+Z7o/olQxrF4cuPDsXAWnAjj8JfuG97whuXphaGnolHO7//+7y914eFpyCCq31AfratpSGUZkPyUeyE+E2Yq8ohHPGJxIOtO6n2FJ6snrGE9HvHRdkbCsaDrb+w6/T3vec+DKR2YUdznfd7nHRgTGRgwJ6z9nJS0KVc8qmsdK4dHLi+ejfwKyrTJe6PebdAbp+R+CPipk7Pxb5h3FdXxF3/xFwtfUxl1oKPbn//5nz/AmXVJqzNdc9Leq3AcRmPXve51lxFL/OnMVMd7GO+LPFiMpsgicCzqU6/3XT/6oz+69BmjWTIL8Vqnl8Lt55TSwFlGLN1YhpxRM3ZPRo5Dh3/zm9+8GJu5tDw8c+3P//zPX9K9vAQ3f/ZOwJPK9ALMewTG2hwbDB+dVodNBkbBuHXWXvpOB1FnrBNmtIwmnkZVLnlPabxNXYIlv7Z5IuPhpSP8LmW9IFX/Ax7wgN1FL3rRpdyLTNMB+sLbxRBNH7QbD8bFwfVCcvaOjHa2C49v//ZvX2i9E6l9Yu+jTEnJhDf5OSBTHAFdZckv1nZ1xRfdLW5xi8X5KPfOo5BM5cVg73vf+5bRGd2ZrpkGojWlpTeO5XKXu9zugQ984M6/YkZtHCFal+muUZC+oH4vj625Wd/H6u1+lt/iU0sDF3IDXTp04Vhp5XU8NIxYx5iwOsTkEd9i+IyJsZk+wZ34dTa8WohWHRNXuvrwjk66sskXPD7FYJPHTMORd4VvJCV4cjf1m/UuhWf+mDLMMGWJX+XVJe9diymQMOUJl2O2wA+/SVf5jKOvDXibBgqVSScbWOn4TMfXgsKJRwbvWHqHEh0+1fvd3/3dywg43sXhTlnA1vnwtvjU0MDeEUuir29+xjDhdYAJqyPWqfALTzpc/OJZXN2MddKveSibfPYZ96xz0kdX+ZpW+YSRbeaTUZzceMVPXB2Vz/zEK41X065GN5WJ4yMuHc/wplzKJm40cKKTnrzXZZMe3qSrLjicv1GrkQwHMpcOoDFlMzW7znWus0yJ/PtX3crXfNXVVT1bfGppYHEs6043b/TsUN1ssTDpZjoVhK9s8qy8eNYRTFw9xZWt8+DVr2w6gdKz/n30lWfU51TXuh74eEze8VTG2U4ZJ570zMMvv+axlmuWo5kyVF84ZCitrCues+3hKZtpeTpNPnmjOFPglhXYRtFIU7mpmKmQF96uprbK1kFdyb0u2/KnjgYO/m4m8uxAbm6dpxhONz3c8pO+sujKT/qJLx2udM5gDY8PXPWWh9coKRo4lcONZ/JWBn+m5YXole2jmfLCh7eGfZzT//8bv0omHT5rww1vTbeWTX4dopllsz7pdINWfpav+c38xJv8q1MMR7y+P/iEF89wZ770Fp9aGljesRB5dgydoE5TXLPC0ylmx9hnDMrDF8dLHHzNV175xJn1VB7dLJv8K89owiuuPJrkEZcOZ+al8YhPZcXJHq3YSGBfebiT36QDDwccD1cyhxtv+VmWjMHTxTTyysRrONgM8VNHda7jyWNfu5IhvrVntrOy6iu/xaeOBs7yjqVO2Q0tL153iMrCXTe5DgceTvHEXcPqmNHP8mDFlSULvrMseLBidKXRhAdeuvLq0P7KZj3S6SaaiadcqCx+Z4IPojVN+JP2APlMfmjCi16cPPDV17XmFW3x5AG3/DnRKReqF13tLO6+nol6Ft7Biid9sC0+tTRwsI6F2DpYnUO+TnGsWAeYnW/Oq9edFb/ZYZRP+vDVVX3+BrWYbB3Qha+sdLJMvvGaPJTvg4NNAwhn8g2G30xP/lt608BR18DBO5aMk0Jmep3PmDI25dL7DDLlogl/zTv6cGfe+hmrUI9FywkmD7o17/JkKz0dJ1j0leMzcWoXGcKdMkpvYdPApoGzamCZCgFNwyrPwDIyhpWBTyOLTuzK+ILDLV2ZePJSXwYsXZm0MOnOBJ0FJ/7F8Y9PcbTiiRv/2qp8pifupN3Hd9axpTcNHFUNLFOhDIsBSbv8JWiviCMTXFZK2m0rwLPr13Z+qy+tLrXnIwO0bNt+IDuMrVkw6oBn75HVuJa8u2ww9FclPo4IEHMwXnbaKGfZ/zd90zcdOJGM3d4YKzjxtHbChru73e1uB7JZLWyxlhWeVoDas4KWI9A2Wwqs6lVuI1xnl9QJtIPcVsxaPi9f28LZ4k0DmwaOrYFlxDJHCxmQM0k4CAZpFSjDt0NZuQ1rjNoGNXtuOCFL2K1RgI+fZe1wbNJ73etetywb71gEZ7Fc5CIXWTazMfS3vOUtC257YDgAe1tsdGs1JzzBal9Lxu3ZsRkQT07K2SroyGZZO9ntA3rrW9+6OB+yCRZvWXpug6O2WHthWTqZ0bsES/Xxud/97ncwYgLfp6uFYPvZNLBp4EADBy9vM6hGBY44NOqwq9m+EAbJEOEZaRgJtHX/277t25bDezz9C3bB2lPjXJWclTJpxqmsTYdWbRod4F398OxLcjDRpLdpjsMy0gn3wx/+8LIHCJ6Nk0Yx9sUYqRhJcRxXv/rVF/6d83L3u999OcbRbmKb5taB03JkQc4ux1Yb0teabstvGtg0sPv4t5sz3IyFEVmGzfA5D4bPkdiur4wTMErwctWowkpL2/iNDuJlV69RRCHe5e1uvdGNbrTsfLbRUH1rHAdBfeVXfuVCgq+6OTiOY/4DNY2ebEYbTrIjb/IZ2QhGWI4vMGp68pOfvEyp7E7Go9GIukzH7MLlvGpT8q3ztWmLNw1sGvi4Bg7+Fco4Mx7Gy3EEt/vYzl6BwzFNcJIZIzPlsAPY0x89GrtdjXhsegPLGMXypjR2yno34vDpytEqt2/Gexzb8xl5Rm/jnxGLw41s8rPj18jk677u6xbZnPui3PsgPNXD8dm9LDh1zeFDbSC0o9q0bJ77QgZnx+BjdDbDlHPCt/SmgU0Dn9DAwb9CORBFDPsyl7nM8t6Eg/FOwujCu5bwnHrP8LwAFTvn1DsYtL2sBQ/HFKaQcTo9TrkXusGMRDgwfOPNiUnbQSt4p+Nlcvy9ZO6IASOMZzzjGQdlcJzJ+wu/8AsLrZEMfuBGXdpmH4tAdhdZTIPgOAO3kIzpoHzlW7xpYNPAxzVwMGKRZTAZi5GAtNGIU9YYXKFt94zYS9by8DO6cGccbzB4RiUf/OAHJ8qSVjbrA5z53q14AdtIZs1EXbb4N2JKLnDOy2XUUl2Vx0cdeAdP9ilHuFu8aWDTwFk1sIxYMlRGMw1HOsM6K9kn1oGATxwGiG4avPJwqmvyq86MV5l0NBN3X30ThiY+plAzTH7hVPfErSzacORrF14THu4WbxrYNLDbHYxYMqaMr5iSpLvCKw6PkQUrngquHP40SOl5VV84Ex/fWd/EmXVJTwcQDXiyTb7R4jdx5Sef6pt8ot3iTQObBj6hgYN3LBmcogxowj5B8onyjDB8OEYkwScv6TW/STfT0RebzswQvBjfeAeb9SkLrp5ZV+no0eVMZp2zfKYnzpbeNLBp4OMaWEYsTU8YGaNxBcuIMrYMdCrQNCJ4hlq+GHyWxTcYfmDwwaILr/Ic16QLFw74pJlyTpr4RTvLZhqv8uLki37y39KbBjYNfFwDBwvkMsaMKIPbp6iMi5GHD6/0NEbweEujXfNe56sz+JrfrGfynvKEUxyv5Jl0Mx1edMkiztnGY5Zt6U0DmwY+oYGDqVCGlJHJZ2TFyKZxxQbumj4+cCqfsGiDFa/rqO7iyS8eU9bK4UeTbOGHE7w4eHhkmnLFb8LC3eJNA5sGPqGBA8fyCdB5SzG2aZioGZ79Py1KA4M3DRJNVzTKM96kiPeEg1mw56/wwhov3pNuOsXwo+9foeBT1tKT1z4YXsHju8WbBo6iBs63Y6G0jGkanu/39MGtadApOUPeVwZn8oqmehi/jYg+eCaAVya/zzms+YUTb7H3SMHhu8pP/pNGepZVj3aVXuNv+U0Dn+oaON+OZRpPafuAfEjLnh1fwLNKt6/1wWHAPlzWR87gWZmrjEFauGaZ/6UvfellX5DjE2wqFByZYCRkVazvINu1bCuB5f2cgMvOZnuMrLC90pWutBz7YNOiD3vZZuBToZbqW/hn46TLJsWc3I/8yI8crOx1fINVxfY+CbWR/DZn2jIww9rJzbItvWngqGjgAnMsGZz4ec973rJ3h8Ng9Ay1Jf2M12dJjTjsNWKYPsPJUdjEKPg4+Td+4zcue4SUO28lx8LAOSpOw7eTbSZURx/S8slOe5A4IEbOoeFtdTCH9uxnP3vJW7Ur9NVHe4Xg/8AP/MCy81ob8OjLjo5+aJTl07J4un7u537u4O/p/jlbGA8nVH6LNw0cFQ2cb8dCUQyyKUPG5/OZRh0zZHgOWXK+i49b2UD4Ld/yLcvIxMZCvJx1a4+SPUOOb7BxsE2D8XPsQt9+zqnhTw4jjBvc4AbLiIajsCExHGtinB3zmte8ZhmhcE6+S4wOjvNjHANRII/9Rb6NU4BrD5HvW88Ryz49RLPFmwaOkgYuMMdCaQzOJTiuwNfvBAYbnPGZ2pgqOWrBDmojFschtMPY6MORCaY8HIupSk4qB+FUO6OX+FaPcny843Hkg/c8RjdzAyW+N7vZzQ4+DM9pxMcRCkZYOcGlAeO9TdMle6kcqzDrLR3NFm8aOKoauEAcS8rL6OVNEexAdv6J0QbH8epXv3oxYIcxOaGuQ5Q+8IEP7LyXMVLheO573/suZ8A0+nnWs5617ELGlwNQjw+yo4H/zne+c5nCqAsv57s4c0VQ7l0NByYtGGWYxvhnieMBz7E4tvLKV77ycjIdJ+Jj9l/91V+9xAvxoOewTJEK8S8/9RFsizcNHAUNnG/HkvFkVBmoj6YbsTBg552YnjiVDZ6dxc6yVeY4BAZ65zvfeTlWktIdO/k5n/M5SzkHYoTD6cQbjjNhHD6Fh2mT6YxpjpGJdyx4Gn2cdtppO6fFJV/yGs2g9UJXyGHZce1gq2TjZIxwODm08XHkAtmNmoItjMbopvwWbxo4aho4347lnBTmpSljncbHiI0GwI1mGpngxXg5JTj+yTG6mNOS6VzwtJYFLP7oq9MxlMeiheNF776An/K5TiY8ZS71uM5vwEtYx7Xn/PI/v/TkSLbZXung57eOjf5TTwPH3bGcmw44O28q1mlda8cwO7fyfQYYDO4afxpDeNW5jo9VnmyT95r2vOarS9x7nCnreeV3QePX5uLkvaDr2fh9amjguDuWtZrWxpJxgudEpNdOAR+wNX358PfhTBniPWGlK4tn8H0xnHODt492H2y2fV/5YcE4EDoVcia1u/xhybbVe/Jq4IQ6loxxHU/1TMdQx4U/4eHXwYuDi6tDek2rLIOZtNJwK5M+3qHRiXpKJ8eU7XjLcW75d0/OLf6GdzQ1cNwdyzkZh3JX71ky5jqwvGvNZ+ZLF7uVM11+DTuZbvmUzbunkymQrfuSnN2fk0nOTZaTRwPH3bGc26bOjnp2hjU7ebxzPHV68NIZRLjByxcfC1758YrX8s16pk4m/ESmj6WXRlcnUpatrlNHAyfEseic62uqqPcLYHVk8T6ji0/04Zdfx2vjjC/es0w+Xus61jwv6Hzt9JUD+5z8HX8yBU5k6sfnU3zeZervZJJ3k+XwNXBCHMu5aWbG1ZPQHh0fGZsdem3w+8rA9nX4NW0ygVd3sBMZq7/QZ0v81b2vDeGd6DhZ0pONnBYGTtlPtExbfSe3Bk46x6Kz6sj3vve9l29DU18dGFy6fDEcnb4rlWcQ+2jgVr7Gj9/kP3GlM7Joi8HRTXxlRmVTDtM9+fjE08K89f4j9PErjpe4UBpOeOuY45540Rav8YPn8MuHJ18bpOMtnunowNLFxJ/8gkcf7RafOho4dMcyO5QOx6jsWLZR8Q53uMNyLIKNhD5IpgP7FrMNjDYLWrb/9re/fTkKwepcT1FfVrQq1rEGt7rVrZYVv45WsLdHUJ+tAFblMmJHKNh5PTsxHKuEfa51/V3n9fufjMpCP3uayO1DbIKyO93pTsvxEVYWC1YQO6LBymArhm1kVJ/6vcAGt7PaR998aM2xE0YwgnJ7p7Sf7Ne61rWWPU/JbkGfVcOtWj7jjDMO5Lcq2Sdv0dpV/sQnPnGp39EVH/rQhxZedOrDdOS2u7wjJtoe8cIXvnBpi13r3Y9FsDMdp13nViqTzTe3bYVoZbI20OfFLnaxpfzmN7/5wSZSPNJjuojvFp+aGjh0x0Jt01gZh2kQA7BRUWd1LIKl9zqfDuqMFCMandCT1AbFe93rXkuZ4xAstbcVwEZEDsaZLPe5z32WO2S6waA5DuexMBaGYAe00Puea1zjGgv8oQ996IHhLwjHGD2Qxe5szrCzXzgb58RwYvgzMvuYvEdRty872pbA8Ql4kIWT9FlYGzk5vgc+8IFL+Stf+cpl3xNauHaGX+c611nK6MZnZunGcQ8+JMcJaatNnco/+tGPLru+bXmwBYI8do7j9453vGNxak7+E9CgffnLX37wNzjd23ipzje84Q0H9XJs7pld447EsAdMm9wHzt49uuMd77jQve9971vkeOQjH7m0vdXN2iPglZPJYS4F288ppYGTwrHUqXTA0vYSMcB1YPheHDJATsSyfB3YR+UFnV/eOSt1TJ9XBTNqYRSe3EYKRj+ObmBAjLBABgbGUfj8a6EOXxxcDOYYB7y04/TTT18cHrk8pTlPB0MZkajXZb8SB+ZSJzrlc1+UtLbaYGmLgrS9T0YcHG4bOTsjhmPzyVhOh/OAb6e4oA6fo+2TslN+dXPkHV3hWAkjFvB1cIiWUU/6Vc4BqjPdqItjd3/cJ3JwfM7Vcdnsqa32fEUz65q81/Vv+ZNfA4fuWOpUU1VgRiSOLyiA6ayFW9/61kvnZDwOhtIRlYt1YqOBOueb3/zmBWYPkl3VDo6y+9o5K2I7n+2KFqrDPzPvfve7D3goI0PyruOMwuiEQfmoPCfjCW7UA99UwDTCSMRIyY5vdfdNanVzgKZ38be7WntMETlNIze7vTkpUz1TGc7WaMRoyNk2RiF4q8M0z8ipcLvb3W5xXPFPZ8qNYNSlnute97qLbqJLl2JTnEY2yvGwk52jWwf1GP3gS+YXvOAFyzEZxR24lTzxm/Ga55Y/+TVw0jiWpiAMVOf1Ufa73vWuy5PeU9nBSkYEynVkc3xPPB12Go4yMIbtXyVTHu8r7n//+y9348lPfvJiBJ2l4uwWI6M+aI9e8H4Cf0c8kGfd8eGBZXBowIxCTDVMDTgwsjRtaPRBJu01TTK9Md0TGDT8W9ziFkv7OBh/7ZJf4LDsEkenbu8+OKIOoTLC8I7J6IUs73nPe5YpiVEXOdVpRGN6I50zhFsb6Y3cHEWbQZUL3vG4TLde+9rXLvcmHvSEJoejjTe+8Y0PTgU0tXU/yT5lM20rJEf5LT51NXDojoXq6pwZrw7G4A2vGRoDN0z/yEc+chZNX/Oa11ymMNErNNJgbIb0Ojp6L1A90QXTISfT5ZTg4s344iM2CkLrRWpGd5bKV5kc49ve9rblmAjvEowYjCJMg+JtFIYvuNhLToYucCC1NfmMMEyB6KT3QWi9h7n85S+/vNxV5nJkBH74apf3Nw9+8IMXh9WoTVm8vWhO5znInN+chirj3NE6AiN6eY5K4BTTGbiRmWkmuQSOvHOIlXvBbCTXOxZ1dMGXTraFwfZzSmng0B3Lvs5TZ6RJ7xZ6uTvhpgQMLIeR1hm4jusF6pp3ebGnsSE6/Ml34uQMZnnp8NQbLBkaDaHnDNfl8l6uMsZj8fEvTgvlJj3HqAx9cEYoFJs20YtysPDgzPrCT+54+Jeoutc4OdBo8Iu/2EWv8RJXjleySU/epc9Jvurd4pNbA4fuWKinTiaenXDCwyuQwKsAACAASURBVDMF8uLV093fyvM9CHzvTTxVzedNR3RUl7KjHHKSGe7x0En3rrrS98xXf7jlww0uvy4L5+ziffc5PpWpI9jZ8ToZyqbMUzelldeW4miKD6Mdh+5YpoJSANhUSjhix1A+7WlPW4bZ1rf4m1SIxnSB47H+Ax5l4zX5Vc9RiWt7ukifF1T7J994F1cHHJcw5VmXR1dc+bmJ4ztHuNUZv2L8Zvrc8D8ZcPbJrN1dtWs9sjzRsh+6Y9HgOsS68WennBRcx4l2dmDpqfBwjlqcjopr/7H0Xvm5ieNZHE9xsPh0z+TX93biznS05xTjHf9j0QcXJ+c58T3scnIa8SU7eUrPNtT2w5a3+k8Kx1Ino6ipLEKmsAkPRsEpOR41rHjSBTtK8br96Y4O1mWfrF7w6T6I59QHz8qqu3L5YPAmXH6WHUu2iaOe8usYPTlrc+XH4nuywNMd3ST7lC1Y7ZGPZuKd6PShO5YUo+EpJCWJlYdTfiopmmBwog92lON0t9bBWm/r8nObj//kN+9ZfOY9gctQ+pcv2nhFE7z8vri6Ju26LnRgEwdsnd/H/2SATT2ck8znVH6i2nPSOJapEGkdwV+f1lQI/UshXceZcempuJ6AE3bU0nVK//T4C7nvXV9Quknv1gHZPuHfKiG4tPvpUmdwCwP9lS58+MMfXhYS9sWEBXgef6yu9uLeh/L8Izb7kzqVWTho+UAynMcqDgXdP2z06t5Z7dz9tJ6oUHv8sQHPGiIheHgnMj50x7JWQB2CUqwe9UXDfSHDCD8+FJ/y99EdNVi64FCspvVvWTq7oDoePtbnWHVs4dzZheSxzuVVr3rVgmqjp0V3FhfilVzFZ8cvHAbV/iMv+INrq7/nrWuypsdSBKHys+N9MpR98IMfXGS3ypojzqGkx2SU9yC2KNEG0nV5eCcqPikcS+9HutnFGUBKypmsy8unNHR4Rh/8qMbpzadjLVoTLijddG/wszP69a9//QF/96V6Zux72hb4dd8R2BHe97nhxndhdg4/E9cObVsTZqh/WGhoVXT5ZJq4J2Na++yp4lyE5J/pdGB1tg25h922Q3csKYSyZtrGPE81SqpM7GgCq0s/93M/d/k6oqX6Vpne7373O6A3HHY0gaeTJfCG6d0EPPxFbZOjPS924eqMVufW0fvyIr52SfuCY/RLYrdbhu6MYa4cVeaGdlNneyrzVGnntHU49jx52qKxRJ/BaaMRhi81aoMl/oIFdY6UsD8InPye9B1h0Kpiu4zJbkcxXp7Y2u1veJ+WddyCVbm2N4ALnoQ2biabjZN0k1OCR3b8rLwl+21uc5vdc5/73AO9cyyG64bi2mEZPxoBfXqBZ1oyYUZS+FlNrW66VXc0+No8qm6f1+Uge3rjn67Va39VMPTxaKNmuBNuNJNeyZFzCid+6Uvezm1t1H9s2hQsALSimR4tdxA4UvfJPbNXzSbQ/hJ37/VVm0Nt4dBfLfxcPwDwJ9eUhyxWWz/oQQ9aZDBSsfrZl0Rr4yLAIfwcumOZbU5pYvt/bNazDHwGHcwNsjDOcnK7iA19wexD8S6GI4HH6J///OcvnTxF223M6GyY8xTQyeV7keisFh3bnheG+opXvGLh3bEKyaY+ndzxBvHOMc12zLSOg+6pT33q4jh8s1q+/UgMxbsQsNNOO215X8AJegoJ1u3Y2Mhx2mNjNzHZGS8ZbnnLWy7G532D6UV7lbSDbOols+X9Nj7ilQG1AVFdVjszzote9KJLHequHA8OULs9/U0xBO00bTW9sVTfAkay1/4Fabdb9MoxTKegjA60xYjHHi+y2eskuNd0Yr8Y2TiunAv+6Z8jYtA5lnXd+pQ2wYsGf8bISds1b99Vu8LnHjR4OZVijt700n2hX/dB/6Nb8up/9TcPBDu9PaRsNbG7W+Bg7BeDz0Hhof/SQYGs7mkjluA2cPp8sF3jHgr6Az428B52OHTHQmlu1LzRlALGANxwNy0cu5DtkRF4fvNqtG4KwxU4DF7b06v9Rm6CjmY64OlUsCeJsTE+dXgqemo61gCuSyd/7GMfu5SjU58nLiPT0fe1Aa+CtLof/ehHL4c3zTIOzLEGs/06hz1HEw+9J6EnWfXh76UkY2AE2oFfL7rFOn2jDqMA+soBOn6BI5E3YjDSMR3RdvlrX/vay9EJ6nGAlPn7DO5PLwrxsIGRDJe97GUP6oRffdJGUXNFNJi20aU6CjYsGg0JjJAjMeLyHkY7HH9htDD1ph4jqX0ODR4d0W1BvcHaYa7MCM+I2GiC8+Bo3DsOU/oxj3nMgcP14KJHDzW89QsPRN8EFzheh1rNoF10XXCv5U3VCvPeSxuxGG2SucvOfH2TjIL26/dG47OPxPNExp/Q8oms9Rh1UWAXFKMEQ8gZ/HNgyCowms5R4RB0co7Hk7TjAuTd8EYkDMcmRIHyexLrTIKhqs7fcQqezC9+8Yt3NhUW3ECOyos1YXbujDjcGeuYPXXWeDpLvAyF+3clenoxOmt4HT644MmonY1AohNXFyfZoVLg9JDxMmpO2MplRxrYGOmfm7e+9a0LK4dNeXlYfTmLYkgeAvTLIfVEBk8/pnccD2ecTLXDcQ/ahj989fkHR2DMTqYjm1Ge++H+MMh1MFXjWGaIp3tGtwV1u69gRkVC8hhV2HVuZGVkbFRgBGjKwul5OOFrFELvz372sxcHAtfBY/SHFwdjSlvQbmVojFbwMJUld/WDCXBLe1iqv7xy/xZd5jKXOQvM0RwdgrYwOaSfQ3csKWo9NAY3JDTn9ORVDqZz+vdB5/Oxdk8PgQPyBDWUvNSlLrUMQz3JGQ9Hk6GC6dzezRjx6EDKeX38PWGMfjpAifNwpop/O+p0RjdodA71FTKg2hQcnUt71M3pcWScnqeLDozGpTPh6y9THQ/P+JLNOx9DdoFhOVahpy1d6diMBX//qpka1EE96U05Ck7V8z5JIJt6TSEFT3JDdP/2oPc+QTmeNnD6i5js6GuvUQQ8J9IZTfQvT+13L+Z7ndqsPo7FJWgv2RirQMfqNrLTD0wxOBeOiGwCB4ef93L6gfbjk2zwGp2QP4eo3P32jo2TcG+N2EzLOm4Cf3jd/3VfdQ/IZ0ru3RVazlOgL2WmePqYaaSRZ9MVfNGRoTakr4XBmC45ygN+9eeojeS8P2ra7r2kAPewwqE7lnXDdQYvYt2MjNe8uBsn7cZ5UcVjM1SGZSRgOOnmeNcA3+VJzBildSzB092UQkfvKII5fdCpoxd74nSSnJvl8nT3pGuEoDPMG5kzqDOqV9rwOt6G90YxDYGbIyvXRpendUHH1J7odUZ7ojIuTtB0RTk9MXRPeCHjpFMvE02h6E4bjPTI1pEO6JVx1r24xmPKfolLXGJxzl5WCr2r4uzcA8N2PLwrwjujXu9GR2uYD9dFTtMzae1ndHSZbOGpTzsERpW+yK5N8B7ykIcs5Zyl8srE9MDoBf2hIyuUGREbIaxDegbvXpPN+xPHQGgno/ZCXtoleHDg2+Wh1vGiRnng5C3ub3j0HgZk1ybl2YR3cYKpV7SXvOQll5EVPA/DwwyH7li6Wd2EbhiluGkzP9P7ysHgoHPjegKk4OoqD9dLLzdCQAeHLGgZQ0+HHA+85Ih/sisDK+BXiEZeHR3WJI++8pneRwumjpzRPnzG7tiIeIunLBM+ZQ9Pu5u378PNQU+eM42m9kTPMc9/kOBXd7jxKKanyuJj5GnE0b0MF1646xitEHydLm+U0UFUYFO+SatMSAYxncChN45OkI9OP8LbSCrYgnQmn9ohVm9XfKYsweIjrv7w4Mx0dZ2o+NAdS0qaDU5hE9ZNrKw8nG7KxJdOseKJ498GTw0n53MqRgWTH9qZn7SzjviDJVewaMoXBw9fvrIps3Lw8MOZsGQJJ/pwKw8+42iSQ1l1Rldd8SuvPAcaHzDpcIOXV55OJ6x0cfKUL5688QKvTDzrm/Bw4ys/0/IzTB3EJ97woq0MrLQ43PCUn1tYNPjEM1i6m7KWDqf8pA92ouNDdywp4ViKTGmVUxBYdN20FBe+fGXRlvdEN1Q0lepv5OjFa/x4gsdjH354lcWnGHzigFeWocrvqwNt8EZRYJNHvNb1yG9h08CJ1MChO5bZWMY1jaOyjG0aZWVi3jycCS896Uoz0gwVXvUqlw5vH19007jl1/TBJn04yVXc0yjnEnziJ2sxnGQMv7JZd2VbvGngRGrg0B1LxpBxaXzGLZ1xZSyVi8GmcU1jDz7pJ620UP3wZx3KJg9l4U66+JO/8mJllS+VDZ7hBC9Wpys6eMkx6w1n1hHesXhXxxZvGjjeGjh0x6KBGQQjKR08Azs7RUyaNY/o4TQikA6eQyuvnmMZ5houv4ZNOSs7Fl5yqDtc9MlSu5StcWY92rCvPD4Td0tvGjgRGjh0x8JopgFpdPkUUD4DC0d+Oovg0e0zNrzAp9HFP/p99cRTmUtY8wFTZv2JRVpW9c6QPP598EkQa2pmaMRlLYV1D/2lCCcHiL+/R60XWe9TmrzUNds1y7b0poHjrYGTwrFoJINZG/uEVQa2z2AyvBQ2Dat0tNZtWFwl3xXdjKsz+srQrEMOy9/AVu9a3m5LgeXcyqKxCMv+Dnug/CNl4V20eCq3JN7qVWsXrKeY7eWQrFuw7cDaib4IkDzVk+zBt3jTwInUwKE7Fo2dRsBBZBwpQvkapixYa0zKT0OEt85bVOTDXusQXvKQZcLinzyVFSu3Ua5zM8A5ifbTqM82BAvwlFk6b0Fb9Sm3EMx3jpRbvNf+HLxdVohaqCZYSLhe4j95LUjbz6aBQ9DASeFYMljtt6vTkmdL9a2c9GS28tUKzIzGYiurGz3xbcKyJsXiI8G+C18EtKTcehWG6AnfyMH+E3uB4Ng3w9CtdJwy4ONvaBv27CLOcRQvFZ35E11lNitaFSwos2HSUmtp8ts70lL19pmgjV5brTyVt7/JqktTq9pu57Wdy4K9PFYZV9eSGI46muBbvGngRGngpHAsDKCLAXIqnIHl7pZ4cxycSPt3TDVsdZe3o5mTccYIWu9cvLtgkPZtcCScEiNUh9WfRgSWwzs6wWVLuoC+wDHhYdl/slU2cWeZEY73IvYf3fa2t12mM44SsAq4wDHYyyKg1S77R8qTuY1/s5xs9haRycpTAZ38lBvNFjYNHLYGDt2xrA1B3v4X7yCkXQyW47CV3zsHTqc9KhTYeR19B5ihwWmznqf/ND7b2u1AFfCfZXDVZ/pih+7c1TxxJ8/owTgFO07tMjVysSmundWcnr0enbWBjmOY+404muQmh3ZwIGjFytUjzJ3ZZCskT3HwLd40cKI0cOiORUMZhYvB+GfEZjy7dDMgBmKzlmmLaYKnurLoTCkYYLt88WSA9mzEI4XKe8diG/wsw6t/mOCafphyBctIJw284JyAYMevD9oLcDnIZzzjGQey2v7vPYzg3x1yRwvmPBEHOanXvhjlvUOqnR06bfu9bfxCukieBbj9bBo4JA2cFI6FMTCMAgfiSe4lpREDw2RgturbwSttq7iNdozP6MOOVBu88BHDsTGrv3CnQ/BOxUE+Rj2cj2MMmg6F1y5hZ5gIGW4yhlc+g/b+xFGS6vW3stGL6Vz4dqve/va3X5wJB9P5LDkPBx5xqurTflMqtPi7rn/96y8OVr3OBXF0ROVrOadOk3OLNw2cCA0cumNpRDCNwDkensSMzsiD0+gdCaXYBu9MFs5DuTNwe//iLI22mCuD4yXsDHagei/TFnTGOvcMkcVBQ+gdVSlM+abMOQw44N6ncBxeKrs6EKj6OTPHETjWQLn3P/HgOLyENsoxKlPetCh60z5O0RER/s7uA+zxmHLOdPRbvGngRGjg0B2LRjKALnnvWDrASZ7BZThTKdaMdKAOuCkFPLzW+PJNOSoz4jGyyADVM0N4U7ZjyTLppDkQIycBDR7xJ4dzSYxSJr/K0ZgmmY4JyVGaA/OSuPZMOrhdC/H2s2ngEDRw6I5lbVj++XBIUEN+ByNPw6KjDKp4wqSnoyidbicNWLyLp5HmdCqbtGCTdzjRJNPklwzo8Jr0pfGJZupmwuGGM9sQj+qZOMG2eNPAidDAoTuWtTF4UnvH4thIp7z11ytlMNpCdNN4wJqmZOjwS69x4yVWFk/5RhvhxKM4eDzX9JXHUxzu5BFMefBo1jzk4YcnHb2y6fjk13zit8WbBo63Bg7dsdTAjGUaWGXijGQaUuUZVDzAw1vTlQ+3PBqw6MSVBStfvcXhJkfwLd40cFQ1cOiOJaN1AxptdDPmCGUavXJGnnMIXzxpgk+8fc4hxxD+OTkI+F1rflOuWW+8t3jTwFHQwKE7Foa4Nmz5wtpw18YqDz94+OXxqY545jiK99FMB5UTmXLhVT76+M+6g23xpoGjpIFDdyyUvXYOM5/xTmPNIaCdRj3T8V3fzHDiW3nwWU9l4sql4azxlE+cmZ58tvSmgaOggUN3LBlghp7TCF7czWgksc+ww1G2pos/HMv1vRwW4CqrPNroZz1wyicHWLjiyic8ubZ408BR0cChO5YMeq3wDBQ8g50wcPmMOvqJk5OaMGnHFVitG20yFMcr+uoHDzZxpcvPuuKzxZsGjpoGDt2xZNwUzyjlfX/WsQbOJrE3SNpKU4ccCfbKWDlrVa3DjnxVzopVxm3jn2MXLECziMzeGzuVrVDF325nK2NtDrQc3nkmjjWofjiW5Vvta+Ut+sqTVWy5va/6dVxDjgUf6c3BLCrdfo6oBg7dsaT3RgIM0rJ4RsuwnTdikZxv9Vo8x2ht5HvQgx60nJ7m2ITb3OY2y8fc8WLolurbsIcn52L5fDufOQTfE+JYfJzcsQk+L5oj4FQspzddsqrXVgL7llry758rR0KSDVx5IR7lt3jTwFHVwEnjWBjlHBEYrdiAx5GANwpwlCOjtt8nfPtnjF58yxYfaQ5FgMNRdP4sPj4v6kyWGcAFxzP4wLzFeTYg+si5M1R8VzjHgacd0so4n+SoHJ8c5axjS28aOCoaOHTHsjbADNxIwn6hjDW4IwVszuvlqRvlYCfOxnkljFzaLmi0LiMY+fbecApOloObU8DHaMQhUpwO5+PD446HtPuZ0xKSw6iFs4p+yjnTC9H2s2ngiGng0B0Lfa8XxjHe6Vg4BMbKiHMidjHbRGhkcve73335SLvT7YXrXe96y7sToxpHLnA0HefIITk2wTsUGwW9e3nlK1958IHxxz/+8Quvpk4cki8mdug1/urB01TITutCDqX8Fm8aOKoaOCkcS8rnUDiDjLaYARshNDrwaYyrXOUqC57RiEOgcgR4dN6KKZEXtV78djiUutTh3Q2+LvQ5CMc+OgoTXP14OMIh/pyHOryjUe4zH8l1rLj2bfGmgaOigZPGsTBK06J9T31wxiwUwzPi8KI3g1Y+6ZXPPDz5YDYaNj2aN1x9RlFeAKtv8oeXPBM+5So9yyf/Lb1p4FNdA4fuWBipkDGm8Ix/XRac0brkS8MtPx0CWHTxV++Ew1/jhBs8/BxG+fAmj3V7wtniTQNHQQOH7lhScobIWGc6I57OA03w6BtFlI9H8Ro+eeAVXo6ueOLFoziHgzZ54iMuHf4Wbxo4Kho4KRwLA8xIU/zasDNc5dP5ZLyzPFi8oim/rmsfPBy84jcdUOXRFk/4lKnyLd40cBQ0cFI4lvOr6GnMOYFg5ddGXrm6w1nDwKczgRvO5LemL18cbrTFwYvX8OjPST8TD4/4RVd+HVc+nXj04c42h79Pzok/adbwNY9khxdu/IujObs42tmWYOrowmPC5aunuHrguaaMs2yd3ocXjrhy6Sln9RZHM2UGI8vEmenaFG1xdc54jTvzyTV5x+u8xKe8Y0kp+xQBRqFwXOEUR7t+gbv++5tC4yHdTZKevCY83hMWnxlLzxA/sDXtxFun98k8eZxTh5n62Sd7comT6+zwKlvL6e/+6GdZsGO1Y+IeKx1tvOBNOUrP8tpVWTTBqyv9lRfjM+nqR8HELnizzsonr9Ktz5r41RWOGI8pY/l4o6988qp8H/7kL72vzWucY+VPeccyG0ZZda6U6gNnPrPR38XwK9uXroxSSxfPutysbtgslyaHz5P4hGth4iRjZd3k+IHDn/lw13F8w60zyHfFTz2l4xMs+vLFa3j1FcMrnVHIR195fNQbTBo83GQSr3U0y9bpSS+9j2cyxbc8XlO22gIeTjC80QdPjnU+eLxtGbEWynaS9pZN/uF378pPuWY6eeCRaU0X/b540la+hp0XfvFYx58SjmWtmBoJ7obaW2QlrXy4dTC4dcbS0e/LUzp8oZu970b4PKxFfMIsr37wmY6neMIXBufwM/nbCtEnXCPL4Mvvi6t/X5uSxzeYLEaUDw+vaKXBy0c349LJMNtbWfSzjvCPFaONHk48xKWjhRfvyuQn/UyjW+fB1jRg9auJ78Hmm96XuMQlln1vsyya5BDPcvlkTY6ZBxMmXeVgwcWF+AcLH3zCwovuvMSnvGNJKSmkxmdsYl8ntDxfCF86xYFFL57w8PAJZ/KIpzI40UYXTXjBxcqquxhcmHzOBO2N4qEQDzu97eCWxkMsTPkmDI6yiRtsXaFNoPZNwV+HDEpZdcHBa8bRNm2ITzJNPVd2dnH1xZcTlcZPXP2VV4+4smDVU35Nsy4vLw43WLzltUnwgPO1znAnjvKpQ/nKoweLVkzOZBWHLz3x0K1DuODrB886v6Y9N/lT3rGk4G4Khfk2spW1173udXePfvSjl82MjE2A56l+xStecVlVe81rXnP30pe+dCkzqnHkgi0BVtUyUit8r3SlKy0fDnPD+iDZ5S53uWXPkg+b+T5QN9KUSwfCx9C3QC5fH7j61a++fNDeFxLJkMMLz0014njUox61fOI1+DnFjomwDeIa17jG7o53vOMyDbN7u+9Co3//+9+/7JFqRbEzaXybqeCIitpuZfFpp5128AH617zmNYtMViI7bsJncJ/5zGcetJujsB0CnVXL2n/GGWcsrLXxqle96tJ2X5z05QVHYcC5z33us+DQmy9I4m8vmDY4AuPcBquxtR0952e0mNHd7W53W+TydUv3wQfhyPmQhzxkYW9bh9XVl770pZcV2uDuKYO+9rWvveAbbfhIniM96O9e97rX0nYjOB+O03dudKMb7W5wgxssG1jdR/TT4OnA/dBX6i9w6NEWE7LrO7aYTMNPB9HIl6Y3u/utQL/IRS6yfEUzneJhGuYDecq0z/ScbO95z3uWe2DVuXrJjo+TAJxXNJ1Z9Z+X+JR3LLOxFKnTuvFOiPNpU86B4tx4wfeOL3nJS+5e/epXL2e2cDjKGY6l/jo3Z/GmN71pgTMgu5zrhKYDHAYj9amS6ZjqDD4FC9/u5zqRG4W/rzYyKF9AfMlLXrIYIWc1AwPRhvvd734TvDeNv85rlTGHebWrXW1xHr7gKG9jpqAOzsx2BR+pJ/9Nb3rT3U1ucpOlE3Mw6tRRyUkfOiu+gr1ST3jCExacpz/96Ysx0EOG412Wjmv/Fj3QPwMW8LvLXe6y1CWtnHMiK/4f+9jHdpe61KWWw7ccT+GYDMZKt+cm2FbBcMiDH+NlIJyLurTNg0Z71U+uhz/84YtOlHvvYWOqfWHuKbmcwaNtzgCil3e96127293udotzwZ/z9Alfe9fUfYUrXGE5O4gMnIQvYK4DxzK/L47/c57znIMvXtq2wqjpvWM6ciDxmnntuuxlL7tsW6GD9KZ/CfohOdVhT93rXve6RX4PW3z0bTrWFzhz3zPXbhtxBbr5ZMOnhGOhgBTOKfj2sQBmhMKgciyU7nAnN7VAoc5oETzdOB1PLB1K5/GU9RE1Qd6XGnl4HcWTzOii+vP0Xt46U2YGcqIzQgqfk7NzurxYp2LEvlt9TqF2FHvK69zC1Asny4EaVTA4zlKbtZExqvc617nOzlP9cY973OIY2j9Vm3zGVgdM1upUl29o43WPe9xjoed8OCkBnk2gOnmfhDVi8GTGi77R2qdVZ2YUz3/+8xf6c/qxC94ohc5dPtHLYIwOC+4n52YUxumrt3YY7dHJDW94w+UpjhfjE7SB0xAcpaEufYrz7/O3ZE9X2sopg3FiQvdB33N+kJDuHNNBVg8hsqvD3jbvZCZe9yA6PPVLOnV0h7wyjk5fl3YfPShrJ376hnsIX9q7QOU3v/nNl4duZw0pPz/hlHcsU2mUwVgMVwV55RyAJwFlU6qXaYK8y6FRhoECeqMatDoHozPMZnBw3SiOiKEoc2M4lnXwcXfXDHgaIXhyFAx9nYjXVA7cUFWHrjOFuy/GcwaG7YX1pCW3EYX2OHbiRS960XJAlUOqdE46guOpbNpCbiM9+N6rFDg6sHRerJwRORfHSMnZNTqqqV7yiW0I5ZSNAk4//fSlDNyxFDaJNqWML5mEyeO9733vgcEmF/3jpz3kdygY4zI6QFv7HJXBSZCtkRMe7i2nY3RnZPewhz3s4Hvf7jMasphqMlbBNJtjoWcOO4ehvre85S2Lntptn/yc6dve9raFPpjRgf7kniT7y172suVIDjjpgPOY9wITI15OiEMuwE9/97znPZfRqzIw/NC4h+TOsYDr16ZNRpzKwVyfbDjlHYuGU2YK5TQoRmc1utAZ3Pie4obA3pswAgb8xje+ccHXKSlS59MppfExTDYNaMTiqMrnPve5y1NCB+KoPN26EW4gvkYET3nKUxaHoaybbSrEUQlgDGLukAbX0dW9HvEsRHt+6nw6C1m0QZoj0G5OqmGx6ZFOqtM7Jc8TGK7h8MUvfvFlilYnND3R4QVt8DSjS0Nundl00bEUAodliuHpL3AA2jDPrDESw5Nhm4LiKdjsCddTWh3k8y7A6JEstc/THB6jLpDd/SEXeejedNVoyHRLaLTivYg6H/CAByzvkjJIR5d6z8HZGHm4p5yLujkWUzzBOzL6Ig8ZbTN81AAABURJREFUvAtDY9rlfRJH4/2e9xYeOOqC66FBTn3HVJ08grInPelJy7TPaBA+5+EUQ0ZeyNiNTnoowdVO+vAgoHft0WYPR/XZ5W+aRhdkMDI2zfPwEZ71rGcdTLdNE420qqu6P9n4lHcsbv4MFK5TXPjCF16U7mWaoaYb4IlEwd5duElgLsNgfNxQdDopw/AUZeScEDwjAco3r4Xjpa7RDl5PfOITFzEMo82R4109OpMnOTplpgQ6eHkdVNDZdEpw9Z2boM0F7wk8YePradiTjhM1dVPGGEwRTQtzLNpOXiMN5Z549DWN2xSt9nHQnCyZHYiFBm8GxIFk2PgL8LxIZKgZdXJzch2FgYf3GfQ+gyc53XE4Qny13wNEWfdPPYyTo/FUZ2D6gWD6AddJgWRigOQFM4J8xCMesaS1lZMBZ6ycNNk4VvIpU7dyIxn9QZpjZ+j0ZlSLxqXMRU/edQn04F9L8PDUNQ8Wcw/ICqeXv2jx58zcr3g7ddEIuMDx4+u+ujgVMtFtMnkYg+Ohn4r1m9mv4ndu41PesegYAiXPmKFSYCHjcJMET2yjkTqncoqc/ErHI1rKxzvF9wSSjw+aZAoPDM8JLx3vcMtX97HiZKze2uPJE4/qKDaSm7qJNxh6T8L1t6vDEasTzgxgphHovBxOrmK46mdIymcIRzz1Gk7l6EunJzillWubOuAFl+7v7WDxFodrpCTg08UxzRC9ckE5R4G2MvDSxfGIbg0nn1Fl9684XvC7n9KTnvzux5QVPbj64HqQdU9rm/JCctWXwYOFc17iU96xaOxUcjdkwmZ6KiwFTwXOdIqcN6xOWNm8Oftgs7z0rEOafGvYup5474unfMonr9pe3eKpo8onLNz4rPmrI7riaMpPOZRNeGlx6bPjqQwPV3LGP/p99U+e0kL467Q8446PfO2XTgeTXrmRmie8aa/R37ocrZDck+eZRWehAZs8Zj74lHHyDr6uQ179wcOL98xLw5sweOc1nPKOJWXlzY+lADclpa1xwLtp+O3rRGiCr+nl3bh4yOM564t24oQ3+U1ZJvzcpCfvmUYrj/e+kA7r/HDWnSt+4canfDF4T73q697Ec+LGZ8br8ikXvGSJ/7HiyTMZwMKPr/y6zqkv5dU56aX9KeBfKFMO74XwCVdcujrjVX7WGyy50VaerJWJwSoPLh9s0u/jnWzwS8dHvA82y88ufco7ltm4FJHCU2ZwuCldGnyWwZ/5eO+D7bvR3dTJV3rWiWedPPkmrDrhrOkqm3E84JZONvk1j/LFeMHbJ2f11P74R1M+pxn+vng9Gpj1ScdrLdfkVbvAkilYbQh/H89owpl8ZjqeYMmzjie+dDqoHZNWvdGDz6BsylV6Hc/24VX5mtfMzzqTa02Lzz68yeeTSX9KOBaKSTmzU6wV0s1IyZVP+mDhxBd83tzwxMfiO3HIFV7w6iiO1/pmh39OMVnjVTxh1T/Lzo5nbQ8fbvwqix4OWHXMNsx7Ar7mh0c48a+u+Fdf9RyrHDwZ4M66osErfpN/sGjW9MlYebTFk/5YOMkGd+LMfA+ecCee9MxXZ7jrPNnCh1M6vCn7LCtd+XmNPyUcy3lt9Ia/aWDTwPHVwOZYjq9+N+6bBo6kBjbHciRv+9boTQPHVwObYzm++t24bxo4khrYHMuRvO1bozcNHF8NbI7l+Op3475p4EhqYHMsR/K2b43eNHB8NbA5luOr3437poEjqYHNsRzJ2741etPA8dXA5liOr3437psGjqQGNsdyJG/71uhNA8dXA5tjOb763bhvGjiSGvh//zrhP+GANjgAAAAASUVORK5CYII=&quot; alt=&quot;&quot;&gt;&lt;pre style=&quot;overflow-wrap: break-word&quot;&gt;&lt;/pre&gt;" style="whiteSpace=wrap;html=1;shape=mxgraph.basic.document" parent="Tt9E_PuKXi1-dNqv6SaU-1" vertex="1">
          <mxGeometry x="320" y="50" width="290" height="250" as="geometry" />
        </mxCell>
        <mxCell id="Tt9E_PuKXi1-dNqv6SaU-6" value="&lt;font style=&quot;font-size: 18px&quot;&gt;输入：应用描述语言&lt;/font&gt;" style="text;html=1;resizable=0;autosize=1;align=center;verticalAlign=middle;points=[];fillColor=none;strokeColor=none;rounded=0;" parent="Tt9E_PuKXi1-dNqv6SaU-1" vertex="1">
          <mxGeometry x="110" y="160" width="180" height="20" as="geometry" />
        </mxCell>
        <mxCell id="Tt9E_PuKXi1-dNqv6SaU-7" value="" style="shape=flexArrow;endArrow=classic;html=1;" parent="Tt9E_PuKXi1-dNqv6SaU-1" edge="1">
          <mxGeometry width="50" height="50" relative="1" as="geometry">
            <mxPoint x="460" y="320" as="sourcePoint" />
            <mxPoint x="460" y="380" as="targetPoint" />
          </mxGeometry>
        </mxCell>
        <mxCell id="Tt9E_PuKXi1-dNqv6SaU-9" value="&lt;font style=&quot;font-size: 18px&quot;&gt;Serverless 控制器/应用模板引擎&lt;/font&gt;" style="shape=hexagon;perimeter=hexagonPerimeter2;whiteSpace=wrap;html=1;fixedSize=1;" parent="Tt9E_PuKXi1-dNqv6SaU-1" vertex="1">
          <mxGeometry x="315" y="390" width="300" height="170" as="geometry" />
        </mxCell>
        <mxCell id="Tt9E_PuKXi1-dNqv6SaU-10" value="" style="shape=flexArrow;endArrow=classic;html=1;" parent="Tt9E_PuKXi1-dNqv6SaU-1" edge="1">
          <mxGeometry width="50" height="50" relative="1" as="geometry">
            <mxPoint x="464.2899999999998" y="570" as="sourcePoint" />
            <mxPoint x="464.2899999999998" y="630" as="targetPoint" />
          </mxGeometry>
        </mxCell>
        <mxCell id="Tt9E_PuKXi1-dNqv6SaU-11" value="&lt;font style=&quot;font-size: 18px&quot;&gt;RSP/SSP&lt;/font&gt;&lt;br&gt;&lt;pre style=&quot;overflow-wrap: break-word&quot;&gt;&lt;/pre&gt;" style="whiteSpace=wrap;html=1;shape=mxgraph.basic.document" parent="Tt9E_PuKXi1-dNqv6SaU-1" vertex="1">
          <mxGeometry x="150" y="600" width="130" height="80" as="geometry" />
        </mxCell>
        <mxCell id="Tt9E_PuKXi1-dNqv6SaU-12" value="" style="shape=flexArrow;endArrow=classic;html=1;" parent="Tt9E_PuKXi1-dNqv6SaU-1" edge="1">
          <mxGeometry width="50" height="50" relative="1" as="geometry">
            <mxPoint x="464.28999999999974" y="840" as="sourcePoint" />
            <mxPoint x="464.28999999999974" y="900" as="targetPoint" />
          </mxGeometry>
        </mxCell>
        <mxCell id="Tt9E_PuKXi1-dNqv6SaU-13" value="&lt;span style=&quot;font-size: 18px&quot;&gt;联合调度器&lt;/span&gt;" style="shape=hexagon;perimeter=hexagonPerimeter2;whiteSpace=wrap;html=1;fixedSize=1;" parent="Tt9E_PuKXi1-dNqv6SaU-1" vertex="1">
          <mxGeometry x="315" y="650" width="300" height="170" as="geometry" />
        </mxCell>
        <mxCell id="Tt9E_PuKXi1-dNqv6SaU-14" value="&lt;span style=&quot;font-size: 18px&quot;&gt;联邦资源&lt;/span&gt;&lt;br&gt;&lt;pre style=&quot;overflow-wrap: break-word&quot;&gt;&lt;/pre&gt;" style="whiteSpace=wrap;html=1;shape=mxgraph.basic.document" parent="Tt9E_PuKXi1-dNqv6SaU-1" vertex="1">
          <mxGeometry x="400" y="910" width="130" height="80" as="geometry" />
        </mxCell>
      </root>
    </mxGraphModel>
  </diagram>
  <diagram id="KUZCg1z9gL11DRXfa6HI" name="Page-8">
    <mxGraphModel dx="954" dy="615" grid="1" gridSize="10" guides="1" tooltips="1" connect="1" arrows="1" fold="1" page="1" pageScale="1" pageWidth="827" pageHeight="1169" math="0" shadow="0">
      <root>
        <mxCell id="zcT4PRrea4SaeAhM720M-0" />
        <mxCell id="zcT4PRrea4SaeAhM720M-1" parent="zcT4PRrea4SaeAhM720M-0" />
        <mxCell id="zcT4PRrea4SaeAhM720M-2" value="" style="rounded=0;whiteSpace=wrap;html=1;dashed=1;strokeColor=#82b366;glass=0;shadow=0;fillColor=none;" parent="zcT4PRrea4SaeAhM720M-1" vertex="1">
          <mxGeometry x="395" y="270" width="820" height="110" as="geometry" />
        </mxCell>
        <mxCell id="zcT4PRrea4SaeAhM720M-3" value="" style="rounded=0;whiteSpace=wrap;html=1;fillColor=none;dashed=1;" parent="zcT4PRrea4SaeAhM720M-1" vertex="1">
          <mxGeometry x="398.13" y="120" width="816.87" height="120" as="geometry" />
        </mxCell>
        <mxCell id="zcT4PRrea4SaeAhM720M-4" value="" style="rounded=0;whiteSpace=wrap;html=1;fillColor=none;dashed=1;" parent="zcT4PRrea4SaeAhM720M-1" vertex="1">
          <mxGeometry x="402.25" y="430" width="812.75" height="100" as="geometry" />
        </mxCell>
        <mxCell id="zcT4PRrea4SaeAhM720M-5" value="自有K8S 集群" style="rounded=1;whiteSpace=wrap;html=1;fillColor=#fff2cc;strokeColor=#d6b656;" parent="zcT4PRrea4SaeAhM720M-1" vertex="1">
          <mxGeometry x="440" y="130" width="120" height="80" as="geometry" />
        </mxCell>
        <mxCell id="zcT4PRrea4SaeAhM720M-6" value="公有K8S集群" style="rounded=1;whiteSpace=wrap;html=1;fillColor=#fff2cc;strokeColor=#d6b656;" parent="zcT4PRrea4SaeAhM720M-1" vertex="1">
          <mxGeometry x="745" y="130" width="120" height="80" as="geometry" />
        </mxCell>
        <mxCell id="zcT4PRrea4SaeAhM720M-7" value="接入K8S集群" style="rounded=1;whiteSpace=wrap;html=1;fillColor=#fff2cc;strokeColor=#d6b656;" parent="zcT4PRrea4SaeAhM720M-1" vertex="1">
          <mxGeometry x="1055" y="130" width="120" height="80" as="geometry" />
        </mxCell>
        <mxCell id="zcT4PRrea4SaeAhM720M-8" value="Edge" style="rounded=1;whiteSpace=wrap;html=1;" parent="zcT4PRrea4SaeAhM720M-1" vertex="1">
          <mxGeometry x="426" y="460" width="50" height="40" as="geometry" />
        </mxCell>
        <mxCell id="zcT4PRrea4SaeAhM720M-9" value="&lt;span&gt;Edge&lt;/span&gt;" style="rounded=1;whiteSpace=wrap;html=1;" parent="zcT4PRrea4SaeAhM720M-1" vertex="1">
          <mxGeometry x="541" y="460" width="50" height="40" as="geometry" />
        </mxCell>
        <mxCell id="zcT4PRrea4SaeAhM720M-10" value="&lt;span&gt;Edge&lt;/span&gt;" style="rounded=1;whiteSpace=wrap;html=1;" parent="zcT4PRrea4SaeAhM720M-1" vertex="1">
          <mxGeometry x="729.69" y="460" width="50" height="40" as="geometry" />
        </mxCell>
        <mxCell id="zcT4PRrea4SaeAhM720M-11" value="&lt;span&gt;Edge&lt;/span&gt;" style="rounded=1;whiteSpace=wrap;html=1;" parent="zcT4PRrea4SaeAhM720M-1" vertex="1">
          <mxGeometry x="841.75" y="460" width="50" height="40" as="geometry" />
        </mxCell>
        <mxCell id="zcT4PRrea4SaeAhM720M-12" value="&lt;span&gt;Edge&lt;/span&gt;" style="rounded=1;whiteSpace=wrap;html=1;" parent="zcT4PRrea4SaeAhM720M-1" vertex="1">
          <mxGeometry x="1025" y="460" width="50" height="40" as="geometry" />
        </mxCell>
        <mxCell id="zcT4PRrea4SaeAhM720M-13" value="&lt;span&gt;Edge&lt;/span&gt;" style="rounded=1;whiteSpace=wrap;html=1;" parent="zcT4PRrea4SaeAhM720M-1" vertex="1">
          <mxGeometry x="1140" y="460" width="50" height="40" as="geometry" />
        </mxCell>
        <mxCell id="zcT4PRrea4SaeAhM720M-14" value="&lt;font style=&quot;font-size: 21px&quot;&gt;.....&lt;/font&gt;" style="text;html=1;resizable=0;autosize=1;align=center;verticalAlign=middle;points=[];fillColor=none;strokeColor=none;rounded=0;" parent="zcT4PRrea4SaeAhM720M-1" vertex="1">
          <mxGeometry x="486" y="470" width="40" height="20" as="geometry" />
        </mxCell>
        <mxCell id="zcT4PRrea4SaeAhM720M-15" value="&lt;font style=&quot;font-size: 21px&quot;&gt;.....&lt;/font&gt;" style="text;html=1;resizable=0;autosize=1;align=center;verticalAlign=middle;points=[];fillColor=none;strokeColor=none;rounded=0;" parent="zcT4PRrea4SaeAhM720M-1" vertex="1">
          <mxGeometry x="794.88" y="470" width="40" height="20" as="geometry" />
        </mxCell>
        <mxCell id="zcT4PRrea4SaeAhM720M-16" value="&lt;font style=&quot;font-size: 21px&quot;&gt;.....&lt;/font&gt;" style="text;html=1;resizable=0;autosize=1;align=center;verticalAlign=middle;points=[];fillColor=none;strokeColor=none;rounded=0;" parent="zcT4PRrea4SaeAhM720M-1" vertex="1">
          <mxGeometry x="1087.5" y="470" width="40" height="20" as="geometry" />
        </mxCell>
        <mxCell id="zcT4PRrea4SaeAhM720M-17" value="&lt;br&gt;&lt;br&gt;K8S1" style="rounded=1;whiteSpace=wrap;html=1;" parent="zcT4PRrea4SaeAhM720M-1" vertex="1">
          <mxGeometry x="445.82" y="300" width="120" height="60" as="geometry" />
        </mxCell>
        <mxCell id="zcT4PRrea4SaeAhM720M-18" value="&lt;br&gt;&lt;br&gt;K8S2" style="rounded=1;whiteSpace=wrap;html=1;" parent="zcT4PRrea4SaeAhM720M-1" vertex="1">
          <mxGeometry x="744.7" y="300" width="120" height="60" as="geometry" />
        </mxCell>
        <mxCell id="zcT4PRrea4SaeAhM720M-19" value="&lt;br&gt;&lt;br&gt;K8S3" style="rounded=1;whiteSpace=wrap;html=1;" parent="zcT4PRrea4SaeAhM720M-1" vertex="1">
          <mxGeometry x="1037.3200000000002" y="300" width="120" height="60" as="geometry" />
        </mxCell>
        <mxCell id="zcT4PRrea4SaeAhM720M-20" value="&lt;font style=&quot;font-size: 14px&quot;&gt;核心云&lt;/font&gt;" style="text;html=1;resizable=0;autosize=1;align=center;verticalAlign=middle;points=[];fillColor=none;strokeColor=none;rounded=0;dashed=1;" parent="zcT4PRrea4SaeAhM720M-1" vertex="1">
          <mxGeometry x="305" y="190" width="60" height="20" as="geometry" />
        </mxCell>
        <mxCell id="zcT4PRrea4SaeAhM720M-21" value="&lt;font style=&quot;font-size: 14px&quot;&gt;边缘云&lt;/font&gt;" style="text;html=1;resizable=0;autosize=1;align=center;verticalAlign=middle;points=[];fillColor=none;strokeColor=none;rounded=0;dashed=1;" parent="zcT4PRrea4SaeAhM720M-1" vertex="1">
          <mxGeometry x="305" y="330" width="60" height="20" as="geometry" />
        </mxCell>
        <mxCell id="zcT4PRrea4SaeAhM720M-22" value="&lt;font style=&quot;font-size: 14px&quot;&gt;边缘网关&lt;/font&gt;" style="text;html=1;resizable=0;autosize=1;align=center;verticalAlign=middle;points=[];fillColor=none;strokeColor=none;rounded=0;dashed=1;" parent="zcT4PRrea4SaeAhM720M-1" vertex="1">
          <mxGeometry x="300" y="470" width="70" height="20" as="geometry" />
        </mxCell>
        <mxCell id="zcT4PRrea4SaeAhM720M-23" value="" style="endArrow=classic;html=1;exitX=0.5;exitY=1;exitDx=0;exitDy=0;entryX=0.5;entryY=0;entryDx=0;entryDy=0;" parent="zcT4PRrea4SaeAhM720M-1" source="zcT4PRrea4SaeAhM720M-17" target="zcT4PRrea4SaeAhM720M-8" edge="1">
          <mxGeometry width="50" height="50" relative="1" as="geometry">
            <mxPoint x="307.25" y="460" as="sourcePoint" />
            <mxPoint x="357.25" y="410" as="targetPoint" />
          </mxGeometry>
        </mxCell>
        <mxCell id="zcT4PRrea4SaeAhM720M-24" value="" style="endArrow=classic;html=1;entryX=0.5;entryY=0;entryDx=0;entryDy=0;" parent="zcT4PRrea4SaeAhM720M-1" target="zcT4PRrea4SaeAhM720M-9" edge="1">
          <mxGeometry width="50" height="50" relative="1" as="geometry">
            <mxPoint x="506.9999999999998" y="360" as="sourcePoint" />
            <mxPoint x="461" y="470" as="targetPoint" />
          </mxGeometry>
        </mxCell>
        <mxCell id="zcT4PRrea4SaeAhM720M-25" value="" style="endArrow=classic;html=1;exitX=0.5;exitY=1;exitDx=0;exitDy=0;entryX=0.5;entryY=0;entryDx=0;entryDy=0;" parent="zcT4PRrea4SaeAhM720M-1" source="zcT4PRrea4SaeAhM720M-18" edge="1">
          <mxGeometry width="50" height="50" relative="1" as="geometry">
            <mxPoint x="807.57" y="370" as="sourcePoint" />
            <mxPoint x="751.1299999999999" y="460" as="targetPoint" />
          </mxGeometry>
        </mxCell>
        <mxCell id="zcT4PRrea4SaeAhM720M-26" value="" style="endArrow=classic;html=1;entryX=0.5;entryY=0;entryDx=0;entryDy=0;exitX=0.5;exitY=1;exitDx=0;exitDy=0;" parent="zcT4PRrea4SaeAhM720M-1" source="zcT4PRrea4SaeAhM720M-18" edge="1">
          <mxGeometry width="50" height="50" relative="1" as="geometry">
            <mxPoint x="807.38" y="370" as="sourcePoint" />
            <mxPoint x="866.1299999999999" y="460" as="targetPoint" />
          </mxGeometry>
        </mxCell>
        <mxCell id="zcT4PRrea4SaeAhM720M-27" value="" style="endArrow=classic;html=1;exitX=0.5;exitY=1;exitDx=0;exitDy=0;entryX=0.5;entryY=0;entryDx=0;entryDy=0;" parent="zcT4PRrea4SaeAhM720M-1" source="zcT4PRrea4SaeAhM720M-19" edge="1">
          <mxGeometry width="50" height="50" relative="1" as="geometry">
            <mxPoint x="1105.19" y="370" as="sourcePoint" />
            <mxPoint x="1048.75" y="460" as="targetPoint" />
          </mxGeometry>
        </mxCell>
        <mxCell id="zcT4PRrea4SaeAhM720M-28" value="" style="endArrow=classic;html=1;entryX=0.5;entryY=0;entryDx=0;entryDy=0;exitX=0.5;exitY=1;exitDx=0;exitDy=0;" parent="zcT4PRrea4SaeAhM720M-1" source="zcT4PRrea4SaeAhM720M-19" edge="1">
          <mxGeometry width="50" height="50" relative="1" as="geometry">
            <mxPoint x="1105" y="370" as="sourcePoint" />
            <mxPoint x="1163.75" y="460" as="targetPoint" />
          </mxGeometry>
        </mxCell>
        <mxCell id="zcT4PRrea4SaeAhM720M-29" value="用户态协议栈" style="rounded=1;whiteSpace=wrap;html=1;fillColor=#e1d5e7;strokeColor=#9673a6;" parent="zcT4PRrea4SaeAhM720M-1" vertex="1">
          <mxGeometry x="440" y="180" width="120" height="30" as="geometry" />
        </mxCell>
        <mxCell id="zcT4PRrea4SaeAhM720M-30" value="用户态协议栈" style="rounded=1;whiteSpace=wrap;html=1;fillColor=#e1d5e7;strokeColor=#9673a6;" parent="zcT4PRrea4SaeAhM720M-1" vertex="1">
          <mxGeometry x="745" y="180" width="120" height="30" as="geometry" />
        </mxCell>
        <mxCell id="zcT4PRrea4SaeAhM720M-31" value="用户态协议栈" style="rounded=1;whiteSpace=wrap;html=1;fillColor=#e1d5e7;strokeColor=#9673a6;" parent="zcT4PRrea4SaeAhM720M-1" vertex="1">
          <mxGeometry x="1055" y="180" width="120" height="30" as="geometry" />
        </mxCell>
        <mxCell id="zcT4PRrea4SaeAhM720M-32" value="用户态协议栈" style="rounded=1;whiteSpace=wrap;html=1;fillColor=#e1d5e7;strokeColor=#9673a6;" parent="zcT4PRrea4SaeAhM720M-1" vertex="1">
          <mxGeometry x="445.82" y="300" width="120" height="30" as="geometry" />
        </mxCell>
        <mxCell id="zcT4PRrea4SaeAhM720M-33" value="用户态协议栈" style="rounded=1;whiteSpace=wrap;html=1;fillColor=#e1d5e7;strokeColor=#9673a6;" parent="zcT4PRrea4SaeAhM720M-1" vertex="1">
          <mxGeometry x="744.7" y="300" width="120" height="30" as="geometry" />
        </mxCell>
        <mxCell id="zcT4PRrea4SaeAhM720M-34" value="用户态协议栈" style="rounded=1;whiteSpace=wrap;html=1;fillColor=#e1d5e7;strokeColor=#9673a6;" parent="zcT4PRrea4SaeAhM720M-1" vertex="1">
          <mxGeometry x="1037.3200000000002" y="300" width="120" height="30" as="geometry" />
        </mxCell>
      </root>
    </mxGraphModel>
  </diagram>
</mxfile>
